<?xml version="1.0" encoding="UTF-8" standalone="no"?>
<svg
   width="1600"
   height="1600"
   viewBox="0 0 768 768"
   version="1.1"
   id="svg84"
   xmlns="http://www.w3.org/2000/svg"
   xmlns:svg="http://www.w3.org/2000/svg">
  <defs
     id="defs84" />
  <path
     id="path85"
     style="opacity:0.025;fill:#000000;fill-opacity:1;stroke-width:1.36285"
     d="m 382.96351,4.0553807 c -42.1059,0.2556508 -83.69159,14.3632363 -117.32949,41.2944013 -5.23874,4.194244 -9.72998,8.209991 -9.97944,8.921696 -0.24948,0.711707 1.49245,1.291615 3.86952,1.291615 12.21808,0 47.22377,9.469448 68.19769,18.446673 l 10.83522,4.637602 11.84509,-3.470884 c 14.46974,-4.24025 37.0807,-5.7237 51.89575,-3.404441 32.52322,5.09143 61.49475,22.287283 80.30589,47.662127 9.77154,13.18107 19.93859,35.30084 24.44764,53.18999 2.09138,8.29739 4.34979,15.59908 5.01762,16.2249 1.17323,1.09943 13.76249,4.16822 49.5198,12.07099 l 17.0089,3.75791 0.42258,-3.75525 c 0.2327,-2.06569 -0.89754,-11.58322 -2.51148,-21.14949 C 563.5945,103.22623 520.70064,45.098635 457.70963,18.778703 433.67681,8.7369089 408.22705,3.9019879 382.96351,4.0553807 Z M 232.29659,76.696648 c -26.16354,0.04886 -41.7204,2.828061 -65.31416,11.667044 C 94.599546,115.48063 44.540759,187.08931 44.521028,263.54734 l -0.0028,16.80426 10.045875,-9.38412 c 12.852733,-12.00302 31.279396,-25.0567 47.882727,-33.92212 l 13.06762,-6.9763 4.3293,-10.73953 c 8.94633,-22.18804 28.5083,-45.53191 48.62949,-58.03223 38.3443,-23.82144 82.49783,-24.77439 130.53265,-2.81709 l 10.68371,4.88208 4.5047,-3.1307 c 3.53306,-2.4567 43.98292,-34.87511 49.21683,-39.44469 3.35742,-2.93127 -40.78389,-25.79511 -65.12015,-33.730773 -24.77027,-8.077185 -39.62114,-10.408603 -65.99451,-10.359479 z m 333.12453,2.009169 c -1.7866,-0.0069 -0.21218,3.993116 7.16766,18.204842 8.78701,16.921591 21.65711,51.352121 21.65711,57.941871 0,1.74925 2.9181,4.62696 8.50445,8.38484 19.00905,12.78726 37.91261,36.41554 46.08081,57.59639 6.00848,15.58051 8.25631,27.8478 8.23603,44.95928 -0.0253,21.39907 -4.36446,39.10125 -14.524,59.24145 -4.45074,8.82312 -18.61023,29.81625 -22.45706,33.29757 -1.49063,1.34898 -2.70813,3.35348 -2.70813,4.45422 0,1.10073 6.78739,15.85555 15.08476,32.78731 l 15.08743,30.78343 10.20002,-10.88569 c 44.79432,-47.80638 65.77022,-95.7391 65.75798,-150.25765 -0.006,-21.13004 -2.38191,-36.92523 -8.40346,-55.82905 C 697.64053,154.55824 655.20345,109.0648 602.74502,88.929772 590.7464,84.324365 570.31102,78.726233 565.42112,78.705817 Z m -134.9018,24.625693 -6.2428,3.56389 c -16.43116,9.38154 -39.13532,25.62706 -65.59321,46.92862 -15.96581,12.85426 -33.94385,26.67561 -39.94964,30.71435 -10.17688,6.84369 -36.83969,20.70301 -39.8274,20.70301 -2.14877,0 -3.04404,12.44436 -3.05629,42.52224 -0.007,15.52912 0.18834,28.23476 0.4332,28.23476 0.24485,0 6.21497,-1.91682 13.26694,-4.26019 35.3449,-11.74518 61.50469,-26.64834 96.68228,-55.08226 10.00574,-8.08759 23.09277,-18.65169 29.0799,-23.47492 14.69631,-11.83933 36.56452,-26.16964 50.39151,-33.02118 l 11.37204,-5.6342 -3.89078,-7.70981 c -7.22861,-14.31983 -19.3823,-27.78253 -33.94071,-37.60028 z m -195.47739,61.55892 c -11.21037,-0.18517 -22.25231,1.5271 -33.26568,5.14253 -6.69921,2.1992 -9.1554,3.67953 -9.6366,5.81227 -3.85685,17.09381 -6.06313,56.86918 -5.10267,91.98888 0.81726,29.8835 -1.08743,53.55798 -5.95047,73.94884 l -3.5187,14.75788 5.25149,5.46677 c 2.88878,3.00687 14.71693,13.04767 26.28407,22.31352 11.56712,9.26587 21.53562,16.34373 22.15141,15.72792 1.87657,-1.87656 10.55339,-27.28153 14.07221,-41.20139 6.63405,-26.24303 7.74173,-39.08682 8.08985,-93.73496 0.32823,-51.52359 1.41014,-67.10161 5.98766,-86.31483 l 2.41846,-10.15749 -6.38897,-1.36868 c -6.87834,-1.47515 -13.66584,-2.27015 -20.39206,-2.38126 z m 222.71555,25.56383 -8.2945,5.55182 c -4.56334,3.05368 -17.08708,12.60083 -27.82816,21.21328 l -19.52833,15.65882 13.40513,8.65593 c 32.52929,21.00768 58.99306,31.20981 109.05891,42.03855 45.78189,9.90217 75.08431,18.80654 91.44674,27.79094 2.61937,1.43826 5.37482,2.4391 6.12321,2.22445 2.13772,-0.61316 8.63259,-17.35845 10.88304,-28.05671 2.11898,-10.07331 2.63707,-25.4786 1.15873,-34.42441 -0.96289,-5.82667 -1.32078,-6.03698 -23.60782,-13.79846 -15.00867,-5.22678 -41.39313,-12.02887 -74.15879,-19.11907 -29.17414,-6.31302 -48.07536,-12.39757 -65.19722,-20.98473 z m -294.23795,44.72278 c -2.61364,0 -29.52929,11.0593 -41.49374,17.04875 C 44.442855,291.06415 2.1325329,361.46537 7.9545563,442.03178 11.77361,494.8809 38.240949,544.82377 79.896877,577.78936 c 4.86455,3.84968 9.16544,7.02008 9.559535,7.0454 0.394082,0.0253 0.2425,-5.31264 -0.337527,-11.86106 -1.386807,-15.65664 -0.183524,-37.91312 3.157284,-58.39631 l 2.700152,-16.5571 -4.044924,-6.575 C 75.103495,465.71323 69.716679,427.3357 77.64585,396.79875 c 9.585926,-36.91734 35.79376,-66.77016 75.52748,-86.03312 l 11.08767,-5.37641 v -35.10476 c 0,-19.30834 -0.3346,-35.10742 -0.74147,-35.10742 z m 353.18705,69.82151 c -1.25967,0.12737 -1.3754,1.49033 -1.35804,6.01423 0.0313,8.14112 3.23001,30.75946 6.078,42.97671 6.00563,25.76263 12.54321,42.31443 34.76195,88.01571 17.2848,35.55277 28.54643,64.69149 30.63461,79.26147 0.50948,3.55485 1.62375,6.46085 2.47426,6.4554 2.24849,-0.0151 16.97902,-4.73966 23.31813,-7.47859 8.79902,-3.80179 22.64172,-13.44546 29.5503,-20.58342 l 6.42087,-6.63082 -3.17855,-10.20534 c -5.9796,-19.19563 -12.01018,-33.35961 -30.21205,-70.95898 -19.07928,-39.41183 -26.01187,-57.46093 -30.07651,-78.31268 l -2.43971,-12.5228 -14.96783,-4.12997 c -8.23231,-2.27087 -22.00951,-5.67425 -30.61602,-7.56365 -8.60649,-1.8894 -17.02589,-3.74551 -18.70977,-4.12466 -0.71146,-0.16018 -1.25974,-0.25507 -1.67964,-0.21261 z m 219.0294,29.51043 c -0.53521,0 -2.36085,3.827 -4.05557,8.50445 -6.02991,16.64285 -18.62493,39.50946 -31.29371,56.80971 l -6.47666,8.84463 -0.002,17.0089 c -10e-4,10.82391 -0.84522,20.96727 -2.31748,27.89459 -10.02249,47.15834 -44.0901,82.40946 -91.22083,94.38608 -11.89677,3.02315 -37.4281,5.99974 -46.62563,5.43488 -4.66711,-0.28662 -6.21023,0.22527 -7.88787,2.62044 -4.95873,7.07957 -28.89446,60.35475 -27.37105,60.92107 0.88129,0.3276 8.64425,1.14554 17.25076,1.81782 52.61482,4.10995 102.47363,-7.37994 140.19847,-32.30892 44.47955,-29.3926 74.39359,-76.79545 82.99279,-131.51066 3.7212,-23.67742 0.96545,-59.23761 -6.43149,-83.00341 -3.6438,-11.70725 -15.1595,-37.41958 -16.75908,-37.41958 z m -598.19489,12.25704 c -0.85044,-0.006 -6.82433,5.53706 -13.27492,12.31551 -9.44249,9.92247 -12.89375,14.76238 -17.70519,24.83299 -9.512889,19.91094 -10.026164,17.55193 7.70184,35.26689 13.87974,13.86948 25.47408,23.62947 68.36779,57.54852 17.01631,13.45598 31.81135,28.16168 42.07044,41.81531 4.45381,5.92749 8.93929,10.54551 10.24254,10.54551 7.14532,0 62.89289,-12.02035 64.85705,-13.9845 1.07701,-1.07701 -2.83721,-8.19731 -12.58924,-22.89823 -16.28786,-24.55349 -36.77147,-46.32954 -62.96747,-66.94328 -41.74812,-32.85176 -49.6564,-39.50297 -63.38471,-53.30429 -8.2323,-8.27611 -16.49863,-17.32779 -18.3696,-20.11567 -1.87099,-2.78789 -4.0981,-5.07331 -4.94853,-5.07876 z m 391.32154,91.05872 -7.27396,6.28266 c -8.56444,7.39398 -25.98641,27.12082 -35.23233,39.8965 -10.28023,14.20483 -23.09653,37.06667 -34.04703,60.73504 -19.72029,42.62329 -29.4079,60.0413 -44.19124,79.43952 l -7.65401,10.04321 4.02102,3.28485 c 10.2337,8.35976 28.77578,16.97338 43.48431,20.20338 15.68313,3.44403 15.73227,3.42514 24.17387,-9.2167 11.72844,-17.56408 20.37483,-33.61587 36.42829,-67.62098 19.54923,-41.41001 25.54621,-51.37696 45.71938,-76.01117 l 3.68614,-4.50204 -4.52064,-11.14614 c -2.48588,-6.13076 -9.03587,-20.20107 -14.5559,-31.26714 z m -399.73297,27.66604 c -0.2703,-0.0188 -0.44692,0.0513 -0.53419,0.20729 -2.49768,4.4631 -9.64872,28.8972 -12.77793,43.66237 -4.77662,22.53853 -5.93503,56.33522 -2.66029,77.56056 2.64092,17.11714 10.46228,41.95554 17.83542,56.63697 27.85178,55.45865 85.09059,95.4857 148.24847,103.67187 9.04666,1.17258 38.17794,0.84742 47.36445,-0.52887 8.83889,-1.32422 23.2072,-4.45244 27.95306,-6.086 1.08096,-0.37208 -2.66237,-3.8606 -9.06786,-8.44863 -16.81959,-12.0473 -31.91493,-25.48232 -43.24778,-38.49059 l -10.32494,-11.85042 -10.18142,-1.64242 c -47.51957,-7.66575 -85.10846,-40.47529 -99.3718,-86.73474 -3.44739,-11.18071 -3.69127,-13.62916 -3.69944,-37.14319 -0.007,-20.64025 0.49669,-27.3253 2.79053,-37.12722 l 2.79582,-11.95407 -6.42351,-5.3764 c -3.53281,-2.95783 -15.83202,-12.69763 -27.33383,-21.64382 -12.9648,-10.0841 -19.47276,-14.58169 -21.36476,-14.71269 z m 255.18128,60.87855 c -23.37517,0 -50.60808,3.87858 -81.25735,11.56872 -40.88294,10.25786 -64.63893,14.24266 -87.41245,14.6675 l -15.97506,0.29766 -0.0136,7.2022 c -0.0299,15.57808 6.10202,36.4273 15.15121,51.51304 l 4.56582,7.61148 13.60712,-0.8159 c 18.01347,-1.07777 40.20722,-5.00509 74.15879,-13.12608 42.81011,-10.23988 49.80154,-11.32673 73.78406,-11.45177 l 21.39666,-0.1116 6.77963,-12.2464 c 7.93677,-14.33219 24.92724,-49.77636 24.20579,-50.49782 -1.24294,-1.24292 -37.02517,-4.611 -48.99094,-4.611 z m -31.86511,91.69921 c -0.28931,-0.0165 -0.57522,0.007 -0.86374,0.0638 -7.4881,1.49344 -64.2343,14.81492 -64.67632,15.18311 -0.82118,0.68401 7.73936,13.98528 17.86731,27.76436 12.04079,16.38153 36.22866,40.31676 52.05254,51.50507 23.18538,16.3933 52.45319,28.62953 80.25807,33.55535 15.60217,2.76404 53.22162,1.73958 68.89134,-1.87629 48.54514,-11.20205 91.25127,-39.71975 117.90089,-78.72992 8.7552,-12.81602 20.34646,-35.21152 18.94897,-36.60899 -0.42988,-0.42988 -4.64824,0.49919 -9.3735,2.06498 -17.1869,5.6952 -50.60717,11.03984 -69.0322,11.03984 -5.38641,0 -7.04093,0.669 -10.40199,4.20172 -15.2033,15.97981 -43.19135,29.99217 -67.84956,33.96996 -12.83451,2.07044 -39.19215,0.95481 -50.44466,-2.13674 -10.89262,-2.99266 -28.29701,-11.22493 -38.77498,-18.34037 -10.61228,-7.20667 -26.59172,-22.29289 -35.58314,-33.59258 -4.6841,-5.8866 -6.89384,-7.94776 -8.91903,-8.06327 z" />
</svg>
