<?xml version="1.0" encoding="UTF-8"?>
<svg xmlns="http://www.w3.org/2000/svg" xmlns:xlink="http://www.w3.org/1999/xlink" width="1024pt" height="1024pt" viewBox="0 0 1024 1024" version="1.1">
<g id="surface1">
<path style="fill:none;stroke-width:0.2;stroke-linecap:round;stroke-linejoin:miter;stroke:rgb(0%,0%,0%);stroke-opacity:1;stroke-miterlimit:10;" d="M 3.017334 -1.453064 C 3.454163 -1.097107 3.707703 -0.563507 3.707703 0 C 3.707703 0.563507 3.454163 1.097107 3.017334 1.453064 " transform="matrix(0.000000000000007838,-128,128,0.000000000000007838,512,512)"/>
<path style="fill:none;stroke-width:0.2;stroke-linecap:round;stroke-linejoin:miter;stroke:rgb(0%,0%,0%);stroke-opacity:1;stroke-miterlimit:10;" d="M 3.017334 1.453064 C 2.942596 1.513977 2.863251 1.569031 2.780029 1.617706 " transform="matrix(0.000000000000007838,-128,128,0.000000000000007838,512,512)"/>
<path style="fill:none;stroke-width:0.2;stroke-linecap:round;stroke-linejoin:miter;stroke:rgb(0%,0%,0%);stroke-opacity:1;stroke-miterlimit:10;" d="M 2.733337 -0.373352 C 2.832489 -0.134338 2.832489 0.134338 2.733337 0.373352 " transform="matrix(0.000000000000007838,-128,128,0.000000000000007838,512,512)"/>
<path style="fill:none;stroke-width:0.2;stroke-linecap:round;stroke-linejoin:miter;stroke:rgb(0%,0%,0%);stroke-opacity:1;stroke-miterlimit:10;" d="M 2.733337 0.373352 C 2.651978 0.569489 2.508728 0.733704 2.32547 0.840942 " transform="matrix(0.000000000000007838,-128,128,0.000000000000007838,512,512)"/>
<path style="fill:none;stroke-width:0.2;stroke-linecap:round;stroke-linejoin:miter;stroke:rgb(0%,0%,0%);stroke-opacity:1;stroke-miterlimit:10;" d="M 2.780029 1.617706 C 2.537964 1.759369 2.272461 1.856415 1.996094 1.904236 " transform="matrix(0.000000000000007838,-128,128,0.000000000000007838,512,512)"/>
<path style="fill:none;stroke-width:0.2;stroke-linecap:round;stroke-linejoin:miter;stroke:rgb(0%,0%,0%);stroke-opacity:1;stroke-miterlimit:10;" d="M 1.996094 1.904236 C 1.847321 1.929962 1.696411 1.941254 1.545471 1.937958 " transform="matrix(0.000000000000007838,-128,128,0.000000000000007838,512,512)"/>
<path style="fill:none;stroke-width:0.2;stroke-linecap:round;stroke-linejoin:miter;stroke:rgb(0%,0%,0%);stroke-opacity:1;stroke-miterlimit:10;" d="M 2.32547 0.840942 C 2.230042 0.89679 2.128479 0.941498 2.022858 0.974152 " transform="matrix(0.000000000000007838,-128,128,0.000000000000007838,512,512)"/>
<path style="fill:none;stroke-width:0.2;stroke-linecap:round;stroke-linejoin:miter;stroke:rgb(0%,0%,0%);stroke-opacity:1;stroke-miterlimit:10;" d="M 2.022858 0.974152 C 1.900024 1.012115 1.772644 1.033508 1.644135 1.03775 " transform="matrix(0.000000000000007838,-128,128,0.000000000000007838,512,512)"/>
<path style="fill:none;stroke-width:0.2;stroke-linecap:round;stroke-linejoin:miter;stroke:rgb(0%,0%,0%);stroke-opacity:1;stroke-miterlimit:10;" d="M -0.694672 1.440552 C -0.562744 1.331482 -0.41864 1.238037 -0.265259 1.162109 " transform="matrix(0.000000000000007838,-128,128,0.000000000000007838,512,512)"/>
<path style="fill:none;stroke-width:0.2;stroke-linecap:round;stroke-linejoin:miter;stroke:rgb(0%,0%,0%);stroke-opacity:1;stroke-miterlimit:10;" d="M -0.265259 1.162109 C 0.0480652 1.007019 0.393616 0.928162 0.743195 0.931946 " transform="matrix(0.000000000000007838,-128,128,0.000000000000007838,512,512)"/>
<path style="fill:none;stroke-width:0.2;stroke-linecap:round;stroke-linejoin:miter;stroke:rgb(0%,0%,0%);stroke-opacity:1;stroke-miterlimit:10;" d="M -0.121246 2.134186 C -0.0202026 2.05069 0.0927124 1.982697 0.213776 1.932465 " transform="matrix(0.000000000000007838,-128,128,0.000000000000007838,512,512)"/>
<path style="fill:none;stroke-width:0.2;stroke-linecap:round;stroke-linejoin:miter;stroke:rgb(0%,0%,0%);stroke-opacity:1;stroke-miterlimit:10;" d="M 0.213776 1.932465 C 0.351196 1.875458 0.497314 1.842102 0.645874 1.833832 " transform="matrix(0.000000000000007838,-128,128,0.000000000000007838,512,512)"/>
<path style="fill:none;stroke-width:0.2;stroke-linecap:round;stroke-linejoin:miter;stroke:rgb(0%,0%,0%);stroke-opacity:1;stroke-miterlimit:10;" d="M -0.121246 2.134186 C -0.253876 2.243835 -0.398193 2.338562 -0.551575 2.416595 " transform="matrix(0.000000000000007838,-128,128,0.000000000000007838,512,512)"/>
<path style="fill:none;stroke-width:0.2;stroke-linecap:round;stroke-linejoin:miter;stroke:rgb(0%,0%,0%);stroke-opacity:1;stroke-miterlimit:10;" d="M -0.551575 2.416595 C -0.686127 2.485077 -0.826996 2.540375 -0.972229 2.581726 " transform="matrix(0.000000000000007838,-128,128,0.000000000000007838,512,512)"/>
<path style="fill:none;stroke-width:0.2;stroke-linecap:round;stroke-linejoin:miter;stroke:rgb(0%,0%,0%);stroke-opacity:1;stroke-miterlimit:10;" d="M -0.694672 1.440552 C -0.796753 1.524902 -0.909943 1.594849 -1.031067 1.648346 " transform="matrix(0.000000000000007838,-128,128,0.000000000000007838,512,512)"/>
<path style="fill:none;stroke-width:0.2;stroke-linecap:round;stroke-linejoin:miter;stroke:rgb(0%,0%,0%);stroke-opacity:1;stroke-miterlimit:10;" d="M -1.031067 1.648346 C -1.148682 1.700287 -1.272705 1.736267 -1.399841 1.755371 " transform="matrix(0.000000000000007838,-128,128,0.000000000000007838,512,512)"/>
<path style="fill:none;stroke-width:0.2;stroke-linecap:round;stroke-linejoin:miter;stroke:rgb(0%,0%,0%);stroke-opacity:1;stroke-miterlimit:10;" d="M -2.088043 2.618347 C -2.636078 2.487183 -3.096039 2.116425 -3.340515 1.608704 C -3.585022 1.101013 -3.588135 0.510254 -3.348969 0.000000000000000888 " transform="matrix(0.000000000000007838,-128,128,0.000000000000007838,512,512)"/>
<path style="fill:none;stroke-width:0.2;stroke-linecap:round;stroke-linejoin:miter;stroke:rgb(0%,0%,0%);stroke-opacity:1;stroke-miterlimit:10;" d="M -3.348969 0.000000000000000888 C -3.308075 -0.0873108 -3.260468 -0.171326 -3.206635 -0.251312 " transform="matrix(0.000000000000007838,-128,128,0.000000000000007838,512,512)"/>
<path style="fill:none;stroke-width:0.2;stroke-linecap:round;stroke-linejoin:miter;stroke:rgb(0%,0%,0%);stroke-opacity:1;stroke-miterlimit:10;" d="M -2.300659 1.522339 C -2.493713 1.350006 -2.61026 1.107941 -2.624634 0.849579 " transform="matrix(0.000000000000007838,-128,128,0.000000000000007838,512,512)"/>
<path style="fill:none;stroke-width:0.2;stroke-linecap:round;stroke-linejoin:miter;stroke:rgb(0%,0%,0%);stroke-opacity:1;stroke-miterlimit:10;" d="M -2.624634 0.849579 C -2.636444 0.637543 -2.578644 0.42746 -2.460052 0.251312 " transform="matrix(0.000000000000007838,-128,128,0.000000000000007838,512,512)"/>
<path style="fill:none;stroke-width:0.2;stroke-linecap:round;stroke-linejoin:miter;stroke:rgb(0%,0%,0%);stroke-opacity:1;stroke-miterlimit:10;" d="M -3.206635 -0.251312 C -3.049988 -0.483948 -2.852875 -0.686584 -2.624634 -0.849579 " transform="matrix(0.000000000000007838,-128,128,0.000000000000007838,512,512)"/>
<path style="fill:none;stroke-width:0.2;stroke-linecap:round;stroke-linejoin:miter;stroke:rgb(0%,0%,0%);stroke-opacity:1;stroke-miterlimit:10;" d="M -2.624634 -0.849579 C -2.50177 -0.937317 -2.370697 -1.01297 -2.233276 -1.0755 " transform="matrix(0.000000000000007838,-128,128,0.000000000000007838,512,512)"/>
<path style="fill:none;stroke-width:0.2;stroke-linecap:round;stroke-linejoin:miter;stroke:rgb(0%,0%,0%);stroke-opacity:1;stroke-miterlimit:10;" d="M -2.460052 0.251312 C -2.398285 0.159576 -2.326202 0.0752563 -2.245178 0 " transform="matrix(0.000000000000007838,-128,128,0.000000000000007838,512,512)"/>
<path style="fill:none;stroke-width:0.2;stroke-linecap:round;stroke-linejoin:miter;stroke:rgb(0%,0%,0%);stroke-opacity:1;stroke-miterlimit:10;" d="M -2.245178 0 C -2.151001 -0.0874939 -2.045532 -0.162048 -1.93158 -0.221588 " transform="matrix(0.000000000000007838,-128,128,0.000000000000007838,512,512)"/>
<path style="fill:none;stroke-width:0.2;stroke-linecap:round;stroke-linejoin:miter;stroke:rgb(0%,0%,0%);stroke-opacity:1;stroke-miterlimit:10;" d="M 0.000854492 -1.599304 C -0.0706787 -1.443787 -0.159973 -1.297089 -0.265259 -1.162109 " transform="matrix(0.000000000000007838,-128,128,0.000000000000007838,512,512)"/>
<path style="fill:none;stroke-width:0.2;stroke-linecap:round;stroke-linejoin:miter;stroke:rgb(0%,0%,0%);stroke-opacity:1;stroke-miterlimit:10;" d="M -0.265259 -1.162109 C -0.480255 -0.886414 -0.757355 -0.665466 -1.073944 -0.517181 " transform="matrix(0.000000000000007838,-128,128,0.000000000000007838,512,512)"/>
<path style="fill:none;stroke-width:0.2;stroke-linecap:round;stroke-linejoin:miter;stroke:rgb(0%,0%,0%);stroke-opacity:1;stroke-miterlimit:10;" d="M -0.816772 -1.975433 C -0.871552 -1.856354 -0.943787 -1.746124 -1.031067 -1.648346 " transform="matrix(0.000000000000007838,-128,128,0.000000000000007838,512,512)"/>
<path style="fill:none;stroke-width:0.2;stroke-linecap:round;stroke-linejoin:miter;stroke:rgb(0%,0%,0%);stroke-opacity:1;stroke-miterlimit:10;" d="M -1.031067 -1.648346 C -1.130157 -1.537354 -1.247314 -1.443909 -1.377563 -1.372009 " transform="matrix(0.000000000000007838,-128,128,0.000000000000007838,512,512)"/>
<path style="fill:none;stroke-width:0.2;stroke-linecap:round;stroke-linejoin:miter;stroke:rgb(0%,0%,0%);stroke-opacity:1;stroke-miterlimit:10;" d="M -0.816772 -1.975433 C -0.744843 -2.131775 -0.655914 -2.279724 -0.551575 -2.416595 " transform="matrix(0.000000000000007838,-128,128,0.000000000000007838,512,512)"/>
<path style="fill:none;stroke-width:0.2;stroke-linecap:round;stroke-linejoin:miter;stroke:rgb(0%,0%,0%);stroke-opacity:1;stroke-miterlimit:10;" d="M -0.551575 -2.416595 C -0.460052 -2.536682 -0.357117 -2.647614 -0.244232 -2.747894 " transform="matrix(0.000000000000007838,-128,128,0.000000000000007838,512,512)"/>
<path style="fill:none;stroke-width:0.2;stroke-linecap:round;stroke-linejoin:miter;stroke:rgb(0%,0%,0%);stroke-opacity:1;stroke-miterlimit:10;" d="M 0.000854492 -1.599304 C 0.0562134 -1.719604 0.127838 -1.831696 0.213776 -1.932465 " transform="matrix(0.000000000000007838,-128,128,0.000000000000007838,512,512)"/>
<path style="fill:none;stroke-width:0.2;stroke-linecap:round;stroke-linejoin:miter;stroke:rgb(0%,0%,0%);stroke-opacity:1;stroke-miterlimit:10;" d="M 0.213776 -1.932465 C 0.297211 -2.030304 0.393341 -2.116547 0.499603 -2.188904 " transform="matrix(0.000000000000007838,-128,128,0.000000000000007838,512,512)"/>
<path style="fill:none;stroke-width:0.2;stroke-linecap:round;stroke-linejoin:miter;stroke:rgb(0%,0%,0%);stroke-opacity:1;stroke-miterlimit:10;" d="M 0.745209 -3.265015 C 1.295898 -3.384613 1.871155 -3.250153 2.311707 -2.898804 C 2.752289 -2.547455 3.011414 -2.016541 3.017334 -1.453064 " transform="matrix(0.000000000000007838,-128,128,0.000000000000007838,512,512)"/>
<path style="fill:none;stroke-width:0.2;stroke-linecap:round;stroke-linejoin:miter;stroke:rgb(0%,0%,0%);stroke-opacity:1;stroke-miterlimit:10;" d="M 3.017334 -1.453064 C 3.018341 -1.356659 3.011902 -1.260315 2.998108 -1.164886 " transform="matrix(0.000000000000007838,-128,128,0.000000000000007838,512,512)"/>
<path style="fill:none;stroke-width:0.2;stroke-linecap:round;stroke-linejoin:miter;stroke:rgb(0%,0%,0%);stroke-opacity:1;stroke-miterlimit:10;" d="M 1.412292 -2.369781 C 1.661011 -2.298279 1.871063 -2.130768 1.996094 -1.904236 " transform="matrix(0.000000000000007838,-128,128,0.000000000000007838,512,512)"/>
<path style="fill:none;stroke-width:0.2;stroke-linecap:round;stroke-linejoin:miter;stroke:rgb(0%,0%,0%);stroke-opacity:1;stroke-miterlimit:10;" d="M 1.996094 -1.904236 C 2.098724 -1.718323 2.137817 -1.503967 2.107391 -1.293793 " transform="matrix(0.000000000000007838,-128,128,0.000000000000007838,512,512)"/>
<path style="fill:none;stroke-width:0.2;stroke-linecap:round;stroke-linejoin:miter;stroke:rgb(0%,0%,0%);stroke-opacity:1;stroke-miterlimit:10;" d="M 2.998108 -1.164886 C 2.957947 -0.887329 2.868256 -0.619232 2.733337 -0.373352 " transform="matrix(0.000000000000007838,-128,128,0.000000000000007838,512,512)"/>
<path style="fill:none;stroke-width:0.2;stroke-linecap:round;stroke-linejoin:miter;stroke:rgb(0%,0%,0%);stroke-opacity:1;stroke-miterlimit:10;" d="M 2.733337 -0.373352 C 2.660706 -0.240997 2.575439 -0.115967 2.478729 0 " transform="matrix(0.000000000000007838,-128,128,0.000000000000007838,512,512)"/>
<path style="fill:none;stroke-width:0.2;stroke-linecap:round;stroke-linejoin:miter;stroke:rgb(0%,0%,0%);stroke-opacity:1;stroke-miterlimit:10;" d="M 2.107391 -1.293793 C 2.091553 -1.184357 2.063171 -1.077118 2.022858 -0.974152 " transform="matrix(0.000000000000007838,-128,128,0.000000000000007838,512,512)"/>
<path style="fill:none;stroke-width:0.2;stroke-linecap:round;stroke-linejoin:miter;stroke:rgb(0%,0%,0%);stroke-opacity:1;stroke-miterlimit:10;" d="M 2.022858 -0.974152 C 1.975952 -0.854431 1.913269 -0.741547 1.836456 -0.638428 " transform="matrix(0.000000000000007838,-128,128,0.000000000000007838,512,512)"/>
<path style="fill:none;stroke-width:0.2;stroke-linecap:round;stroke-linejoin:miter;stroke:rgb(0%,0%,0%);stroke-opacity:1;stroke-miterlimit:10;" d="M 0.693146 1.441284 C 0.690125 1.270142 0.706909 1.099213 0.743195 0.931946 " transform="matrix(0.000000000000007838,-128,128,0.000000000000007838,512,512)"/>
<path style="fill:none;stroke-width:0.2;stroke-linecap:round;stroke-linejoin:miter;stroke:rgb(0%,0%,0%);stroke-opacity:1;stroke-miterlimit:10;" d="M 0.743195 0.931946 C 0.817291 0.590271 0.971069 0.270966 1.191986 0 " transform="matrix(0.000000000000007838,-128,128,0.000000000000007838,512,512)"/>
<path style="fill:none;stroke-width:0.2;stroke-linecap:round;stroke-linejoin:miter;stroke:rgb(0%,0%,0%);stroke-opacity:1;stroke-miterlimit:10;" d="M 1.592987 1.425446 C 1.590698 1.294373 1.607941 1.163696 1.644135 1.03775 " transform="matrix(0.000000000000007838,-128,128,0.000000000000007838,512,512)"/>
<path style="fill:none;stroke-width:0.2;stroke-linecap:round;stroke-linejoin:miter;stroke:rgb(0%,0%,0%);stroke-opacity:1;stroke-miterlimit:10;" d="M 1.644135 1.03775 C 1.685272 0.894745 1.750275 0.759735 1.836456 0.638428 " transform="matrix(0.000000000000007838,-128,128,0.000000000000007838,512,512)"/>
<path style="fill:none;stroke-width:0.2;stroke-linecap:round;stroke-linejoin:miter;stroke:rgb(0%,0%,0%);stroke-opacity:1;stroke-miterlimit:10;" d="M 1.592987 1.425446 C 1.596039 1.597504 1.580078 1.769379 1.545471 1.937958 " transform="matrix(0.000000000000007838,-128,128,0.000000000000007838,512,512)"/>
<path style="fill:none;stroke-width:0.2;stroke-linecap:round;stroke-linejoin:miter;stroke:rgb(0%,0%,0%);stroke-opacity:1;stroke-miterlimit:10;" d="M 1.545471 1.937958 C 1.515106 2.085846 1.47049 2.230469 1.412292 2.369781 " transform="matrix(0.000000000000007838,-128,128,0.000000000000007838,512,512)"/>
<path style="fill:none;stroke-width:0.2;stroke-linecap:round;stroke-linejoin:miter;stroke:rgb(0%,0%,0%);stroke-opacity:1;stroke-miterlimit:10;" d="M 0.693146 1.441284 C 0.695465 1.5737 0.679565 1.70578 0.645874 1.833832 " transform="matrix(0.000000000000007838,-128,128,0.000000000000007838,512,512)"/>
<path style="fill:none;stroke-width:0.2;stroke-linecap:round;stroke-linejoin:miter;stroke:rgb(0%,0%,0%);stroke-opacity:1;stroke-miterlimit:10;" d="M 0.645874 1.833832 C 0.613159 1.958191 0.563965 2.077606 0.499603 2.188904 " transform="matrix(0.000000000000007838,-128,128,0.000000000000007838,512,512)"/>
<path style="fill:none;stroke-width:0.2;stroke-linecap:round;stroke-linejoin:miter;stroke:rgb(0%,0%,0%);stroke-opacity:1;stroke-miterlimit:10;" d="M 0.745209 3.265015 C 0.300995 3.611694 -0.275665 3.740143 -0.825043 3.614746 C -1.37442 3.489349 -1.838226 3.123444 -2.088043 2.618347 " transform="matrix(0.000000000000007838,-128,128,0.000000000000007838,512,512)"/>
<path style="fill:none;stroke-width:0.2;stroke-linecap:round;stroke-linejoin:miter;stroke:rgb(0%,0%,0%);stroke-opacity:1;stroke-miterlimit:10;" d="M -2.088043 2.618347 C -2.130798 2.531921 -2.166809 2.442322 -2.19577 2.350342 " transform="matrix(0.000000000000007838,-128,128,0.000000000000007838,512,512)"/>
<path style="fill:none;stroke-width:0.2;stroke-linecap:round;stroke-linejoin:miter;stroke:rgb(0%,0%,0%);stroke-opacity:1;stroke-miterlimit:10;" d="M -0.244232 2.747894 C -0.499329 2.791351 -0.761261 2.731598 -0.972229 2.581726 " transform="matrix(0.000000000000007838,-128,128,0.000000000000007838,512,512)"/>
<path style="fill:none;stroke-width:0.2;stroke-linecap:round;stroke-linejoin:miter;stroke:rgb(0%,0%,0%);stroke-opacity:1;stroke-miterlimit:10;" d="M -0.972229 2.581726 C -1.145355 2.45874 -1.27356 2.282593 -1.337341 2.080017 " transform="matrix(0.000000000000007838,-128,128,0.000000000000007838,512,512)"/>
<path style="fill:none;stroke-width:0.2;stroke-linecap:round;stroke-linejoin:miter;stroke:rgb(0%,0%,0%);stroke-opacity:1;stroke-miterlimit:10;" d="M -2.19577 2.350342 C -2.279999 2.082855 -2.315552 1.802399 -2.300659 1.522339 " transform="matrix(0.000000000000007838,-128,128,0.000000000000007838,512,512)"/>
<path style="fill:none;stroke-width:0.2;stroke-linecap:round;stroke-linejoin:miter;stroke:rgb(0%,0%,0%);stroke-opacity:1;stroke-miterlimit:10;" d="M -2.300659 1.522339 C -2.292633 1.371552 -2.270081 1.221924 -2.233276 1.0755 " transform="matrix(0.000000000000007838,-128,128,0.000000000000007838,512,512)"/>
<path style="fill:none;stroke-width:0.2;stroke-linecap:round;stroke-linejoin:miter;stroke:rgb(0%,0%,0%);stroke-opacity:1;stroke-miterlimit:10;" d="M -1.337341 2.080017 C -1.370544 1.974548 -1.39151 1.865631 -1.399841 1.755371 " transform="matrix(0.000000000000007838,-128,128,0.000000000000007838,512,512)"/>
<path style="fill:none;stroke-width:0.2;stroke-linecap:round;stroke-linejoin:miter;stroke:rgb(0%,0%,0%);stroke-opacity:1;stroke-miterlimit:10;" d="M -1.399841 1.755371 C -1.409546 1.627167 -1.402039 1.49823 -1.377563 1.372009 " transform="matrix(0.000000000000007838,-128,128,0.000000000000007838,512,512)"/>
<path style="fill:none;stroke-width:0.2;stroke-linecap:round;stroke-linejoin:miter;stroke:rgb(0%,0%,0%);stroke-opacity:1;stroke-miterlimit:10;" d="M -1.249847 -0.997803 C -1.172882 -0.84491 -1.113861 -0.683655 -1.073944 -0.517181 " transform="matrix(0.000000000000007838,-128,128,0.000000000000007838,512,512)"/>
<path style="fill:none;stroke-width:0.2;stroke-linecap:round;stroke-linejoin:miter;stroke:rgb(0%,0%,0%);stroke-opacity:1;stroke-miterlimit:10;" d="M -1.073944 -0.517181 C -0.992462 -0.177216 -0.992462 0.177216 -1.073944 0.517181 " transform="matrix(0.000000000000007838,-128,128,0.000000000000007838,512,512)"/>
<path style="fill:none;stroke-width:0.2;stroke-linecap:round;stroke-linejoin:miter;stroke:rgb(0%,0%,0%);stroke-opacity:1;stroke-miterlimit:10;" d="M -2.053711 -0.593109 C -1.994781 -0.476013 -1.953613 -0.3508 -1.93158 -0.221588 " transform="matrix(0.000000000000007838,-128,128,0.000000000000007838,512,512)"/>
<path style="fill:none;stroke-width:0.2;stroke-linecap:round;stroke-linejoin:miter;stroke:rgb(0%,0%,0%);stroke-opacity:1;stroke-miterlimit:10;" d="M -1.93158 -0.221588 C -1.906586 -0.0749207 -1.906586 0.0749207 -1.93158 0.221588 " transform="matrix(0.000000000000007838,-128,128,0.000000000000007838,512,512)"/>
<path style="fill:none;stroke-width:0.2;stroke-linecap:round;stroke-linejoin:miter;stroke:rgb(0%,0%,0%);stroke-opacity:1;stroke-miterlimit:10;" d="M -2.053711 -0.593109 C -2.131104 -0.746796 -2.191315 -0.908569 -2.233276 -1.0755 " transform="matrix(0.000000000000007838,-128,128,0.000000000000007838,512,512)"/>
<path style="fill:none;stroke-width:0.2;stroke-linecap:round;stroke-linejoin:miter;stroke:rgb(0%,0%,0%);stroke-opacity:1;stroke-miterlimit:10;" d="M -2.233276 -1.0755 C -2.270081 -1.221924 -2.292633 -1.371552 -2.300659 -1.522339 " transform="matrix(0.000000000000007838,-128,128,0.000000000000007838,512,512)"/>
<path style="fill:none;stroke-width:0.2;stroke-linecap:round;stroke-linejoin:miter;stroke:rgb(0%,0%,0%);stroke-opacity:1;stroke-miterlimit:10;" d="M -1.249847 -0.997803 C -1.309387 -1.116089 -1.352386 -1.242004 -1.377563 -1.372009 " transform="matrix(0.000000000000007838,-128,128,0.000000000000007838,512,512)"/>
<path style="fill:none;stroke-width:0.2;stroke-linecap:round;stroke-linejoin:miter;stroke:rgb(0%,0%,0%);stroke-opacity:1;stroke-miterlimit:10;" d="M -1.377563 -1.372009 C -1.402039 -1.49823 -1.409546 -1.627167 -1.399841 -1.755371 " transform="matrix(0.000000000000007838,-128,128,0.000000000000007838,512,512)"/>
<path style="fill:none;stroke-width:0.2;stroke-linecap:round;stroke-linejoin:miter;stroke:rgb(0%,0%,0%);stroke-opacity:1;stroke-miterlimit:10;" d="M -2.088043 -2.618347 C -1.838226 -3.123444 -1.37442 -3.489349 -0.825043 -3.614746 C -0.275665 -3.740143 0.300995 -3.611694 0.745209 -3.265015 " transform="matrix(0.000000000000007838,-128,128,0.000000000000007838,512,512)"/>
<path style="fill:none;stroke-width:0.2;stroke-linecap:round;stroke-linejoin:miter;stroke:rgb(0%,0%,0%);stroke-opacity:1;stroke-miterlimit:10;" d="M 0.745209 -3.265015 C 0.821228 -3.205688 0.892548 -3.140594 0.958557 -3.070312 " transform="matrix(0.000000000000007838,-128,128,0.000000000000007838,512,512)"/>
<path style="fill:none;stroke-width:0.2;stroke-linecap:round;stroke-linejoin:miter;stroke:rgb(0%,0%,0%);stroke-opacity:1;stroke-miterlimit:10;" d="M -0.972229 -2.581726 C -0.761261 -2.731598 -0.499329 -2.791351 -0.244232 -2.747894 " transform="matrix(0.000000000000007838,-128,128,0.000000000000007838,512,512)"/>
<path style="fill:none;stroke-width:0.2;stroke-linecap:round;stroke-linejoin:miter;stroke:rgb(0%,0%,0%);stroke-opacity:1;stroke-miterlimit:10;" d="M -0.244232 -2.747894 C -0.0348816 -2.712189 0.157043 -2.6091 0.302399 -2.454285 " transform="matrix(0.000000000000007838,-128,128,0.000000000000007838,512,512)"/>
<path style="fill:none;stroke-width:0.2;stroke-linecap:round;stroke-linejoin:miter;stroke:rgb(0%,0%,0%);stroke-opacity:1;stroke-miterlimit:10;" d="M 0.958557 -3.070312 C 1.150513 -2.865845 1.304199 -2.628571 1.412292 -2.369781 " transform="matrix(0.000000000000007838,-128,128,0.000000000000007838,512,512)"/>
<path style="fill:none;stroke-width:0.2;stroke-linecap:round;stroke-linejoin:miter;stroke:rgb(0%,0%,0%);stroke-opacity:1;stroke-miterlimit:10;" d="M 1.412292 -2.369781 C 1.47049 -2.230469 1.515106 -2.085846 1.545471 -1.937958 " transform="matrix(0.000000000000007838,-128,128,0.000000000000007838,512,512)"/>
<path style="fill:none;stroke-width:0.2;stroke-linecap:round;stroke-linejoin:miter;stroke:rgb(0%,0%,0%);stroke-opacity:1;stroke-miterlimit:10;" d="M 0.302399 -2.454285 C 0.378082 -2.373688 0.444244 -2.284637 0.499603 -2.188904 " transform="matrix(0.000000000000007838,-128,128,0.000000000000007838,512,512)"/>
<path style="fill:none;stroke-width:0.2;stroke-linecap:round;stroke-linejoin:miter;stroke:rgb(0%,0%,0%);stroke-opacity:1;stroke-miterlimit:10;" d="M 0.499603 -2.188904 C 0.563965 -2.077606 0.613159 -1.958191 0.645874 -1.833832 " transform="matrix(0.000000000000007838,-128,128,0.000000000000007838,512,512)"/>
<path style="fill:none;stroke-width:0.2;stroke-linecap:round;stroke-linejoin:miter;stroke:rgb(0%,0%,0%);stroke-opacity:1;stroke-miterlimit:10;" d="M 1.55899 0.35672 C 1.423309 0.25235 1.300171 0.13266 1.191986 0 " transform="matrix(0.000000000000007838,-128,128,0.000000000000007838,512,512)"/>
<path style="fill:none;stroke-width:0.2;stroke-linecap:round;stroke-linejoin:miter;stroke:rgb(0%,0%,0%);stroke-opacity:1;stroke-miterlimit:10;" d="M 1.191986 0 C 0.971069 -0.270966 0.817291 -0.590271 0.743195 -0.931946 " transform="matrix(0.000000000000007838,-128,128,0.000000000000007838,512,512)"/>
<path style="fill:none;stroke-width:0.2;stroke-linecap:round;stroke-linejoin:miter;stroke:rgb(0%,0%,0%);stroke-opacity:1;stroke-miterlimit:10;" d="M 2.107666 -0.35672 C 2.003754 -0.436615 1.912354 -0.531555 1.836456 -0.638428 " transform="matrix(0.000000000000007838,-128,128,0.000000000000007838,512,512)"/>
<path style="fill:none;stroke-width:0.2;stroke-linecap:round;stroke-linejoin:miter;stroke:rgb(0%,0%,0%);stroke-opacity:1;stroke-miterlimit:10;" d="M 1.836456 -0.638428 C 1.750275 -0.759735 1.685272 -0.894745 1.644135 -1.03775 " transform="matrix(0.000000000000007838,-128,128,0.000000000000007838,512,512)"/>
<path style="fill:none;stroke-width:0.2;stroke-linecap:round;stroke-linejoin:miter;stroke:rgb(0%,0%,0%);stroke-opacity:1;stroke-miterlimit:10;" d="M 2.107666 -0.35672 C 2.24408 -0.251801 2.36853 -0.132172 2.478729 0 " transform="matrix(0.000000000000007838,-128,128,0.000000000000007838,512,512)"/>
<path style="fill:none;stroke-width:0.2;stroke-linecap:round;stroke-linejoin:miter;stroke:rgb(0%,0%,0%);stroke-opacity:1;stroke-miterlimit:10;" d="M 2.478729 0 C 2.575439 0.115967 2.660706 0.240997 2.733337 0.373352 " transform="matrix(0.000000000000007838,-128,128,0.000000000000007838,512,512)"/>
<path style="fill:none;stroke-width:0.2;stroke-linecap:round;stroke-linejoin:miter;stroke:rgb(0%,0%,0%);stroke-opacity:1;stroke-miterlimit:10;" d="M 1.55899 0.35672 C 1.663971 0.437439 1.757324 0.532227 1.836456 0.638428 " transform="matrix(0.000000000000007838,-128,128,0.000000000000007838,512,512)"/>
<path style="fill:none;stroke-width:0.2;stroke-linecap:round;stroke-linejoin:miter;stroke:rgb(0%,0%,0%);stroke-opacity:1;stroke-miterlimit:10;" d="M 1.836456 0.638428 C 1.913269 0.741547 1.975952 0.854431 2.022858 0.974152 " transform="matrix(0.000000000000007838,-128,128,0.000000000000007838,512,512)"/>
<path style="fill:none;stroke-width:0.2;stroke-linecap:round;stroke-linejoin:miter;stroke:rgb(0%,0%,0%);stroke-opacity:1;stroke-miterlimit:10;" d="M 3.017334 1.453064 C 3.011414 2.016541 2.752289 2.547455 2.311707 2.898804 C 1.871155 3.250153 1.295898 3.384613 0.745209 3.265015 " transform="matrix(0.000000000000007838,-128,128,0.000000000000007838,512,512)"/>
<path style="fill:none;stroke-width:0.2;stroke-linecap:round;stroke-linejoin:miter;stroke:rgb(0%,0%,0%);stroke-opacity:1;stroke-miterlimit:10;" d="M 0.745209 3.265015 C 0.651001 3.244537 0.558502 3.216858 0.468536 3.182159 " transform="matrix(0.000000000000007838,-128,128,0.000000000000007838,512,512)"/>
<path style="fill:none;stroke-width:0.2;stroke-linecap:round;stroke-linejoin:miter;stroke:rgb(0%,0%,0%);stroke-opacity:1;stroke-miterlimit:10;" d="M 1.996094 1.904236 C 1.871063 2.130768 1.661011 2.298279 1.412292 2.369781 " transform="matrix(0.000000000000007838,-128,128,0.000000000000007838,512,512)"/>
<path style="fill:none;stroke-width:0.2;stroke-linecap:round;stroke-linejoin:miter;stroke:rgb(0%,0%,0%);stroke-opacity:1;stroke-miterlimit:10;" d="M 1.412292 2.369781 C 1.208221 2.428467 0.99054 2.418854 0.792419 2.342438 " transform="matrix(0.000000000000007838,-128,128,0.000000000000007838,512,512)"/>
<path style="fill:none;stroke-width:0.2;stroke-linecap:round;stroke-linejoin:miter;stroke:rgb(0%,0%,0%);stroke-opacity:1;stroke-miterlimit:10;" d="M 0.468536 3.182159 C 0.206879 3.081207 -0.0345459 2.934143 -0.244232 2.747894 " transform="matrix(0.000000000000007838,-128,128,0.000000000000007838,512,512)"/>
<path style="fill:none;stroke-width:0.2;stroke-linecap:round;stroke-linejoin:miter;stroke:rgb(0%,0%,0%);stroke-opacity:1;stroke-miterlimit:10;" d="M -0.244232 2.747894 C -0.357117 2.647614 -0.460052 2.536682 -0.551575 2.416595 " transform="matrix(0.000000000000007838,-128,128,0.000000000000007838,512,512)"/>
<path style="fill:none;stroke-width:0.2;stroke-linecap:round;stroke-linejoin:miter;stroke:rgb(0%,0%,0%);stroke-opacity:1;stroke-miterlimit:10;" d="M 0.792419 2.342438 C 0.68924 2.302643 0.591003 2.251129 0.499603 2.188904 " transform="matrix(0.000000000000007838,-128,128,0.000000000000007838,512,512)"/>
<path style="fill:none;stroke-width:0.2;stroke-linecap:round;stroke-linejoin:miter;stroke:rgb(0%,0%,0%);stroke-opacity:1;stroke-miterlimit:10;" d="M 0.499603 2.188904 C 0.393341 2.116547 0.297211 2.030304 0.213776 1.932465 " transform="matrix(0.000000000000007838,-128,128,0.000000000000007838,512,512)"/>
<path style="fill:none;stroke-width:0.2;stroke-linecap:round;stroke-linejoin:miter;stroke:rgb(0%,0%,0%);stroke-opacity:1;stroke-miterlimit:10;" d="M -1.559387 0.355042 C -1.391846 0.390198 -1.228973 0.444611 -1.073944 0.517181 " transform="matrix(0.000000000000007838,-128,128,0.000000000000007838,512,512)"/>
<path style="fill:none;stroke-width:0.2;stroke-linecap:round;stroke-linejoin:miter;stroke:rgb(0%,0%,0%);stroke-opacity:1;stroke-miterlimit:10;" d="M -1.073944 0.517181 C -0.757355 0.665466 -0.480255 0.886414 -0.265259 1.162109 " transform="matrix(0.000000000000007838,-128,128,0.000000000000007838,512,512)"/>
<path style="fill:none;stroke-width:0.2;stroke-linecap:round;stroke-linejoin:miter;stroke:rgb(0%,0%,0%);stroke-opacity:1;stroke-miterlimit:10;" d="M -1.744171 1.23587 C -1.615875 1.262787 -1.49234 1.308655 -1.377563 1.372009 " transform="matrix(0.000000000000007838,-128,128,0.000000000000007838,512,512)"/>
<path style="fill:none;stroke-width:0.2;stroke-linecap:round;stroke-linejoin:miter;stroke:rgb(0%,0%,0%);stroke-opacity:1;stroke-miterlimit:10;" d="M -1.377563 1.372009 C -1.247314 1.443909 -1.130157 1.537354 -1.031067 1.648346 " transform="matrix(0.000000000000007838,-128,128,0.000000000000007838,512,512)"/>
<path style="fill:none;stroke-width:0.2;stroke-linecap:round;stroke-linejoin:miter;stroke:rgb(0%,0%,0%);stroke-opacity:1;stroke-miterlimit:10;" d="M -1.744171 1.23587 C -1.912598 1.200531 -2.07663 1.146759 -2.233276 1.0755 " transform="matrix(0.000000000000007838,-128,128,0.000000000000007838,512,512)"/>
<path style="fill:none;stroke-width:0.2;stroke-linecap:round;stroke-linejoin:miter;stroke:rgb(0%,0%,0%);stroke-opacity:1;stroke-miterlimit:10;" d="M -2.233276 1.0755 C -2.370697 1.01297 -2.50177 0.937317 -2.624634 0.849579 " transform="matrix(0.000000000000007838,-128,128,0.000000000000007838,512,512)"/>
<path style="fill:none;stroke-width:0.2;stroke-linecap:round;stroke-linejoin:miter;stroke:rgb(0%,0%,0%);stroke-opacity:1;stroke-miterlimit:10;" d="M -1.559387 0.355042 C -1.688995 0.32785 -1.81424 0.282959 -1.93158 0.221588 " transform="matrix(0.000000000000007838,-128,128,0.000000000000007838,512,512)"/>
<path style="fill:none;stroke-width:0.2;stroke-linecap:round;stroke-linejoin:miter;stroke:rgb(0%,0%,0%);stroke-opacity:1;stroke-miterlimit:10;" d="M -1.93158 0.221588 C -2.045532 0.162048 -2.151001 0.0874939 -2.245178 0 " transform="matrix(0.000000000000007838,-128,128,0.000000000000007838,512,512)"/>
<path style="fill:none;stroke-width:0.2;stroke-linecap:round;stroke-linejoin:miter;stroke:rgb(0%,0%,0%);stroke-opacity:1;stroke-miterlimit:10;" d="M -3.348969 0.000000000000000888 C -3.588135 -0.510254 -3.585022 -1.101013 -3.340515 -1.608704 C -3.096039 -2.116425 -2.636078 -2.487183 -2.088043 -2.618347 " transform="matrix(0.000000000000007838,-128,128,0.000000000000007838,512,512)"/>
<path style="fill:none;stroke-width:0.2;stroke-linecap:round;stroke-linejoin:miter;stroke:rgb(0%,0%,0%);stroke-opacity:1;stroke-miterlimit:10;" d="M -2.088043 -2.618347 C -1.994293 -2.640778 -1.898926 -2.655945 -1.802826 -2.663727 " transform="matrix(0.000000000000007838,-128,128,0.000000000000007838,512,512)"/>
<path style="fill:none;stroke-width:0.2;stroke-linecap:round;stroke-linejoin:miter;stroke:rgb(0%,0%,0%);stroke-opacity:1;stroke-miterlimit:10;" d="M -2.624634 -0.849579 C -2.61026 -1.107941 -2.493713 -1.350006 -2.300659 -1.522339 " transform="matrix(0.000000000000007838,-128,128,0.000000000000007838,512,512)"/>
<path style="fill:none;stroke-width:0.2;stroke-linecap:round;stroke-linejoin:miter;stroke:rgb(0%,0%,0%);stroke-opacity:1;stroke-miterlimit:10;" d="M -2.300659 -1.522339 C -2.142242 -1.663757 -1.941956 -1.749542 -1.730286 -1.766663 " transform="matrix(0.000000000000007838,-128,128,0.000000000000007838,512,512)"/>
<path style="fill:none;stroke-width:0.2;stroke-linecap:round;stroke-linejoin:miter;stroke:rgb(0%,0%,0%);stroke-opacity:1;stroke-miterlimit:10;" d="M -1.802826 -2.663727 C -1.523285 -2.68634 -1.241943 -2.658539 -0.972229 -2.581726 " transform="matrix(0.000000000000007838,-128,128,0.000000000000007838,512,512)"/>
<path style="fill:none;stroke-width:0.2;stroke-linecap:round;stroke-linejoin:miter;stroke:rgb(0%,0%,0%);stroke-opacity:1;stroke-miterlimit:10;" d="M -0.972229 -2.581726 C -0.826996 -2.540375 -0.686127 -2.485077 -0.551575 -2.416595 " transform="matrix(0.000000000000007838,-128,128,0.000000000000007838,512,512)"/>
<path style="fill:none;stroke-width:0.2;stroke-linecap:round;stroke-linejoin:miter;stroke:rgb(0%,0%,0%);stroke-opacity:1;stroke-miterlimit:10;" d="M -1.730286 -1.766663 C -1.620087 -1.775574 -1.509216 -1.77179 -1.399841 -1.755371 " transform="matrix(0.000000000000007838,-128,128,0.000000000000007838,512,512)"/>
<path style="fill:none;stroke-width:0.2;stroke-linecap:round;stroke-linejoin:miter;stroke:rgb(0%,0%,0%);stroke-opacity:1;stroke-miterlimit:10;" d="M -1.399841 -1.755371 C -1.272705 -1.736267 -1.148682 -1.700287 -1.031067 -1.648346 " transform="matrix(0.000000000000007838,-128,128,0.000000000000007838,512,512)"/>
<path style="fill:none;stroke-width:0.2;stroke-linecap:round;stroke-linejoin:miter;stroke:rgb(0%,0%,0%);stroke-opacity:1;stroke-miterlimit:10;" d="M 1.250916 -0.99646 C 1.084717 -0.955444 0.914368 -0.933807 0.743195 -0.931946 " transform="matrix(0.000000000000007838,-128,128,0.000000000000007838,512,512)"/>
<path style="fill:none;stroke-width:0.2;stroke-linecap:round;stroke-linejoin:miter;stroke:rgb(0%,0%,0%);stroke-opacity:1;stroke-miterlimit:10;" d="M 0.743195 -0.931946 C 0.393616 -0.928162 0.0480652 -1.007019 -0.265259 -1.162109 " transform="matrix(0.000000000000007838,-128,128,0.000000000000007838,512,512)"/>
<path style="fill:none;stroke-width:0.2;stroke-linecap:round;stroke-linejoin:miter;stroke:rgb(0%,0%,0%);stroke-opacity:1;stroke-miterlimit:10;" d="M 1.035217 -1.870239 C 0.907959 -1.838837 0.776733 -1.826569 0.645874 -1.833832 " transform="matrix(0.000000000000007838,-128,128,0.000000000000007838,512,512)"/>
<path style="fill:none;stroke-width:0.2;stroke-linecap:round;stroke-linejoin:miter;stroke:rgb(0%,0%,0%);stroke-opacity:1;stroke-miterlimit:10;" d="M 0.645874 -1.833832 C 0.497314 -1.842102 0.351196 -1.875458 0.213776 -1.932465 " transform="matrix(0.000000000000007838,-128,128,0.000000000000007838,512,512)"/>
<path style="fill:none;stroke-width:0.2;stroke-linecap:round;stroke-linejoin:miter;stroke:rgb(0%,0%,0%);stroke-opacity:1;stroke-miterlimit:10;" d="M 1.035217 -1.870239 C 1.202301 -1.911499 1.373413 -1.934204 1.545471 -1.937958 " transform="matrix(0.000000000000007838,-128,128,0.000000000000007838,512,512)"/>
<path style="fill:none;stroke-width:0.2;stroke-linecap:round;stroke-linejoin:miter;stroke:rgb(0%,0%,0%);stroke-opacity:1;stroke-miterlimit:10;" d="M 1.545471 -1.937958 C 1.696411 -1.941254 1.847321 -1.929962 1.996094 -1.904236 " transform="matrix(0.000000000000007838,-128,128,0.000000000000007838,512,512)"/>
<path style="fill:none;stroke-width:0.2;stroke-linecap:round;stroke-linejoin:miter;stroke:rgb(0%,0%,0%);stroke-opacity:1;stroke-miterlimit:10;" d="M 1.250916 -0.99646 C 1.379486 -1.028198 1.51181 -1.042084 1.644135 -1.03775 " transform="matrix(0.000000000000007838,-128,128,0.000000000000007838,512,512)"/>
<path style="fill:none;stroke-width:0.2;stroke-linecap:round;stroke-linejoin:miter;stroke:rgb(0%,0%,0%);stroke-opacity:1;stroke-miterlimit:10;" d="M 1.644135 -1.03775 C 1.772644 -1.033508 1.900024 -1.012115 2.022858 -0.974152 " transform="matrix(0.000000000000007838,-128,128,0.000000000000007838,512,512)"/>
</g>
</svg>
