<?xml version="1.0" encoding="UTF-8"?>
<svg xmlns="http://www.w3.org/2000/svg" xmlns:xlink="http://www.w3.org/1999/xlink" width="768" height="768" viewBox="0 0 768 768">
<rect x="-76.8" y="-76.8" width="921.6" height="921.6" fill="rgb(0%, 0%, 0%)" fill-opacity="1"/>
<path fill="none" stroke-width="0.08" stroke-linecap="round" stroke-linejoin="miter" stroke="rgb(100%, 100%, 100%)" stroke-opacity="1" stroke-miterlimit="10" d="M 1.126668 -0.176168 L 1.129089 -0.170715 L 1.134094 -0.158325 L 1.138733 -0.145752 L 1.142965 -0.133036 L 1.14681 -0.120158 L 1.150269 -0.107157 L 1.15332 -0.0940348 L 1.155965 -0.0808105 L 1.158203 -0.0674845 L 1.160034 -0.0540771 L 1.161479 -0.0406087 L 1.162496 -0.0270996 L 1.163106 -0.0135701 L 1.16331 0 L 1.163106 0.0135701 L 1.162496 0.0270996 L 1.161479 0.0406087 L 1.160034 0.0540771 L 1.158203 0.0674845 L 1.155965 0.0808105 L 1.15332 0.0940348 L 1.150269 0.107157 L 1.14681 0.120158 L 1.142965 0.133036 L 1.138733 0.145752 L 1.134094 0.158325 L 1.129089 0.170715 L 1.126668 0.176168 " transform="matrix(0.000000000000011757, -192, 192, 0.000000000000011757, 384, 384)"/>
<path fill="none" stroke-width="0.08" stroke-linecap="round" stroke-linejoin="miter" stroke="rgb(100%, 100%, 100%)" stroke-opacity="1" stroke-miterlimit="10" d="M 1.126668 0.176168 L 1.123678 0.182922 L 1.117879 0.194967 L 1.111715 0.206787 L 1.105164 0.218404 L 1.098246 0.229818 L 1.090942 0.241007 L 1.083272 0.251973 L 1.075216 0.262695 L 1.066813 0.273173 L 1.058024 0.283427 L 1.048889 0.293396 L 1.039368 0.303141 L 1.029521 0.312602 L 1.019287 0.321798 L 1.008728 0.330709 L 0.997803 0.339335 L 0.986552 0.347697 L 0.974955 0.355733 L 0.963033 0.363485 L 0.950806 0.370931 L 0.938253 0.378072 L 0.925415 0.384888 L 0.912313 0.391398 L 0.898926 0.397583 L 0.885274 0.403422 L 0.871419 0.408956 L 0.858826 0.413595 " transform="matrix(0.000000000000011757, -192, 192, 0.000000000000011757, 384, 384)"/>
<path fill="none" stroke-width="0.08" stroke-linecap="round" stroke-linejoin="miter" stroke="rgb(100%, 100%, 100%)" stroke-opacity="1" stroke-miterlimit="10" d="M 0.858826 0.413595 L 0.85732 0.414144 L 0.843038 0.419006 L 0.828573 0.423543 L 0.813944 0.427755 L 0.799174 0.431641 L 0.784302 0.435221 L 0.769307 0.438497 L 0.754252 0.441447 L 0.739136 0.444132 L 0.723999 0.446513 L 0.719543 0.447144 " transform="matrix(0.000000000000011757, -192, 192, 0.000000000000011757, 384, 384)"/>
<path fill="none" stroke-width="0.08" stroke-linecap="round" stroke-linejoin="miter" stroke="rgb(100%, 100%, 100%)" stroke-opacity="1" stroke-miterlimit="10" d="M 0.363993 0.456441 L 0.355408 0.456523 L 0.342712 0.456767 L 0.330098 0.457072 L 0.317607 0.457499 L 0.305216 0.458028 L 0.292948 0.458679 L 0.280782 0.459432 L 0.268738 0.460286 L 0.256795 0.461283 L 0.244975 0.462382 L 0.233256 0.463582 L 0.221659 0.464925 L 0.210164 0.466349 L 0.198771 0.467916 L 0.18748 0.469564 L 0.17627 0.471334 L 0.165161 0.473226 L 0.154114 0.475199 L 0.143148 0.477295 L 0.132222 0.479492 L 0.121358 0.481791 L 0.110514 0.484212 L 0.0997111 0.486735 L 0.0889079 0.48938 L 0.078125 0.492126 L 0.0673218 0.495015 L 0.0565186 0.498006 L 0.045695 0.501139 L 0.0348307 0.504415 L 0.0239258 0.507812 L 0.0130005 0.511353 L 0.00201416 0.515055 L -0.00901286 0.51888 L -0.0201009 0.522868 L -0.0312297 0.527018 L -0.0423991 0.531311 L -0.0536296 0.535746 L -0.0649211 0.540344 L -0.0762533 0.545105 L -0.0876465 0.549988 L -0.0991007 0.555033 L -0.110596 0.560221 L -0.122131 0.565531 L -0.129903 0.569173 " transform="matrix(0.000000000000011757, -192, 192, 0.000000000000011757, 384, 384)"/>
<path fill="none" stroke-width="0.08" stroke-linecap="round" stroke-linejoin="miter" stroke="rgb(100%, 100%, 100%)" stroke-opacity="1" stroke-miterlimit="10" d="M -0.129903 0.569173 L -0.133748 0.570964 L -0.145406 0.576538 L -0.157145 0.582194 L -0.168966 0.587972 L -0.180847 0.593852 L -0.19281 0.599792 L -0.204875 0.605835 L -0.217021 0.611918 L -0.229289 0.618062 L -0.241659 0.624268 L -0.254171 0.630473 L -0.266785 0.636719 L -0.279541 0.642944 L -0.29244 0.64917 L -0.305481 0.655355 L -0.318665 0.661499 L -0.331991 0.667582 L -0.345479 0.673564 L -0.359131 0.679484 L -0.372904 0.685262 L -0.386841 0.690918 L -0.40094 0.696391 L -0.415141 0.701721 L -0.429504 0.706848 L -0.44397 0.711751 L -0.454285 0.715047 " transform="matrix(0.000000000000011757, -192, 192, 0.000000000000011757, 384, 384)"/>
<path fill="none" stroke-width="0.08" stroke-linecap="round" stroke-linejoin="miter" stroke="rgb(100%, 100%, 100%)" stroke-opacity="1" stroke-miterlimit="10" d="M -0.454285 0.715047 L -0.458557 0.716431 L -0.473246 0.720846 L -0.488017 0.724996 L -0.502869 0.728861 L -0.517782 0.732422 L -0.532756 0.735657 L -0.54775 0.738546 L -0.562744 0.741109 L -0.577738 0.743286 L -0.592733 0.745117 L -0.59432 0.74526 " transform="matrix(0.000000000000011757, -192, 192, 0.000000000000011757, 384, 384)"/>
<path fill="none" stroke-width="0.08" stroke-linecap="round" stroke-linejoin="miter" stroke="rgb(100%, 100%, 100%)" stroke-opacity="1" stroke-miterlimit="10" d="M -0.93866 0.647563 L -0.943197 0.643697 L -0.953105 0.634705 L -0.962728 0.625407 L -0.972066 0.615784 L -0.981099 0.605855 L -0.989848 0.595622 L -0.998291 0.585124 L -1.006429 0.574361 L -1.014221 0.563334 L -1.021688 0.552043 L -1.028829 0.540548 L -1.035604 0.528809 L -1.042033 0.516866 L -1.048116 0.50474 L -1.053813 0.492432 L -1.059123 0.47996 L -1.064067 0.467346 L -1.068624 0.45459 L -1.072795 0.441732 L -1.076538 0.428752 L -1.079895 0.41567 L -1.082845 0.402527 L -1.085388 0.389323 L -1.087504 0.376058 L -1.089193 0.362752 L -1.090474 0.349426 L -1.091329 0.33608 L -1.091532 0.330119 " transform="matrix(0.000000000000011757, -192, 192, 0.000000000000011757, 384, 384)"/>
<path fill="none" stroke-width="0.08" stroke-linecap="round" stroke-linejoin="miter" stroke="rgb(100%, 100%, 100%)" stroke-opacity="1" stroke-miterlimit="10" d="M -1.091532 0.330119 L -1.091777 0.322734 L -1.091777 0.309387 L -1.091349 0.296041 L -1.090474 0.282735 L -1.089193 0.26945 L -1.087463 0.256205 L -1.085307 0.243001 L -1.082723 0.229838 L -1.079692 0.216736 L -1.076213 0.203715 L -1.072306 0.190755 L -1.067973 0.177856 L -1.063192 0.165059 L -1.057963 0.152323 L -1.052307 0.139709 L -1.046224 0.127197 L -1.039693 0.114787 L -1.032756 0.102498 L -1.02537 0.0903524 L -1.017578 0.0783285 L -1.009379 0.0664673 L -1.000773 0.0547485 L -0.991781 0.0431925 L -0.982402 0.0318197 L -0.972656 0.0206299 L -0.962545 0.00964355 L -0.953227 0 " transform="matrix(0.000000000000011757, -192, 192, 0.000000000000011757, 384, 384)"/>
<path fill="none" stroke-width="0.08" stroke-linecap="round" stroke-linejoin="miter" stroke="rgb(100%, 100%, 100%)" stroke-opacity="1" stroke-miterlimit="10" d="M -0.953227 0 L -0.952108 -0.00115967 L -0.941345 -0.0117391 L -0.930278 -0.0220947 L -0.918925 -0.0322469 L -0.907328 -0.0421549 L -0.895467 -0.0518188 L -0.883382 -0.0612793 L -0.871094 -0.0704753 L -0.858643 -0.0794474 L -0.846029 -0.0881755 L -0.842285 -0.0906576 " transform="matrix(0.000000000000011757, -192, 192, 0.000000000000011757, 384, 384)"/>
<path fill="none" stroke-width="0.08" stroke-linecap="round" stroke-linejoin="miter" stroke="rgb(100%, 100%, 100%)" stroke-opacity="1" stroke-miterlimit="10" d="M -0.526001 -0.253296 L -0.51829 -0.257121 L -0.506938 -0.262838 L -0.495728 -0.268595 L -0.48466 -0.274394 L -0.473735 -0.280233 L -0.462952 -0.286153 L -0.452311 -0.292094 L -0.441833 -0.298116 L -0.431498 -0.304179 L -0.421326 -0.310303 L -0.411296 -0.316467 L -0.401428 -0.322693 L -0.391703 -0.328979 L -0.3821 -0.335327 L -0.37266 -0.341715 L -0.363322 -0.348185 L -0.354126 -0.354696 L -0.345032 -0.361267 L -0.33606 -0.36792 L -0.327169 -0.374634 L -0.31838 -0.381429 L -0.309672 -0.388306 L -0.301025 -0.395264 L -0.29244 -0.402344 L -0.283915 -0.409505 L -0.275431 -0.416789 L -0.267008 -0.424174 L -0.258606 -0.431702 L -0.250244 -0.439351 L -0.241903 -0.447144 L -0.233582 -0.455078 L -0.225281 -0.463175 L -0.217021 -0.471415 L -0.208761 -0.479818 L -0.200521 -0.488363 L -0.192322 -0.497091 L -0.184123 -0.505961 L -0.175964 -0.515015 L -0.167806 -0.524211 L -0.159668 -0.533569 L -0.15155 -0.54307 L -0.143433 -0.552714 L -0.135335 -0.56252 L -0.129903 -0.569173 " transform="matrix(0.000000000000011757, -192, 192, 0.000000000000011757, 384, 384)"/>
<path fill="none" stroke-width="0.08" stroke-linecap="round" stroke-linejoin="miter" stroke="rgb(100%, 100%, 100%)" stroke-opacity="1" stroke-miterlimit="10" d="M -0.129903 -0.569173 L -0.127238 -0.572449 L -0.119141 -0.58252 L -0.111023 -0.592733 L -0.102885 -0.603048 L -0.0947266 -0.613505 L -0.0865275 -0.624064 L -0.0782674 -0.634725 L -0.0699666 -0.645487 L -0.0615845 -0.656352 L -0.0531209 -0.667297 L -0.0445557 -0.678324 L -0.0358887 -0.689412 L -0.0270996 -0.700562 L -0.0181885 -0.711751 L -0.00913493 -0.722982 L 0.0000813802 -0.734253 L 0.00946045 -0.745504 L 0.0190226 -0.756775 L 0.0287476 -0.768005 L 0.0386556 -0.779195 L 0.0487671 -0.790344 L 0.0590617 -0.801392 L 0.0695801 -0.812358 L 0.0802816 -0.823201 L 0.0911865 -0.833903 L 0.0990397 -0.841349 " transform="matrix(0.000000000000011757, -192, 192, 0.000000000000011757, 384, 384)"/>
<path fill="none" stroke-width="0.08" stroke-linecap="round" stroke-linejoin="miter" stroke="rgb(100%, 100%, 100%)" stroke-opacity="1" stroke-miterlimit="10" d="M 0.0990397 -0.841349 L 0.102295 -0.844442 L 0.113627 -0.854797 L 0.125122 -0.86495 L 0.136841 -0.874878 L 0.148722 -0.884542 L 0.160807 -0.893941 L 0.173055 -0.903076 L 0.185465 -0.911886 L 0.198039 -0.920349 L 0.210734 -0.928487 L 0.212118 -0.929321 " transform="matrix(0.000000000000011757, -192, 192, 0.000000000000011757, 384, 384)"/>
<path fill="none" stroke-width="0.08" stroke-linecap="round" stroke-linejoin="miter" stroke="rgb(100%, 100%, 100%)" stroke-opacity="1" stroke-miterlimit="10" d="M 0.564718 -0.990702 L 0.570496 -0.989197 L 0.583313 -0.985392 L 0.596029 -0.981181 L 0.608622 -0.976562 L 0.621073 -0.971537 L 0.633403 -0.966125 L 0.645549 -0.960327 L 0.657552 -0.954142 L 0.669373 -0.947591 L 0.68099 -0.940674 L 0.692403 -0.93339 L 0.703613 -0.925781 L 0.714579 -0.917806 L 0.725321 -0.909526 L 0.735779 -0.900899 L 0.745992 -0.891968 L 0.75592 -0.882751 L 0.765564 -0.87323 L 0.774882 -0.863444 L 0.783915 -0.853373 L 0.792603 -0.843058 L 0.800964 -0.832499 L 0.80898 -0.821696 L 0.81663 -0.810669 L 0.823934 -0.799418 L 0.830872 -0.787964 L 0.837443 -0.776306 L 0.84021 -0.771016 " transform="matrix(0.000000000000011757, -192, 192, 0.000000000000011757, 384, 384)"/>
<path fill="none" stroke-width="0.08" stroke-linecap="round" stroke-linejoin="miter" stroke="rgb(100%, 100%, 100%)" stroke-opacity="1" stroke-miterlimit="10" d="M 0.84021 -0.771016 L 0.843628 -0.764465 L 0.849406 -0.752441 L 0.854818 -0.740234 L 0.859823 -0.727885 L 0.864421 -0.715352 L 0.868612 -0.702657 L 0.872396 -0.689819 L 0.875773 -0.67686 L 0.878723 -0.663737 L 0.881246 -0.650492 L 0.883362 -0.637105 L 0.88503 -0.623617 L 0.886292 -0.610006 L 0.887105 -0.596293 L 0.887492 -0.582458 L 0.887431 -0.568542 L 0.886943 -0.554525 L 0.886007 -0.540446 L 0.884623 -0.526306 L 0.882833 -0.512085 L 0.880595 -0.497823 L 0.877909 -0.483541 L 0.874817 -0.469238 L 0.871297 -0.454915 L 0.867371 -0.440613 L 0.863037 -0.426331 L 0.858826 -0.413595 " transform="matrix(0.000000000000011757, -192, 192, 0.000000000000011757, 384, 384)"/>
<path fill="none" stroke-width="0.08" stroke-linecap="round" stroke-linejoin="miter" stroke="rgb(100%, 100%, 100%)" stroke-opacity="1" stroke-miterlimit="10" d="M 0.858826 -0.413595 L 0.858317 -0.412069 L 0.85321 -0.397868 L 0.847738 -0.383728 L 0.841919 -0.36967 L 0.835754 -0.355693 L 0.829264 -0.341838 L 0.822489 -0.328084 L 0.815409 -0.314453 L 0.808085 -0.300985 L 0.800496 -0.287638 L 0.798218 -0.283773 " transform="matrix(0.000000000000011757, -192, 192, 0.000000000000011757, 384, 384)"/>
<path fill="none" stroke-width="0.08" stroke-linecap="round" stroke-linejoin="miter" stroke="rgb(100%, 100%, 100%)" stroke-opacity="1" stroke-miterlimit="10" d="M 0.583801 0 L 0.578532 0.0067749 L 0.57078 0.0168457 L 0.563171 0.0268962 L 0.555705 0.0369263 L 0.548401 0.0469564 L 0.54126 0.0569458 L 0.534261 0.0669149 L 0.527425 0.076884 L 0.520752 0.0868327 L 0.514242 0.0967611 L 0.507874 0.106669 L 0.501689 0.116577 L 0.495646 0.126465 L 0.489766 0.136332 L 0.484009 0.1462 L 0.478414 0.156067 L 0.472961 0.165914 L 0.467611 0.175781 L 0.462402 0.185669 L 0.457316 0.195577 L 0.452352 0.205526 L 0.447469 0.215495 L 0.442708 0.225525 L 0.438049 0.235616 L 0.433472 0.245768 L 0.428996 0.256002 L 0.424601 0.266317 L 0.420308 0.276733 L 0.416077 0.287272 L 0.411947 0.297913 L 0.407898 0.308675 L 0.403931 0.31956 L 0.400065 0.330566 L 0.396261 0.341715 L 0.392558 0.353007 L 0.388957 0.364421 L 0.385417 0.375977 L 0.381978 0.387655 L 0.378621 0.399495 L 0.375366 0.411438 L 0.372172 0.423523 L 0.369039 0.43575 L 0.366007 0.4481 L 0.363993 0.456441 " transform="matrix(0.000000000000011757, -192, 192, 0.000000000000011757, 384, 384)"/>
<path fill="none" stroke-width="0.08" stroke-linecap="round" stroke-linejoin="miter" stroke="rgb(100%, 100%, 100%)" stroke-opacity="1" stroke-miterlimit="10" d="M 0.363993 0.456441 L 0.363017 0.460551 L 0.360087 0.473145 L 0.357198 0.48586 L 0.35435 0.498698 L 0.351522 0.511637 L 0.348735 0.524719 L 0.345927 0.537903 L 0.343099 0.551208 L 0.340271 0.564636 L 0.337382 0.578166 L 0.334452 0.591797 L 0.331462 0.60557 L 0.328389 0.619425 L 0.325195 0.633382 L 0.32192 0.647441 L 0.318502 0.66158 L 0.314941 0.675781 L 0.311218 0.690084 L 0.307332 0.704427 L 0.303243 0.718811 L 0.298971 0.733215 L 0.294495 0.74766 L 0.289775 0.762085 L 0.284831 0.77651 L 0.279663 0.790873 L 0.275818 0.801005 " transform="matrix(0.000000000000011757, -192, 192, 0.000000000000011757, 384, 384)"/>
<path fill="none" stroke-width="0.08" stroke-linecap="round" stroke-linejoin="miter" stroke="rgb(100%, 100%, 100%)" stroke-opacity="1" stroke-miterlimit="10" d="M 0.275818 0.801005 L 0.274211 0.805196 L 0.268514 0.819438 L 0.262553 0.833577 L 0.256307 0.847595 L 0.249797 0.861471 L 0.242981 0.875183 L 0.235921 0.888713 L 0.228556 0.902039 L 0.220907 0.915141 L 0.212992 0.927979 L 0.212118 0.929321 " transform="matrix(0.000000000000011757, -192, 192, 0.000000000000011757, 384, 384)"/>
<path fill="none" stroke-width="0.08" stroke-linecap="round" stroke-linejoin="miter" stroke="rgb(100%, 100%, 100%)" stroke-opacity="1" stroke-miterlimit="10" d="M -0.0789591 1.137614 L -0.0848185 1.138753 L -0.0980021 1.140889 L -0.111287 1.142619 L -0.124634 1.143921 L -0.138041 1.144796 L -0.151489 1.145264 L -0.164958 1.145325 L -0.178446 1.144958 L -0.191935 1.144185 L -0.205404 1.142985 L -0.218852 1.141398 L -0.232259 1.139384 L -0.245605 1.136963 L -0.25887 1.134155 L -0.272034 1.13092 L -0.285095 1.127319 L -0.298055 1.123311 L -0.310852 1.118917 L -0.323527 1.114156 L -0.335999 1.108988 L -0.348328 1.103475 L -0.360433 1.097575 L -0.372335 1.091329 L -0.384033 1.084717 L -0.395487 1.077738 L -0.406718 1.070435 L -0.417684 1.062785 L -0.422465 1.059224 " transform="matrix(0.000000000000011757, -192, 192, 0.000000000000011757, 384, 384)"/>
<path fill="none" stroke-width="0.08" stroke-linecap="round" stroke-linejoin="miter" stroke="rgb(100%, 100%, 100%)" stroke-opacity="1" stroke-miterlimit="10" d="M -0.422465 1.059224 L -0.428385 1.054789 L -0.438822 1.046468 L -0.448975 1.037821 L -0.458862 1.028849 L -0.468445 1.019572 L -0.477722 1.009949 L -0.486694 1.000041 L -0.495361 0.989807 L -0.503723 0.979268 L -0.511739 0.968424 L -0.51945 0.957296 L -0.526815 0.945862 L -0.533854 0.934143 L -0.540527 0.922139 L -0.546875 0.909851 L -0.552856 0.897278 L -0.558492 0.88444 L -0.563761 0.871358 L -0.568685 0.858012 L -0.573222 0.844421 L -0.577372 0.830607 L -0.581177 0.816569 L -0.584595 0.802327 L -0.587626 0.787903 L -0.590312 0.773315 L -0.592611 0.758565 L -0.59432 0.74526 " transform="matrix(0.000000000000011757, -192, 192, 0.000000000000011757, 384, 384)"/>
<path fill="none" stroke-width="0.08" stroke-linecap="round" stroke-linejoin="miter" stroke="rgb(100%, 100%, 100%)" stroke-opacity="1" stroke-miterlimit="10" d="M -0.59432 0.74526 L -0.594523 0.743673 L -0.59609 0.728658 L -0.59729 0.713542 L -0.598145 0.698344 L -0.598653 0.683085 L -0.598836 0.667786 L -0.598674 0.652445 L -0.598226 0.637105 L -0.597473 0.621785 L -0.596415 0.606486 L -0.596029 0.60201 " transform="matrix(0.000000000000011757, -192, 192, 0.000000000000011757, 384, 384)"/>
<path fill="none" stroke-width="0.08" stroke-linecap="round" stroke-linejoin="miter" stroke="rgb(100%, 100%, 100%)" stroke-opacity="1" stroke-miterlimit="10" d="M -0.526001 0.253296 L -0.52417 0.244914 L -0.521566 0.232483 L -0.519063 0.220113 L -0.516703 0.207845 L -0.514465 0.195638 L -0.512349 0.183533 L -0.510376 0.171509 L -0.508545 0.159566 L -0.506856 0.147705 L -0.50529 0.135946 L -0.503866 0.124247 L -0.502584 0.112651 L -0.501424 0.101115 L -0.500407 0.0896606 L -0.499512 0.0782878 L -0.498759 0.0669759 L -0.498108 0.0557251 L -0.497579 0.044515 L -0.497172 0.0333455 L -0.496887 0.0222168 L -0.496724 0.0111084 L -0.496663 0 L -0.496724 -0.0111084 L -0.496887 -0.0222168 L -0.497172 -0.0333455 L -0.497579 -0.044515 L -0.498108 -0.0557251 L -0.498759 -0.0669759 L -0.499512 -0.0782878 L -0.500407 -0.0896606 L -0.501424 -0.101115 L -0.502584 -0.112651 L -0.503866 -0.124247 L -0.50529 -0.135946 L -0.506856 -0.147705 L -0.508545 -0.159566 L -0.510376 -0.171509 L -0.512349 -0.183533 L -0.514465 -0.195638 L -0.516703 -0.207845 L -0.519063 -0.220113 L -0.521566 -0.232483 L -0.52417 -0.244914 L -0.526001 -0.253296 " transform="matrix(0.000000000000011757, -192, 192, 0.000000000000011757, 384, 384)"/>
<path fill="none" stroke-width="0.08" stroke-linecap="round" stroke-linejoin="miter" stroke="rgb(100%, 100%, 100%)" stroke-opacity="1" stroke-miterlimit="10" d="M -0.526001 -0.253296 L -0.526896 -0.257446 L -0.529724 -0.27006 L -0.532633 -0.282756 L -0.535645 -0.295553 L -0.538717 -0.308451 L -0.54185 -0.321452 L -0.545044 -0.334554 L -0.548279 -0.347758 L -0.551554 -0.361084 L -0.55483 -0.374512 L -0.558105 -0.388082 L -0.561381 -0.401774 L -0.564616 -0.415588 L -0.56781 -0.429545 L -0.570943 -0.443644 L -0.573995 -0.457865 L -0.576965 -0.472229 L -0.579814 -0.486694 L -0.58252 -0.501322 L -0.585103 -0.516052 L -0.587504 -0.530884 L -0.589722 -0.545837 L -0.591736 -0.560893 L -0.593547 -0.576029 L -0.595113 -0.591227 L -0.596029 -0.60201 " transform="matrix(0.000000000000011757, -192, 192, 0.000000000000011757, 384, 384)"/>
<path fill="none" stroke-width="0.08" stroke-linecap="round" stroke-linejoin="miter" stroke="rgb(100%, 100%, 100%)" stroke-opacity="1" stroke-miterlimit="10" d="M -0.596029 -0.60201 L -0.596415 -0.606486 L -0.597473 -0.621785 L -0.598226 -0.637105 L -0.598674 -0.652445 L -0.598836 -0.667786 L -0.598653 -0.683085 L -0.598145 -0.698344 L -0.59729 -0.713542 L -0.59609 -0.728658 L -0.594523 -0.743673 L -0.59432 -0.74526 " transform="matrix(0.000000000000011757, -192, 192, 0.000000000000011757, 384, 384)"/>
<path fill="none" stroke-width="0.08" stroke-linecap="round" stroke-linejoin="miter" stroke="rgb(100%, 100%, 100%)" stroke-opacity="1" stroke-miterlimit="10" d="M -0.422465 -1.059224 L -0.417684 -1.062785 L -0.406718 -1.070435 L -0.395487 -1.077738 L -0.384033 -1.084717 L -0.372335 -1.091329 L -0.360433 -1.097575 L -0.348328 -1.103475 L -0.335999 -1.108988 L -0.323527 -1.114156 L -0.310852 -1.118917 L -0.298055 -1.123311 L -0.285095 -1.127319 L -0.272034 -1.13092 L -0.25887 -1.134155 L -0.245605 -1.136963 L -0.232259 -1.139384 L -0.218852 -1.141398 L -0.205404 -1.142985 L -0.191935 -1.144185 L -0.178446 -1.144958 L -0.164958 -1.145325 L -0.151489 -1.145264 L -0.138041 -1.144796 L -0.124634 -1.143921 L -0.111287 -1.142619 L -0.0980021 -1.140889 L -0.0848185 -1.138753 L -0.0789591 -1.137614 " transform="matrix(0.000000000000011757, -192, 192, 0.000000000000011757, 384, 384)"/>
<path fill="none" stroke-width="0.08" stroke-linecap="round" stroke-linejoin="miter" stroke="rgb(100%, 100%, 100%)" stroke-opacity="1" stroke-miterlimit="10" d="M -0.0789591 -1.137614 L -0.071696 -1.13621 L -0.0586751 -1.13324 L -0.0457764 -1.129862 L -0.0329793 -1.126058 L -0.0203247 -1.121847 L -0.00779215 -1.117208 L 0.00459798 -1.112162 L 0.0168457 -1.10671 L 0.028951 -1.10085 L 0.0408732 -1.094564 L 0.052653 -1.08787 L 0.0642497 -1.08077 L 0.0756632 -1.073263 L 0.0869141 -1.065348 L 0.0979614 -1.057027 L 0.108805 -1.048299 L 0.119446 -1.039185 L 0.129883 -1.029663 L 0.140076 -1.019775 L 0.150065 -1.009501 L 0.15981 -0.998861 L 0.169312 -0.987874 L 0.178569 -0.976522 L 0.187581 -0.964844 L 0.196309 -0.952861 L 0.204793 -0.940572 L 0.212118 -0.929321 " transform="matrix(0.000000000000011757, -192, 192, 0.000000000000011757, 384, 384)"/>
<path fill="none" stroke-width="0.08" stroke-linecap="round" stroke-linejoin="miter" stroke="rgb(100%, 100%, 100%)" stroke-opacity="1" stroke-miterlimit="10" d="M 0.212118 -0.929321 L 0.212992 -0.927979 L 0.220907 -0.915141 L 0.228556 -0.902039 L 0.235921 -0.888713 L 0.242981 -0.875183 L 0.249797 -0.861471 L 0.256307 -0.847595 L 0.262553 -0.833577 L 0.268514 -0.819438 L 0.274211 -0.805196 L 0.275818 -0.801005 " transform="matrix(0.000000000000011757, -192, 192, 0.000000000000011757, 384, 384)"/>
<path fill="none" stroke-width="0.08" stroke-linecap="round" stroke-linejoin="miter" stroke="rgb(100%, 100%, 100%)" stroke-opacity="1" stroke-miterlimit="10" d="M 0.363993 -0.456441 L 0.366007 -0.4481 L 0.369039 -0.43575 L 0.372172 -0.423523 L 0.375366 -0.411438 L 0.378621 -0.399495 L 0.381978 -0.387655 L 0.385417 -0.375977 L 0.388957 -0.364421 L 0.392558 -0.353007 L 0.396261 -0.341715 L 0.400065 -0.330566 L 0.403931 -0.31956 L 0.407898 -0.308675 L 0.411947 -0.297913 L 0.416077 -0.287272 L 0.420308 -0.276733 L 0.424601 -0.266317 L 0.428996 -0.256002 L 0.433472 -0.245768 L 0.438049 -0.235616 L 0.442708 -0.225525 L 0.447469 -0.215495 L 0.452352 -0.205526 L 0.457316 -0.195577 L 0.462402 -0.185669 L 0.467611 -0.175781 L 0.472961 -0.165914 L 0.478414 -0.156067 L 0.484009 -0.1462 L 0.489766 -0.136332 L 0.495646 -0.126465 L 0.501689 -0.116577 L 0.507874 -0.106669 L 0.514242 -0.0967611 L 0.520752 -0.0868327 L 0.527425 -0.076884 L 0.534261 -0.0669149 L 0.54126 -0.0569458 L 0.548401 -0.0469564 L 0.555705 -0.0369263 L 0.563171 -0.0268962 L 0.57078 -0.0168457 L 0.578532 -0.0067749 L 0.583801 0 " transform="matrix(0.000000000000011757, -192, 192, 0.000000000000011757, 384, 384)"/>
<path fill="none" stroke-width="0.08" stroke-linecap="round" stroke-linejoin="miter" stroke="rgb(100%, 100%, 100%)" stroke-opacity="1" stroke-miterlimit="10" d="M 0.583801 0 L 0.586405 0.00333659 L 0.594442 0.0134888 L 0.60258 0.0236613 L 0.61084 0.0338949 L 0.619202 0.0441691 L 0.627665 0.0545044 L 0.63623 0.0649211 L 0.644877 0.0754191 L 0.653605 0.0859985 L 0.662394 0.0967 L 0.671224 0.107503 L 0.680115 0.118408 L 0.689026 0.129456 L 0.697957 0.140645 L 0.706889 0.151978 L 0.71582 0.163472 L 0.724711 0.17513 L 0.733561 0.18693 L 0.74235 0.198914 L 0.751058 0.21108 L 0.759664 0.223409 L 0.768148 0.235921 L 0.77651 0.248596 L 0.784688 0.261454 L 0.792704 0.274455 L 0.798218 0.283773 " transform="matrix(0.000000000000011757, -192, 192, 0.000000000000011757, 384, 384)"/>
<path fill="none" stroke-width="0.08" stroke-linecap="round" stroke-linejoin="miter" stroke="rgb(100%, 100%, 100%)" stroke-opacity="1" stroke-miterlimit="10" d="M 0.798218 0.283773 L 0.800496 0.287638 L 0.808085 0.300985 L 0.815409 0.314453 L 0.822489 0.328084 L 0.829264 0.341838 L 0.835754 0.355693 L 0.841919 0.36967 L 0.847738 0.383728 L 0.85321 0.397868 L 0.858317 0.412069 L 0.858826 0.413595 " transform="matrix(0.000000000000011757, -192, 192, 0.000000000000011757, 384, 384)"/>
<path fill="none" stroke-width="0.08" stroke-linecap="round" stroke-linejoin="miter" stroke="rgb(100%, 100%, 100%)" stroke-opacity="1" stroke-miterlimit="10" d="M 0.84021 0.771016 L 0.837443 0.776306 L 0.830872 0.787964 L 0.823934 0.799418 L 0.81663 0.810669 L 0.80898 0.821696 L 0.800964 0.832499 L 0.792603 0.843058 L 0.783915 0.853373 L 0.774882 0.863444 L 0.765564 0.87323 L 0.75592 0.882751 L 0.745992 0.891968 L 0.735779 0.900899 L 0.725321 0.909526 L 0.714579 0.917806 L 0.703613 0.925781 L 0.692403 0.93339 L 0.68099 0.940674 L 0.669373 0.947591 L 0.657552 0.954142 L 0.645549 0.960327 L 0.633403 0.966125 L 0.621073 0.971537 L 0.608622 0.976562 L 0.596029 0.981181 L 0.583313 0.985392 L 0.570496 0.989197 L 0.564718 0.990702 " transform="matrix(0.000000000000011757, -192, 192, 0.000000000000011757, 384, 384)"/>
<path fill="none" stroke-width="0.08" stroke-linecap="round" stroke-linejoin="miter" stroke="rgb(100%, 100%, 100%)" stroke-opacity="1" stroke-miterlimit="10" d="M 0.564718 0.990702 L 0.557576 0.992574 L 0.544556 0.995544 L 0.531474 0.998108 L 0.51829 1.000224 L 0.505066 1.001933 L 0.49176 1.003194 L 0.478414 1.004028 L 0.465007 1.004435 L 0.451558 1.004395 L 0.43809 1.003906 L 0.424581 1.002991 L 0.411051 1.001607 L 0.397502 0.999797 L 0.383931 0.997538 L 0.370361 0.994832 L 0.356812 0.991699 L 0.343262 0.988098 L 0.329753 0.984049 L 0.316243 0.979574 L 0.302795 0.97465 L 0.289408 0.969279 L 0.276062 0.963501 L 0.262797 0.957296 L 0.249634 0.950684 L 0.236552 0.943665 L 0.223592 0.936279 L 0.212118 0.929321 " transform="matrix(0.000000000000011757, -192, 192, 0.000000000000011757, 384, 384)"/>
<path fill="none" stroke-width="0.08" stroke-linecap="round" stroke-linejoin="miter" stroke="rgb(100%, 100%, 100%)" stroke-opacity="1" stroke-miterlimit="10" d="M 0.212118 0.929321 L 0.210734 0.928487 L 0.198039 0.920349 L 0.185465 0.911886 L 0.173055 0.903076 L 0.160807 0.893941 L 0.148722 0.884542 L 0.136841 0.874878 L 0.125122 0.86495 L 0.113627 0.854797 L 0.102295 0.844442 L 0.0990397 0.841349 " transform="matrix(0.000000000000011757, -192, 192, 0.000000000000011757, 384, 384)"/>
<path fill="none" stroke-width="0.08" stroke-linecap="round" stroke-linejoin="miter" stroke="rgb(100%, 100%, 100%)" stroke-opacity="1" stroke-miterlimit="10" d="M -0.129903 0.569173 L -0.135335 0.56252 L -0.143433 0.552714 L -0.15155 0.54307 L -0.159668 0.533569 L -0.167806 0.524211 L -0.175964 0.515015 L -0.184123 0.505961 L -0.192322 0.497091 L -0.200521 0.488363 L -0.208761 0.479818 L -0.217021 0.471415 L -0.225281 0.463175 L -0.233582 0.455078 L -0.241903 0.447144 L -0.250244 0.439351 L -0.258606 0.431702 L -0.267008 0.424174 L -0.275431 0.416789 L -0.283915 0.409505 L -0.29244 0.402344 L -0.301025 0.395264 L -0.309672 0.388306 L -0.31838 0.381429 L -0.327169 0.374634 L -0.33606 0.36792 L -0.345032 0.361267 L -0.354126 0.354696 L -0.363322 0.348185 L -0.37266 0.341715 L -0.3821 0.335327 L -0.391703 0.328979 L -0.401428 0.322693 L -0.411296 0.316467 L -0.421326 0.310303 L -0.431498 0.304179 L -0.441833 0.298116 L -0.452311 0.292094 L -0.462952 0.286153 L -0.473735 0.280233 L -0.48466 0.274394 L -0.495728 0.268595 L -0.506938 0.262838 L -0.51829 0.257121 L -0.526001 0.253296 " transform="matrix(0.000000000000011757, -192, 192, 0.000000000000011757, 384, 384)"/>
<path fill="none" stroke-width="0.08" stroke-linecap="round" stroke-linejoin="miter" stroke="rgb(100%, 100%, 100%)" stroke-opacity="1" stroke-miterlimit="10" d="M -0.526001 0.253296 L -0.529785 0.251424 L -0.541423 0.245768 L -0.553162 0.240133 L -0.565043 0.234497 L -0.577047 0.228861 L -0.589152 0.223226 L -0.6014 0.21755 L -0.613729 0.211853 L -0.62618 0.206095 L -0.638733 0.200277 L -0.651388 0.194377 L -0.664144 0.188395 L -0.676961 0.182312 L -0.68986 0.176107 L -0.70284 0.169779 L -0.715861 0.163289 L -0.728923 0.156657 L -0.742025 0.149862 L -0.755147 0.142883 L -0.76827 0.135701 L -0.781372 0.128316 L -0.794454 0.120748 L -0.807475 0.112935 L -0.820414 0.104919 L -0.833272 0.0966593 L -0.842285 0.0906576 " transform="matrix(0.000000000000011757, -192, 192, 0.000000000000011757, 384, 384)"/>
<path fill="none" stroke-width="0.08" stroke-linecap="round" stroke-linejoin="miter" stroke="rgb(100%, 100%, 100%)" stroke-opacity="1" stroke-miterlimit="10" d="M -0.842285 0.0906576 L -0.846029 0.0881755 L -0.858643 0.0794474 L -0.871094 0.0704753 L -0.883382 0.0612793 L -0.895467 0.0518188 L -0.907328 0.0421549 L -0.918925 0.0322469 L -0.930278 0.0220947 L -0.941345 0.0117391 L -0.952108 0.00115967 L -0.953227 0 " transform="matrix(0.000000000000011757, -192, 192, 0.000000000000011757, 384, 384)"/>
<path fill="none" stroke-width="0.08" stroke-linecap="round" stroke-linejoin="miter" stroke="rgb(100%, 100%, 100%)" stroke-opacity="1" stroke-miterlimit="10" d="M -1.091532 -0.330119 L -1.091329 -0.33608 L -1.090474 -0.349426 L -1.089193 -0.362752 L -1.087504 -0.376058 L -1.085388 -0.389323 L -1.082845 -0.402527 L -1.079895 -0.41567 L -1.076538 -0.428752 L -1.072795 -0.441732 L -1.068624 -0.45459 L -1.064067 -0.467346 L -1.059123 -0.47996 L -1.053813 -0.492432 L -1.048116 -0.50474 L -1.042033 -0.516866 L -1.035604 -0.528809 L -1.028829 -0.540548 L -1.021688 -0.552043 L -1.014221 -0.563334 L -1.006429 -0.574361 L -0.998291 -0.585124 L -0.989848 -0.595622 L -0.981099 -0.605855 L -0.972066 -0.615784 L -0.962728 -0.625407 L -0.953105 -0.634705 L -0.943197 -0.643697 L -0.93866 -0.647563 " transform="matrix(0.000000000000011757, -192, 192, 0.000000000000011757, 384, 384)"/>
<path fill="none" stroke-width="0.08" stroke-linecap="round" stroke-linejoin="miter" stroke="rgb(100%, 100%, 100%)" stroke-opacity="1" stroke-miterlimit="10" d="M -0.93866 -0.647563 L -0.933024 -0.652364 L -0.922587 -0.660685 L -0.911906 -0.66866 L -0.90096 -0.67629 L -0.889771 -0.683573 L -0.878337 -0.69047 L -0.866659 -0.697021 L -0.854757 -0.703206 L -0.842631 -0.709005 L -0.830282 -0.714417 L -0.817708 -0.719442 L -0.804932 -0.72408 L -0.791931 -0.728333 L -0.778727 -0.732178 L -0.76534 -0.735616 L -0.75175 -0.738668 L -0.737996 -0.741292 L -0.72406 -0.74353 L -0.709941 -0.745341 L -0.695699 -0.746745 L -0.681295 -0.747721 L -0.666768 -0.748311 L -0.65214 -0.748474 L -0.63739 -0.74823 L -0.622579 -0.747579 L -0.607686 -0.746541 L -0.59432 -0.74526 " transform="matrix(0.000000000000011757, -192, 192, 0.000000000000011757, 384, 384)"/>
<path fill="none" stroke-width="0.08" stroke-linecap="round" stroke-linejoin="miter" stroke="rgb(100%, 100%, 100%)" stroke-opacity="1" stroke-miterlimit="10" d="M -0.59432 -0.74526 L -0.592733 -0.745117 L -0.577738 -0.743286 L -0.562744 -0.741109 L -0.54775 -0.738546 L -0.532756 -0.735657 L -0.517782 -0.732422 L -0.502869 -0.728861 L -0.488017 -0.724996 L -0.473246 -0.720846 L -0.458557 -0.716431 L -0.454285 -0.715047 " transform="matrix(0.000000000000011757, -192, 192, 0.000000000000011757, 384, 384)"/>
<path fill="none" stroke-width="0.08" stroke-linecap="round" stroke-linejoin="miter" stroke="rgb(100%, 100%, 100%)" stroke-opacity="1" stroke-miterlimit="10" d="M -0.129903 -0.569173 L -0.122131 -0.565531 L -0.110596 -0.560221 L -0.0991007 -0.555033 L -0.0876465 -0.549988 L -0.0762533 -0.545105 L -0.0649211 -0.540344 L -0.0536296 -0.535746 L -0.0423991 -0.531311 L -0.0312297 -0.527018 L -0.0201009 -0.522868 L -0.00901286 -0.51888 L 0.00201416 -0.515055 L 0.0130005 -0.511353 L 0.0239258 -0.507812 L 0.0348307 -0.504415 L 0.045695 -0.501139 L 0.0565186 -0.498006 L 0.0673218 -0.495015 L 0.078125 -0.492126 L 0.0889079 -0.48938 L 0.0997111 -0.486735 L 0.110514 -0.484212 L 0.121358 -0.481791 L 0.132222 -0.479492 L 0.143148 -0.477295 L 0.154114 -0.475199 L 0.165161 -0.473226 L 0.17627 -0.471334 L 0.18748 -0.469564 L 0.198771 -0.467916 L 0.210164 -0.466349 L 0.221659 -0.464925 L 0.233256 -0.463582 L 0.244975 -0.462382 L 0.256795 -0.461283 L 0.268738 -0.460286 L 0.280782 -0.459432 L 0.292948 -0.458679 L 0.305216 -0.458028 L 0.317607 -0.457499 L 0.330098 -0.457072 L 0.342712 -0.456767 L 0.355408 -0.456523 L 0.363993 -0.456441 " transform="matrix(0.000000000000011757, -192, 192, 0.000000000000011757, 384, 384)"/>
<path fill="none" stroke-width="0.08" stroke-linecap="round" stroke-linejoin="miter" stroke="rgb(100%, 100%, 100%)" stroke-opacity="1" stroke-miterlimit="10" d="M 0.363993 -0.456441 L 0.368225 -0.456401 L 0.381165 -0.45634 L 0.394206 -0.45636 L 0.407349 -0.456441 L 0.420593 -0.456563 L 0.43396 -0.456746 L 0.447449 -0.45695 L 0.461039 -0.457153 L 0.474752 -0.457377 L 0.488586 -0.457581 L 0.502543 -0.457764 L 0.516622 -0.457906 L 0.530823 -0.457987 L 0.545125 -0.457987 L 0.55957 -0.457906 L 0.574117 -0.457723 L 0.588765 -0.457418 L 0.603516 -0.45697 L 0.618368 -0.45636 L 0.633301 -0.455607 L 0.648315 -0.454631 L 0.663391 -0.453471 L 0.678507 -0.452108 L 0.693644 -0.45048 L 0.708822 -0.448629 L 0.719543 -0.447144 " transform="matrix(0.000000000000011757, -192, 192, 0.000000000000011757, 384, 384)"/>
<path fill="none" stroke-width="0.08" stroke-linecap="round" stroke-linejoin="miter" stroke="rgb(100%, 100%, 100%)" stroke-opacity="1" stroke-miterlimit="10" d="M 0.719543 -0.447144 L 0.723999 -0.446513 L 0.739136 -0.444132 L 0.754252 -0.441447 L 0.769307 -0.438497 L 0.784302 -0.435221 L 0.799174 -0.431641 L 0.813944 -0.427755 L 0.828573 -0.423543 L 0.843038 -0.419006 L 0.85732 -0.414144 L 0.858826 -0.413595 " transform="matrix(0.000000000000011757, -192, 192, 0.000000000000011757, 384, 384)"/>
<path fill="none" stroke-width="0.08" stroke-linecap="round" stroke-linejoin="miter" stroke="rgb(100%, 100%, 100%)" stroke-opacity="1" stroke-miterlimit="10" d="M 1.227376 -0.591064 L 1.242655 -0.578186 L 1.260946 -0.561727 L 1.278727 -0.544678 L 1.295919 -0.527079 L 1.31252 -0.508931 L 1.328532 -0.490275 L 1.343892 -0.47113 L 1.358602 -0.451518 L 1.37264 -0.431458 L 1.386007 -0.41099 L 1.398661 -0.390137 L 1.410624 -0.368917 L 1.421855 -0.347371 L 1.432393 -0.3255 L 1.442179 -0.303345 L 1.451253 -0.280945 L 1.459595 -0.258321 L 1.467224 -0.235453 L 1.474101 -0.212423 L 1.480245 -0.189229 L 1.485677 -0.165873 L 1.490377 -0.142415 L 1.494344 -0.118835 L 1.497579 -0.0951742 L 1.500102 -0.0714315 L 1.501912 -0.0476481 L 1.502991 -0.0238241 L 1.503357 0 L 1.502991 0.0238241 L 1.501912 0.0476481 L 1.500102 0.0714315 L 1.497579 0.0951742 L 1.494344 0.118835 L 1.490377 0.142415 L 1.485677 0.165873 L 1.480245 0.189229 L 1.474101 0.212423 L 1.467224 0.235453 L 1.459595 0.258321 L 1.451253 0.280945 L 1.442179 0.303345 L 1.432393 0.3255 L 1.421855 0.347371 L 1.410624 0.368917 L 1.398661 0.390137 L 1.386007 0.41099 L 1.37264 0.431458 L 1.358602 0.451518 L 1.343892 0.47113 L 1.328532 0.490275 L 1.31252 0.508931 L 1.295919 0.527079 L 1.278727 0.544678 L 1.260946 0.561727 L 1.242655 0.578186 L 1.227376 0.591064 " transform="matrix(0.000000000000011757, -192, 192, 0.000000000000011757, 384, 384)"/>
<path fill="none" stroke-width="0.08" stroke-linecap="round" stroke-linejoin="miter" stroke="rgb(100%, 100%, 100%)" stroke-opacity="1" stroke-miterlimit="10" d="M 1.227376 0.591064 L 1.223836 0.594055 L 1.204549 0.609314 L 1.184814 0.623942 L 1.164673 0.637939 L 1.144165 0.651286 L 1.123291 0.663981 L 1.102132 0.676025 L 1.080709 0.687398 L 1.059062 0.69814 L 1.037211 0.708211 L 1.015218 0.717651 L 0.993103 0.726461 L 0.970927 0.734619 L 0.94871 0.742188 L 0.926514 0.749166 L 0.904317 0.755554 L 0.882222 0.761373 L 0.860229 0.766663 L 0.84021 0.771016 " transform="matrix(0.000000000000011757, -192, 192, 0.000000000000011757, 384, 384)"/>
<path fill="none" stroke-width="0.08" stroke-linecap="round" stroke-linejoin="miter" stroke="rgb(100%, 100%, 100%)" stroke-opacity="1" stroke-miterlimit="10" d="M 0.84021 0.771016 L 0.838379 0.771423 L 0.816691 0.775696 L 0.795207 0.77948 L 0.773966 0.782837 L 0.752991 0.785767 L 0.7323 0.788289 L 0.711934 0.790466 L 0.691895 0.792297 L 0.672201 0.793803 L 0.652913 0.795044 L 0.634766 0.79598 " transform="matrix(0.000000000000011757, -192, 192, 0.000000000000011757, 384, 384)"/>
<path fill="none" stroke-width="0.08" stroke-linecap="round" stroke-linejoin="miter" stroke="rgb(100%, 100%, 100%)" stroke-opacity="1" stroke-miterlimit="10" d="M 0.275818 0.801005 L 0.270121 0.801595 L 0.262146 0.802511 L 0.254272 0.803487 L 0.24648 0.804545 L 0.23877 0.805684 L 0.23114 0.806885 L 0.223551 0.808167 L 0.216003 0.80953 L 0.208516 0.810954 L 0.201029 0.812459 L 0.193604 0.814046 L 0.186178 0.815694 L 0.178772 0.817424 L 0.171387 0.819234 L 0.164001 0.821106 L 0.156616 0.823079 L 0.149251 0.825134 L 0.141846 0.827271 L 0.13444 0.829488 L 0.127014 0.831828 L 0.119527 0.834249 L 0.11202 0.836772 L 0.104431 0.839417 L 0.0990397 0.841349 " transform="matrix(0.000000000000011757, -192, 192, 0.000000000000011757, 384, 384)"/>
<path fill="none" stroke-width="0.08" stroke-linecap="round" stroke-linejoin="miter" stroke="rgb(100%, 100%, 100%)" stroke-opacity="1" stroke-miterlimit="10" d="M 0.0990397 0.841349 L 0.0967611 0.842163 L 0.0889893 0.845052 L 0.0811157 0.848083 L 0.0730998 0.851257 L 0.0649211 0.854594 L 0.0565796 0.858073 L 0.0480347 0.861755 L 0.0392863 0.865601 L 0.0302938 0.86967 L 0.0210368 0.873922 L 0.011495 0.878398 L 0.00164795 0.883077 L -0.00850423 0.88798 L -0.0189819 0.893107 L -0.0298258 0.898478 L -0.0410563 0.904053 L -0.052653 0.909851 L -0.0646566 0.915873 L -0.0770671 0.922099 L -0.0899048 0.928507 L -0.10317 0.93512 L -0.116882 0.941895 L -0.131063 0.948812 L -0.145691 0.955851 L -0.160767 0.963033 L -0.176331 0.970276 L -0.192362 0.97758 L -0.208862 0.984924 L -0.22585 0.992269 L -0.226542 0.992574 " transform="matrix(0.000000000000011757, -192, 192, 0.000000000000011757, 384, 384)"/>
<path fill="none" stroke-width="0.08" stroke-linecap="round" stroke-linejoin="miter" stroke="rgb(100%, 100%, 100%)" stroke-opacity="1" stroke-miterlimit="10" d="M -0.226542 0.992574 L -0.243306 0.999593 L -0.26123 1.006856 L -0.279602 1.014018 L -0.298462 1.021077 L -0.317749 1.027954 L -0.337484 1.034648 L -0.357666 1.041117 L -0.378255 1.047323 L -0.399251 1.053223 L -0.420634 1.058777 L -0.422465 1.059224 " transform="matrix(0.000000000000011757, -192, 192, 0.000000000000011757, 384, 384)"/>
<path fill="none" stroke-width="0.08" stroke-linecap="round" stroke-linejoin="miter" stroke="rgb(100%, 100%, 100%)" stroke-opacity="1" stroke-miterlimit="10" d="M -0.849365 1.065084 L -0.868734 1.060099 L -0.892354 1.053202 L -0.915751 1.045553 L -0.938883 1.03715 L -0.961731 1.028015 L -0.984233 1.018148 L -1.006388 1.007568 L -1.028158 0.996277 L -1.0495 0.984294 L -1.070414 0.971659 L -1.090881 0.958354 L -1.11086 0.944438 L -1.13033 0.929891 L -1.149312 0.914754 L -1.167745 0.899048 L -1.185649 0.882812 L -1.202983 0.866028 L -1.219747 0.848755 L -1.235942 0.830973 L -1.251567 0.812744 L -1.266581 0.794067 L -1.280986 0.774943 L -1.2948 0.755432 L -1.307983 0.735514 L -1.320557 0.71523 L -1.332499 0.69458 L -1.343811 0.673604 L -1.354472 0.652283 L -1.364482 0.630656 L -1.373861 0.608724 L -1.382548 0.586507 L -1.390564 0.564046 L -1.397909 0.5413 L -1.404561 0.518351 L -1.410522 0.495158 L -1.415771 0.471781 L -1.420288 0.448201 L -1.424072 0.424459 L -1.427144 0.400574 L -1.429443 0.376546 L -1.43099 0.352437 L -1.431763 0.328227 L -1.431763 0.303955 L -1.43099 0.279663 L -1.429423 0.255351 L -1.427063 0.231059 L -1.42391 0.206828 L -1.419963 0.182678 L -1.415222 0.15861 L -1.409688 0.134705 L -1.403361 0.110942 L -1.396281 0.0874023 L -1.388407 0.0640666 L -1.379801 0.0410156 L -1.370463 0.0182495 L -1.362284 0 " transform="matrix(0.000000000000011757, -192, 192, 0.000000000000011757, 384, 384)"/>
<path fill="none" stroke-width="0.08" stroke-linecap="round" stroke-linejoin="miter" stroke="rgb(100%, 100%, 100%)" stroke-opacity="1" stroke-miterlimit="10" d="M -1.362284 0 L -1.360392 -0.00421143 L -1.34963 -0.0263265 L -1.338196 -0.0480754 L -1.326131 -0.0694173 L -1.313436 -0.0903524 L -1.300151 -0.11084 L -1.286296 -0.13088 L -1.271932 -0.150431 L -1.25708 -0.169495 L -1.241781 -0.188049 L -1.226054 -0.206095 L -1.209961 -0.223612 L -1.193522 -0.240601 L -1.176799 -0.25706 L -1.15979 -0.27297 L -1.142598 -0.28835 L -1.125203 -0.303182 L -1.107666 -0.317485 L -1.091532 -0.330119 " transform="matrix(0.000000000000011757, -192, 192, 0.000000000000011757, 384, 384)"/>
<path fill="none" stroke-width="0.08" stroke-linecap="round" stroke-linejoin="miter" stroke="rgb(100%, 100%, 100%)" stroke-opacity="1" stroke-miterlimit="10" d="M -1.091532 -0.330119 L -1.090047 -0.331278 L -1.072367 -0.344523 L -1.054667 -0.357259 L -1.036987 -0.369486 L -1.019348 -0.381246 L -1.001811 -0.392497 L -0.984395 -0.40328 L -0.967122 -0.413635 L -0.950053 -0.423543 L -0.933207 -0.433024 L -0.917277 -0.441732 " transform="matrix(0.000000000000011757, -192, 192, 0.000000000000011757, 384, 384)"/>
<path fill="none" stroke-width="0.08" stroke-linecap="round" stroke-linejoin="miter" stroke="rgb(100%, 100%, 100%)" stroke-opacity="1" stroke-miterlimit="10" d="M -0.596029 -0.60201 L -0.591166 -0.605001 L -0.584371 -0.609294 L -0.577698 -0.613607 L -0.571147 -0.61794 L -0.564697 -0.622294 L -0.55835 -0.626709 L -0.552063 -0.631144 L -0.545858 -0.63564 L -0.539714 -0.640177 L -0.533651 -0.644775 L -0.527629 -0.649434 L -0.521647 -0.654134 L -0.515727 -0.658895 L -0.509867 -0.663737 L -0.504028 -0.66864 L -0.49823 -0.673604 L -0.492472 -0.67867 L -0.486735 -0.683797 L -0.481038 -0.689026 L -0.475342 -0.694336 L -0.469666 -0.699768 L -0.463969 -0.705302 L -0.458293 -0.710978 L -0.454285 -0.715047 " transform="matrix(0.000000000000011757, -192, 192, 0.000000000000011757, 384, 384)"/>
<path fill="none" stroke-width="0.08" stroke-linecap="round" stroke-linejoin="miter" stroke="rgb(100%, 100%, 100%)" stroke-opacity="1" stroke-miterlimit="10" d="M -0.454285 -0.715047 L -0.452576 -0.716797 L -0.446838 -0.722758 L -0.44104 -0.728902 L -0.435201 -0.73525 L -0.429281 -0.741781 L -0.423279 -0.748556 L -0.417175 -0.755575 L -0.41097 -0.762838 L -0.404622 -0.770406 L -0.398132 -0.778259 L -0.391479 -0.786418 L -0.384644 -0.794902 L -0.377625 -0.803731 L -0.370402 -0.812907 L -0.362956 -0.822428 L -0.355265 -0.832336 L -0.347331 -0.84259 L -0.339132 -0.85321 L -0.330648 -0.864217 L -0.321859 -0.87557 L -0.312764 -0.887268 L -0.303345 -0.899333 L -0.293599 -0.911702 L -0.283468 -0.924418 L -0.27299 -0.937419 L -0.262105 -0.950704 L -0.250834 -0.964233 L -0.239156 -0.978007 L -0.227051 -0.992004 L -0.226542 -0.992574 " transform="matrix(0.000000000000011757, -192, 192, 0.000000000000011757, 384, 384)"/>
<path fill="none" stroke-width="0.08" stroke-linecap="round" stroke-linejoin="miter" stroke="rgb(100%, 100%, 100%)" stroke-opacity="1" stroke-miterlimit="10" d="M -0.226542 -0.992574 L -0.214498 -1.006165 L -0.201497 -1.020487 L -0.188049 -1.034932 L -0.174133 -1.049459 L -0.159729 -1.064026 L -0.144857 -1.078634 L -0.129476 -1.093201 L -0.113627 -1.107727 L -0.0972697 -1.122152 L -0.0804036 -1.136434 L -0.0789591 -1.137614 " transform="matrix(0.000000000000011757, -192, 192, 0.000000000000011757, 384, 384)"/>
<path fill="none" stroke-width="0.08" stroke-linecap="round" stroke-linejoin="miter" stroke="rgb(100%, 100%, 100%)" stroke-opacity="1" stroke-miterlimit="10" d="M 0.303141 -1.328125 L 0.322734 -1.332031 L 0.347026 -1.33608 L 0.371419 -1.339355 L 0.395915 -1.341817 L 0.420451 -1.343486 L 0.445007 -1.34436 L 0.469543 -1.344442 L 0.494059 -1.343709 L 0.518494 -1.342183 L 0.542826 -1.339864 L 0.567037 -1.336772 L 0.591064 -1.332886 L 0.614929 -1.328227 L 0.63859 -1.322835 L 0.662008 -1.316691 L 0.685181 -1.309814 L 0.708089 -1.302226 L 0.730693 -1.293925 L 0.753011 -1.284953 L 0.774984 -1.275289 L 0.796611 -1.264974 L 0.817891 -1.254008 L 0.838806 -1.242411 L 0.859334 -1.230204 L 0.879456 -1.217367 L 0.89917 -1.203959 L 0.918457 -1.189941 L 0.937317 -1.175374 L 0.955729 -1.160217 L 0.973674 -1.144531 L 0.99115 -1.128296 L 1.008138 -1.111532 L 1.024618 -1.094238 L 1.040568 -1.076436 L 1.05599 -1.058126 L 1.070862 -1.039327 L 1.085164 -1.02006 L 1.098897 -1.000305 L 1.112 -0.980103 L 1.124512 -0.959473 L 1.136353 -0.938416 L 1.147563 -0.916931 L 1.158101 -0.895081 L 1.167928 -0.872843 L 1.177063 -0.85026 L 1.185486 -0.827372 L 1.193156 -0.804159 L 1.200094 -0.78068 L 1.206238 -0.756938 L 1.21165 -0.732992 L 1.216248 -0.708862 L 1.220072 -0.68457 L 1.223124 -0.660136 L 1.225362 -0.63562 L 1.226827 -0.611043 L 1.227376 -0.591064 " transform="matrix(0.000000000000011757, -192, 192, 0.000000000000011757, 384, 384)"/>
<path fill="none" stroke-width="0.08" stroke-linecap="round" stroke-linejoin="miter" stroke="rgb(100%, 100%, 100%)" stroke-opacity="1" stroke-miterlimit="10" d="M 1.227376 -0.591064 L 1.227498 -0.586446 L 1.227397 -0.561869 L 1.226542 -0.537313 L 1.224915 -0.512838 L 1.222555 -0.488464 L 1.219482 -0.464254 L 1.215698 -0.440206 L 1.211243 -0.416341 L 1.206136 -0.392721 L 1.200399 -0.369364 L 1.194051 -0.346273 L 1.187154 -0.323507 L 1.179728 -0.301066 L 1.171794 -0.278992 L 1.163391 -0.257284 L 1.154541 -0.235962 L 1.145325 -0.215047 L 1.135742 -0.19456 L 1.126668 -0.176168 " transform="matrix(0.000000000000011757, -192, 192, 0.000000000000011757, 384, 384)"/>
<path fill="none" stroke-width="0.08" stroke-linecap="round" stroke-linejoin="miter" stroke="rgb(100%, 100%, 100%)" stroke-opacity="1" stroke-miterlimit="10" d="M 1.126668 -0.176168 L 1.125834 -0.1745 L 1.115662 -0.154887 L 1.105225 -0.135722 L 1.094604 -0.117025 L 1.083822 -0.0987956 L 1.072896 -0.0810343 L 1.06189 -0.0637614 L 1.050822 -0.0469564 L 1.039734 -0.0306193 L 1.028666 -0.0147705 L 1.018087 0 " transform="matrix(0.000000000000011757, -192, 192, 0.000000000000011757, 384, 384)"/>
<path fill="none" stroke-width="0.08" stroke-linecap="round" stroke-linejoin="miter" stroke="rgb(100%, 100%, 100%)" stroke-opacity="1" stroke-miterlimit="10" d="M 0.798218 0.283773 L 0.795125 0.288595 L 0.790873 0.29541 L 0.786723 0.302165 L 0.782694 0.308919 L 0.778788 0.315653 L 0.774963 0.322388 L 0.77124 0.329102 L 0.767598 0.335856 L 0.764038 0.342611 L 0.760559 0.349386 L 0.757141 0.356181 L 0.753805 0.363017 L 0.750549 0.369873 L 0.747355 0.37679 L 0.744222 0.383728 L 0.74117 0.390727 L 0.738159 0.397786 L 0.735229 0.404887 L 0.732361 0.412069 L 0.729533 0.419332 L 0.726766 0.426676 L 0.72404 0.434143 L 0.721375 0.441711 L 0.719543 0.447144 " transform="matrix(0.000000000000011757, -192, 192, 0.000000000000011757, 384, 384)"/>
<path fill="none" stroke-width="0.08" stroke-linecap="round" stroke-linejoin="miter" stroke="rgb(100%, 100%, 100%)" stroke-opacity="1" stroke-miterlimit="10" d="M 0.719543 0.447144 L 0.71875 0.449443 L 0.716166 0.457316 L 0.713623 0.465352 L 0.711121 0.473612 L 0.708618 0.482056 L 0.706156 0.490763 L 0.703695 0.499736 L 0.701253 0.508993 L 0.698812 0.518555 L 0.69637 0.528442 L 0.693909 0.538676 L 0.691447 0.549296 L 0.688944 0.560282 L 0.686422 0.571696 L 0.683858 0.583516 L 0.681213 0.595764 L 0.678528 0.608439 L 0.675741 0.621582 L 0.672872 0.635173 L 0.669881 0.649211 L 0.666768 0.663696 L 0.663513 0.67865 L 0.660095 0.694031 L 0.656494 0.70988 L 0.65269 0.726135 L 0.648641 0.742818 L 0.644368 0.759908 L 0.639811 0.777384 L 0.634969 0.795247 L 0.634766 0.79598 " transform="matrix(0.000000000000011757, -192, 192, 0.000000000000011757, 384, 384)"/>
<path fill="none" stroke-width="0.08" stroke-linecap="round" stroke-linejoin="miter" stroke="rgb(100%, 100%, 100%)" stroke-opacity="1" stroke-miterlimit="10" d="M 0.634766 0.79598 L 0.629822 0.813456 L 0.624329 0.831991 L 0.618469 0.85085 L 0.612223 0.869975 L 0.60557 0.889343 L 0.598511 0.908956 L 0.590983 0.928752 L 0.582987 0.94873 L 0.574504 0.968811 L 0.565531 0.989014 L 0.564718 0.990702 " transform="matrix(0.000000000000011757, -192, 192, 0.000000000000011757, 384, 384)"/>
<path fill="none" stroke-width="0.08" stroke-linecap="round" stroke-linejoin="miter" stroke="rgb(100%, 100%, 100%)" stroke-opacity="1" stroke-miterlimit="10" d="M 0.303141 1.328125 L 0.28717 1.340149 L 0.267049 1.354329 L 0.24648 1.367859 L 0.225484 1.380717 L 0.204122 1.392863 L 0.182373 1.404317 L 0.160278 1.415039 L 0.137878 1.425008 L 0.115214 1.434224 L 0.0922852 1.442708 L 0.0691325 1.450399 L 0.0457764 1.457336 L 0.0222575 1.463501 L -0.00140381 1.468913 L -0.0251668 1.473531 L -0.0490316 1.477397 L -0.0729574 1.480489 L -0.0969238 1.482829 L -0.120911 1.484416 L -0.144897 1.48525 L -0.168884 1.485331 L -0.19281 1.484701 L -0.216675 1.483317 L -0.240458 1.481222 L -0.26416 1.478394 L -0.28776 1.474854 L -0.311218 1.470622 L -0.334534 1.465658 L -0.357686 1.460002 L -0.380656 1.453654 L -0.403442 1.446615 L -0.426025 1.438863 L -0.448364 1.43044 L -0.470479 1.421326 L -0.49231 1.411519 L -0.513875 1.401042 L -0.535116 1.389872 L -0.556051 1.378031 L -0.576619 1.365519 L -0.596842 1.352356 L -0.616659 1.338521 L -0.636068 1.324036 L -0.65505 1.308919 L -0.673564 1.293152 L -0.691589 1.276774 L -0.709106 1.259786 L -0.726095 1.242208 L -0.742513 1.22406 L -0.758362 1.205363 L -0.773621 1.186117 L -0.788249 1.166382 L -0.802226 1.146139 L -0.815572 1.125448 L -0.828227 1.10435 L -0.84021 1.082845 L -0.849365 1.065084 " transform="matrix(0.000000000000011757, -192, 192, 0.000000000000011757, 384, 384)"/>
<path fill="none" stroke-width="0.08" stroke-linecap="round" stroke-linejoin="miter" stroke="rgb(100%, 100%, 100%)" stroke-opacity="1" stroke-miterlimit="10" d="M -0.849365 1.065084 L -0.851481 1.060974 L -0.862061 1.038778 L -0.871948 1.016276 L -0.881104 0.99353 L -0.889547 0.97054 L -0.897278 0.947388 L -0.904317 0.924072 L -0.910645 0.900655 L -0.9163 0.877157 L -0.921265 0.853617 L -0.925557 0.830078 L -0.92922 0.806559 L -0.932271 0.783122 L -0.934692 0.759786 L -0.936544 0.736572 L -0.937826 0.713521 L -0.938599 0.690674 L -0.938843 0.66807 L -0.93866 0.647563 " transform="matrix(0.000000000000011757, -192, 192, 0.000000000000011757, 384, 384)"/>
<path fill="none" stroke-width="0.08" stroke-linecap="round" stroke-linejoin="miter" stroke="rgb(100%, 100%, 100%)" stroke-opacity="1" stroke-miterlimit="10" d="M -0.93866 0.647563 L -0.938639 0.645691 L -0.937968 0.623596 L -0.93689 0.601827 L -0.935425 0.580363 L -0.933614 0.559265 L -0.931478 0.538534 L -0.929057 0.518188 L -0.926392 0.49823 L -0.923482 0.478719 L -0.92039 0.459635 L -0.917277 0.441732 " transform="matrix(0.000000000000011757, -192, 192, 0.000000000000011757, 384, 384)"/>
<path fill="none" stroke-width="0.08" stroke-linecap="round" stroke-linejoin="miter" stroke="rgb(100%, 100%, 100%)" stroke-opacity="1" stroke-miterlimit="10" d="M -0.842285 0.0906576 L -0.841593 0.0849813 L -0.840719 0.0769857 L -0.839925 0.0690918 L -0.839233 0.0612793 L -0.838623 0.0535075 L -0.838094 0.0457967 L -0.837646 0.0381063 L -0.837301 0.0304565 L -0.837016 0.0228271 L -0.836833 0.0152181 L -0.836711 0.00760905 L -0.83667 0 L -0.836711 -0.00760905 L -0.836833 -0.0152181 L -0.837016 -0.0228271 L -0.837301 -0.0304565 L -0.837646 -0.0381063 L -0.838094 -0.0457967 L -0.838623 -0.0535075 L -0.839233 -0.0612793 L -0.839925 -0.0690918 L -0.840719 -0.0769857 L -0.841593 -0.0849813 L -0.842285 -0.0906576 " transform="matrix(0.000000000000011757, -192, 192, 0.000000000000011757, 384, 384)"/>
<path fill="none" stroke-width="0.08" stroke-linecap="round" stroke-linejoin="miter" stroke="rgb(100%, 100%, 100%)" stroke-opacity="1" stroke-miterlimit="10" d="M -0.842285 -0.0906576 L -0.84259 -0.0930786 L -0.843669 -0.101278 L -0.844869 -0.109639 L -0.846171 -0.118164 L -0.847616 -0.126872 L -0.849162 -0.135783 L -0.85083 -0.144918 L -0.852641 -0.154317 L -0.854594 -0.164001 L -0.856689 -0.173971 L -0.858927 -0.184245 L -0.861308 -0.194885 L -0.863831 -0.205872 L -0.866496 -0.217244 L -0.869303 -0.229024 L -0.872253 -0.241191 L -0.875326 -0.253784 L -0.87852 -0.266825 L -0.881816 -0.280314 L -0.885234 -0.294271 L -0.888713 -0.308675 L -0.892253 -0.323547 L -0.895854 -0.338908 L -0.899475 -0.354736 L -0.903097 -0.371033 L -0.906718 -0.387817 L -0.910278 -0.40507 L -0.913757 -0.422791 L -0.917135 -0.440979 L -0.917277 -0.441732 " transform="matrix(0.000000000000011757, -192, 192, 0.000000000000011757, 384, 384)"/>
<path fill="none" stroke-width="0.08" stroke-linecap="round" stroke-linejoin="miter" stroke="rgb(100%, 100%, 100%)" stroke-opacity="1" stroke-miterlimit="10" d="M -0.917277 -0.441732 L -0.92039 -0.459635 L -0.923482 -0.478719 L -0.926392 -0.49823 L -0.929057 -0.518188 L -0.931478 -0.538534 L -0.933614 -0.559265 L -0.935425 -0.580363 L -0.93689 -0.601827 L -0.937968 -0.623596 L -0.938639 -0.645691 L -0.93866 -0.647563 " transform="matrix(0.000000000000011757, -192, 192, 0.000000000000011757, 384, 384)"/>
<path fill="none" stroke-width="0.08" stroke-linecap="round" stroke-linejoin="miter" stroke="rgb(100%, 100%, 100%)" stroke-opacity="1" stroke-miterlimit="10" d="M -0.849365 -1.065084 L -0.84021 -1.082845 L -0.828227 -1.10435 L -0.815572 -1.125448 L -0.802226 -1.146139 L -0.788249 -1.166382 L -0.773621 -1.186117 L -0.758362 -1.205363 L -0.742513 -1.22406 L -0.726095 -1.242208 L -0.709106 -1.259786 L -0.691589 -1.276774 L -0.673564 -1.293152 L -0.65505 -1.308919 L -0.636068 -1.324036 L -0.616659 -1.338521 L -0.596842 -1.352356 L -0.576619 -1.365519 L -0.556051 -1.378031 L -0.535116 -1.389872 L -0.513875 -1.401042 L -0.49231 -1.411519 L -0.470479 -1.421326 L -0.448364 -1.43044 L -0.426025 -1.438863 L -0.403442 -1.446615 L -0.380656 -1.453654 L -0.357686 -1.460002 L -0.334534 -1.465658 L -0.311218 -1.470622 L -0.28776 -1.474854 L -0.26416 -1.478394 L -0.240458 -1.481222 L -0.216675 -1.483317 L -0.19281 -1.484701 L -0.168884 -1.485331 L -0.144897 -1.48525 L -0.120911 -1.484416 L -0.0969238 -1.482829 L -0.0729574 -1.480489 L -0.0490316 -1.477397 L -0.0251668 -1.473531 L -0.00140381 -1.468913 L 0.0222575 -1.463501 L 0.0457764 -1.457336 L 0.0691325 -1.450399 L 0.0922852 -1.442708 L 0.115214 -1.434224 L 0.137878 -1.425008 L 0.160278 -1.415039 L 0.182373 -1.404317 L 0.204122 -1.392863 L 0.225484 -1.380717 L 0.24648 -1.367859 L 0.267049 -1.354329 L 0.28717 -1.340149 L 0.303141 -1.328125 " transform="matrix(0.000000000000011757, -192, 192, 0.000000000000011757, 384, 384)"/>
<path fill="none" stroke-width="0.08" stroke-linecap="round" stroke-linejoin="miter" stroke="rgb(100%, 100%, 100%)" stroke-opacity="1" stroke-miterlimit="10" d="M 0.303141 -1.328125 L 0.306824 -1.325358 L 0.325989 -1.309937 L 0.344645 -1.293966 L 0.362773 -1.277425 L 0.380351 -1.260396 L 0.397359 -1.242879 L 0.413818 -1.224935 L 0.429687 -1.206584 L 0.444967 -1.187846 L 0.459656 -1.168803 L 0.473755 -1.149455 L 0.487244 -1.129862 L 0.500163 -1.110067 L 0.512472 -1.090088 L 0.524211 -1.069987 L 0.53538 -1.049784 L 0.545959 -1.029521 L 0.55601 -1.009257 L 0.564718 -0.990702 " transform="matrix(0.000000000000011757, -192, 192, 0.000000000000011757, 384, 384)"/>
<path fill="none" stroke-width="0.08" stroke-linecap="round" stroke-linejoin="miter" stroke="rgb(100%, 100%, 100%)" stroke-opacity="1" stroke-miterlimit="10" d="M 0.564718 -0.990702 L 0.565531 -0.989014 L 0.574504 -0.968811 L 0.582987 -0.94873 L 0.590983 -0.928752 L 0.598511 -0.908956 L 0.60557 -0.889343 L 0.612223 -0.869975 L 0.618469 -0.85085 L 0.624329 -0.831991 L 0.629822 -0.813456 L 0.634766 -0.79598 " transform="matrix(0.000000000000011757, -192, 192, 0.000000000000011757, 384, 384)"/>
<path fill="none" stroke-width="0.08" stroke-linecap="round" stroke-linejoin="miter" stroke="rgb(100%, 100%, 100%)" stroke-opacity="1" stroke-miterlimit="10" d="M 0.719543 -0.447144 L 0.721375 -0.441711 L 0.72404 -0.434143 L 0.726766 -0.426676 L 0.729533 -0.419332 L 0.732361 -0.412069 L 0.735229 -0.404887 L 0.738159 -0.397786 L 0.74117 -0.390727 L 0.744222 -0.383728 L 0.747355 -0.37679 L 0.750549 -0.369873 L 0.753805 -0.363017 L 0.757141 -0.356181 L 0.760559 -0.349386 L 0.764038 -0.342611 L 0.767598 -0.335856 L 0.77124 -0.329102 L 0.774963 -0.322388 L 0.778788 -0.315653 L 0.782694 -0.308919 L 0.786723 -0.302165 L 0.790873 -0.29541 L 0.795125 -0.288595 L 0.798218 -0.283773 " transform="matrix(0.000000000000011757, -192, 192, 0.000000000000011757, 384, 384)"/>
<path fill="none" stroke-width="0.08" stroke-linecap="round" stroke-linejoin="miter" stroke="rgb(100%, 100%, 100%)" stroke-opacity="1" stroke-miterlimit="10" d="M 0.798218 -0.283773 L 0.79952 -0.281718 L 0.804077 -0.274801 L 0.808777 -0.267782 L 0.813639 -0.260681 L 0.818705 -0.253459 L 0.823975 -0.246094 L 0.829447 -0.238586 L 0.835164 -0.230916 L 0.841125 -0.223043 L 0.847331 -0.214966 L 0.8538 -0.206665 L 0.860555 -0.19812 L 0.867615 -0.189311 L 0.874939 -0.180216 L 0.882589 -0.170837 L 0.890523 -0.161153 L 0.898763 -0.151123 L 0.907288 -0.140767 L 0.916117 -0.130046 L 0.925232 -0.118958 L 0.934631 -0.107503 L 0.944275 -0.0956217 L 0.954183 -0.0833537 L 0.964315 -0.0706584 L 0.97465 -0.0575562 L 0.985189 -0.043986 L 0.99587 -0.0299886 L 1.006714 -0.0155233 L 1.01766 -0.000610352 L 1.018087 0 " transform="matrix(0.000000000000011757, -192, 192, 0.000000000000011757, 384, 384)"/>
<path fill="none" stroke-width="0.08" stroke-linecap="round" stroke-linejoin="miter" stroke="rgb(100%, 100%, 100%)" stroke-opacity="1" stroke-miterlimit="10" d="M 1.018087 0 L 1.028666 0.0147705 L 1.039734 0.0306193 L 1.050822 0.0469564 L 1.06189 0.0637614 L 1.072896 0.0810343 L 1.083822 0.0987956 L 1.094604 0.117025 L 1.105225 0.135722 L 1.115662 0.154887 L 1.125834 0.1745 L 1.126668 0.176168 " transform="matrix(0.000000000000011757, -192, 192, 0.000000000000011757, 384, 384)"/>
<path fill="none" stroke-width="0.08" stroke-linecap="round" stroke-linejoin="miter" stroke="rgb(100%, 100%, 100%)" stroke-opacity="1" stroke-miterlimit="10" d="M 1.227376 0.591064 L 1.226827 0.611043 L 1.225362 0.63562 L 1.223124 0.660136 L 1.220072 0.68457 L 1.216248 0.708862 L 1.21165 0.732992 L 1.206238 0.756938 L 1.200094 0.78068 L 1.193156 0.804159 L 1.185486 0.827372 L 1.177063 0.85026 L 1.167928 0.872843 L 1.158101 0.895081 L 1.147563 0.916931 L 1.136353 0.938416 L 1.124512 0.959473 L 1.112 0.980103 L 1.098897 1.000305 L 1.085164 1.02006 L 1.070862 1.039327 L 1.05599 1.058126 L 1.040568 1.076436 L 1.024618 1.094238 L 1.008138 1.111532 L 0.99115 1.128296 L 0.973674 1.144531 L 0.955729 1.160217 L 0.937317 1.175374 L 0.918457 1.189941 L 0.89917 1.203959 L 0.879456 1.217367 L 0.859334 1.230204 L 0.838806 1.242411 L 0.817891 1.254008 L 0.796611 1.264974 L 0.774984 1.275289 L 0.753011 1.284953 L 0.730693 1.293925 L 0.708089 1.302226 L 0.685181 1.309814 L 0.662008 1.316691 L 0.63859 1.322835 L 0.614929 1.328227 L 0.591064 1.332886 L 0.567037 1.336772 L 0.542826 1.339864 L 0.518494 1.342183 L 0.494059 1.343709 L 0.469543 1.344442 L 0.445007 1.34436 L 0.420451 1.343486 L 0.395915 1.341817 L 0.371419 1.339355 L 0.347026 1.33608 L 0.322734 1.332031 L 0.303141 1.328125 " transform="matrix(0.000000000000011757, -192, 192, 0.000000000000011757, 384, 384)"/>
<path fill="none" stroke-width="0.08" stroke-linecap="round" stroke-linejoin="miter" stroke="rgb(100%, 100%, 100%)" stroke-opacity="1" stroke-miterlimit="10" d="M 0.303141 1.328125 L 0.298604 1.32723 L 0.274658 1.321655 L 0.250916 1.315348 L 0.227417 1.308329 L 0.204183 1.300598 L 0.181254 1.292216 L 0.15863 1.283183 L 0.136373 1.273519 L 0.114482 1.263285 L 0.0929769 1.252482 L 0.0718994 1.24117 L 0.0512288 1.22939 L 0.0310059 1.217143 L 0.0112508 1.204488 L -0.00805664 1.191467 L -0.0268758 1.178101 L -0.0452067 1.164449 L -0.0630493 1.150553 L -0.0789591 1.137614 " transform="matrix(0.000000000000011757, -192, 192, 0.000000000000011757, 384, 384)"/>
<path fill="none" stroke-width="0.08" stroke-linecap="round" stroke-linejoin="miter" stroke="rgb(100%, 100%, 100%)" stroke-opacity="1" stroke-miterlimit="10" d="M -0.0789591 1.137614 L -0.0804036 1.136434 L -0.0972697 1.122152 L -0.113627 1.107727 L -0.129476 1.093201 L -0.144857 1.078634 L -0.159729 1.064026 L -0.174133 1.049459 L -0.188049 1.034932 L -0.201497 1.020487 L -0.214498 1.006165 L -0.226542 0.992574 " transform="matrix(0.000000000000011757, -192, 192, 0.000000000000011757, 384, 384)"/>
<path fill="none" stroke-width="0.08" stroke-linecap="round" stroke-linejoin="miter" stroke="rgb(100%, 100%, 100%)" stroke-opacity="1" stroke-miterlimit="10" d="M -0.454285 0.715047 L -0.458293 0.710978 L -0.463969 0.705302 L -0.469666 0.699768 L -0.475342 0.694336 L -0.481038 0.689026 L -0.486735 0.683797 L -0.492472 0.67867 L -0.49823 0.673604 L -0.504028 0.66864 L -0.509867 0.663737 L -0.515727 0.658895 L -0.521647 0.654134 L -0.527629 0.649434 L -0.533651 0.644775 L -0.539714 0.640177 L -0.545858 0.63564 L -0.552063 0.631144 L -0.55835 0.626709 L -0.564697 0.622294 L -0.571147 0.61794 L -0.577698 0.613607 L -0.584371 0.609294 L -0.591166 0.605001 L -0.596029 0.60201 " transform="matrix(0.000000000000011757, -192, 192, 0.000000000000011757, 384, 384)"/>
<path fill="none" stroke-width="0.08" stroke-linecap="round" stroke-linejoin="miter" stroke="rgb(100%, 100%, 100%)" stroke-opacity="1" stroke-miterlimit="10" d="M -0.596029 0.60201 L -0.598104 0.600728 L -0.605204 0.596456 L -0.612488 0.592183 L -0.619975 0.587891 L -0.627665 0.583577 L -0.6356 0.579244 L -0.643799 0.574849 L -0.652262 0.570414 L -0.661051 0.565898 L -0.670146 0.56132 L -0.679586 0.556661 L -0.689372 0.55188 L -0.699544 0.546997 L -0.710103 0.541992 L -0.721049 0.536865 L -0.732402 0.531576 L -0.744181 0.526123 L -0.756368 0.520487 L -0.768962 0.514669 L -0.782003 0.508626 L -0.795431 0.50236 L -0.809265 0.49587 L -0.823527 0.489115 L -0.838155 0.482076 L -0.85317 0.474731 L -0.86853 0.467102 L -0.884237 0.459106 L -0.900269 0.450785 L -0.916606 0.442098 L -0.917277 0.441732 " transform="matrix(0.000000000000011757, -192, 192, 0.000000000000011757, 384, 384)"/>
<path fill="none" stroke-width="0.08" stroke-linecap="round" stroke-linejoin="miter" stroke="rgb(100%, 100%, 100%)" stroke-opacity="1" stroke-miterlimit="10" d="M -0.917277 0.441732 L -0.933207 0.433024 L -0.950053 0.423543 L -0.967122 0.413635 L -0.984395 0.40328 L -1.001811 0.392497 L -1.019348 0.381246 L -1.036987 0.369486 L -1.054667 0.357259 L -1.072367 0.344523 L -1.090047 0.331278 L -1.091532 0.330119 " transform="matrix(0.000000000000011757, -192, 192, 0.000000000000011757, 384, 384)"/>
<path fill="none" stroke-width="0.08" stroke-linecap="round" stroke-linejoin="miter" stroke="rgb(100%, 100%, 100%)" stroke-opacity="1" stroke-miterlimit="10" d="M -1.362284 0 L -1.370463 -0.0182495 L -1.379801 -0.0410156 L -1.388407 -0.0640666 L -1.396281 -0.0874023 L -1.403361 -0.110942 L -1.409688 -0.134705 L -1.415222 -0.15861 L -1.419963 -0.182678 L -1.42391 -0.206828 L -1.427063 -0.231059 L -1.429423 -0.255351 L -1.43099 -0.279663 L -1.431763 -0.303955 L -1.431763 -0.328227 L -1.43099 -0.352437 L -1.429443 -0.376546 L -1.427144 -0.400574 L -1.424072 -0.424459 L -1.420288 -0.448201 L -1.415771 -0.471781 L -1.410522 -0.495158 L -1.404561 -0.518351 L -1.397909 -0.5413 L -1.390564 -0.564046 L -1.382548 -0.586507 L -1.373861 -0.608724 L -1.364482 -0.630656 L -1.354472 -0.652283 L -1.343811 -0.673604 L -1.332499 -0.69458 L -1.320557 -0.71523 L -1.307983 -0.735514 L -1.2948 -0.755432 L -1.280986 -0.774943 L -1.266581 -0.794067 L -1.251567 -0.812744 L -1.235942 -0.830973 L -1.219747 -0.848755 L -1.202983 -0.866028 L -1.185649 -0.882812 L -1.167745 -0.899048 L -1.149312 -0.914754 L -1.13033 -0.929891 L -1.11086 -0.944438 L -1.090881 -0.958354 L -1.070414 -0.971659 L -1.0495 -0.984294 L -1.028158 -0.996277 L -1.006388 -1.007568 L -0.984233 -1.018148 L -0.961731 -1.028015 L -0.938883 -1.03715 L -0.915751 -1.045553 L -0.892354 -1.053202 L -0.868734 -1.060099 L -0.849365 -1.065084 " transform="matrix(0.000000000000011757, -192, 192, 0.000000000000011757, 384, 384)"/>
<path fill="none" stroke-width="0.08" stroke-linecap="round" stroke-linejoin="miter" stroke="rgb(100%, 100%, 100%)" stroke-opacity="1" stroke-miterlimit="10" d="M -0.849365 -1.065084 L -0.844889 -1.066223 L -0.820903 -1.071594 L -0.796773 -1.076233 L -0.772542 -1.080098 L -0.748271 -1.083211 L -0.723979 -1.085592 L -0.699687 -1.08726 L -0.675435 -1.088236 L -0.651265 -1.088501 L -0.627218 -1.088114 L -0.603312 -1.087077 L -0.579569 -1.085409 L -0.55603 -1.08315 L -0.532735 -1.080322 L -0.509705 -1.076965 L -0.486959 -1.0731 L -0.464518 -1.068746 L -0.442403 -1.063965 L -0.422465 -1.059224 " transform="matrix(0.000000000000011757, -192, 192, 0.000000000000011757, 384, 384)"/>
<path fill="none" stroke-width="0.08" stroke-linecap="round" stroke-linejoin="miter" stroke="rgb(100%, 100%, 100%)" stroke-opacity="1" stroke-miterlimit="10" d="M -0.422465 -1.059224 L -0.420634 -1.058777 L -0.399251 -1.053223 L -0.378255 -1.047323 L -0.357666 -1.041117 L -0.337484 -1.034648 L -0.317749 -1.027954 L -0.298462 -1.021077 L -0.279602 -1.014018 L -0.26123 -1.006856 L -0.243306 -0.999593 L -0.226542 -0.992574 " transform="matrix(0.000000000000011757, -192, 192, 0.000000000000011757, 384, 384)"/>
<path fill="none" stroke-width="0.08" stroke-linecap="round" stroke-linejoin="miter" stroke="rgb(100%, 100%, 100%)" stroke-opacity="1" stroke-miterlimit="10" d="M 0.0990397 -0.841349 L 0.104431 -0.839417 L 0.11202 -0.836772 L 0.119527 -0.834249 L 0.127014 -0.831828 L 0.13444 -0.829488 L 0.141846 -0.827271 L 0.149251 -0.825134 L 0.156616 -0.823079 L 0.164001 -0.821106 L 0.171387 -0.819234 L 0.178772 -0.817424 L 0.186178 -0.815694 L 0.193604 -0.814046 L 0.201029 -0.812459 L 0.208516 -0.810954 L 0.216003 -0.80953 L 0.223551 -0.808167 L 0.23114 -0.806885 L 0.23877 -0.805684 L 0.24648 -0.804545 L 0.254272 -0.803487 L 0.262146 -0.802511 L 0.270121 -0.801595 L 0.275818 -0.801005 " transform="matrix(0.000000000000011757, -192, 192, 0.000000000000011757, 384, 384)"/>
<path fill="none" stroke-width="0.08" stroke-linecap="round" stroke-linejoin="miter" stroke="rgb(100%, 100%, 100%)" stroke-opacity="1" stroke-miterlimit="10" d="M 0.275818 -0.801005 L 0.278239 -0.800741 L 0.286479 -0.799988 L 0.294902 -0.799296 L 0.303487 -0.798665 L 0.312297 -0.798116 L 0.32133 -0.797648 L 0.330627 -0.797262 L 0.34019 -0.796936 L 0.350037 -0.796672 L 0.360229 -0.796509 L 0.370768 -0.796387 L 0.381653 -0.796346 L 0.392944 -0.796366 L 0.404622 -0.796427 L 0.416707 -0.796549 L 0.42924 -0.796712 L 0.4422 -0.796895 L 0.455627 -0.797119 L 0.469523 -0.797343 L 0.483866 -0.797546 L 0.498698 -0.79775 L 0.513977 -0.797892 L 0.529744 -0.797974 L 0.54598 -0.797994 L 0.562683 -0.797892 L 0.579854 -0.797668 L 0.597473 -0.797302 L 0.615519 -0.796753 L 0.634013 -0.796021 L 0.634766 -0.79598 " transform="matrix(0.000000000000011757, -192, 192, 0.000000000000011757, 384, 384)"/>
<path fill="none" stroke-width="0.08" stroke-linecap="round" stroke-linejoin="miter" stroke="rgb(100%, 100%, 100%)" stroke-opacity="1" stroke-miterlimit="10" d="M 0.634766 -0.79598 L 0.652913 -0.795044 L 0.672201 -0.793803 L 0.691895 -0.792297 L 0.711934 -0.790466 L 0.7323 -0.788289 L 0.752991 -0.785767 L 0.773966 -0.782837 L 0.795207 -0.77948 L 0.816691 -0.775696 L 0.838379 -0.771423 L 0.84021 -0.771016 " transform="matrix(0.000000000000011757, -192, 192, 0.000000000000011757, 384, 384)"/>
</svg>
