<?xml version="1.0" encoding="UTF-8" standalone="no"?>
<svg
   width="768"
   height="768"
   viewBox="0 0 768 768"
   version="1.1"
   id="svg84"
   xmlns="http://www.w3.org/2000/svg"
   xmlns:svg="http://www.w3.org/2000/svg">
  <defs
     id="defs84" />
  <path
     id="path85"
     style="fill:#028296;stroke-width:1.00157"
     d="m 383.23828,102.6543 c -30.94403,0.18788 -61.50575,10.55568 -86.22656,30.34765 -3.85,3.08239 -7.15066,6.0336 -7.33399,6.55664 -0.18334,0.52304 1.09682,0.94922 2.84375,0.94922 8.97919,0 34.7052,6.95919 50.11914,13.55664 l 7.9629,3.40821 8.70507,-2.55078 c 10.63395,-3.1162 27.25096,-4.2064 38.13868,-2.50196 23.90163,3.74174 45.19308,16.37914 59.01757,35.02735 7.1812,9.6869 14.65306,25.94293 17.9668,39.08984 1.53698,6.09783 3.19671,11.46391 3.6875,11.92383 0.86222,0.80798 10.11418,3.06327 36.39258,8.87109 l 12.5,2.76172 0.31055,-2.75977 c 0.17102,-1.51809 -0.65961,-8.51262 -1.84571,-15.54296 -9.49084,-56.25511 -41.01395,-98.97364 -87.30664,-118.31641 -17.66195,-7.37981 -36.36522,-10.93304 -54.93164,-10.82031 z m -110.72656,53.38476 c -19.22783,0.0359 -30.66072,2.07837 -48,8.57422 -53.19487,19.9285 -89.98355,72.5544 -89.99805,128.74414 l -0.002,12.34961 7.38281,-6.89648 c 9.44557,-8.82113 22.9875,-18.41441 35.18945,-24.92969 l 9.60352,-5.12695 3.18164,-7.89258 c 6.57475,-16.30621 20.95103,-33.46184 35.73828,-42.64844 28.17959,-17.50661 60.62844,-18.20694 95.92969,-2.07031 l 7.85156,3.58789 3.31055,-2.30078 c 2.59648,-1.80545 32.32347,-25.63006 36.16992,-28.98828 2.4674,-2.15422 -29.97247,-18.95707 -47.85742,-24.78907 -18.20391,-5.936 -29.11796,-7.64938 -48.5,-7.61328 z m 244.8164,1.47656 c -1.31299,-0.005 -0.15593,2.93458 5.26758,13.37891 6.45766,12.43584 15.91602,37.73917 15.91602,42.58203 0,1.28555 2.14454,3.4004 6.25,6.16211 13.96994,9.39747 27.86234,26.76212 33.86523,42.32813 4.41569,11.45027 6.06764,20.46562 6.05274,33.04101 -0.0186,15.72638 -3.20749,28.73588 -10.67383,43.53711 -3.27089,6.48419 -13.67683,21.91224 -16.50391,24.4707 -1.09547,0.99138 -1.99023,2.4645 -1.99023,3.27344 0,0.80894 4.98812,11.6524 11.08594,24.09571 l 11.08789,22.62304 7.49609,-8 c 32.91978,-35.13337 48.33517,-70.35958 48.32617,-110.42578 -0.004,-15.52867 -1.75048,-27.1367 -6.17578,-41.0293 -12.8346,-40.29244 -44.02202,-73.726 -82.57422,-88.52343 -8.8179,-3.38456 -23.83606,-7.49868 -27.42969,-7.51368 z m -99.14062,18.09766 -4.58789,2.61914 c -12.07542,6.89458 -28.76092,18.83357 -48.20508,34.48828 -11.73343,9.44672 -24.94566,19.60417 -29.35937,22.57227 -7.47909,5.02949 -27.07384,15.21484 -29.26954,15.21484 -1.57915,0 -2.23709,9.14548 -2.24609,31.25 -0.005,11.4125 0.13841,20.75 0.31836,20.75 0.17994,0 4.56744,-1.40869 9.75,-3.13086 25.9753,-8.63164 45.20039,-19.58412 71.05273,-40.48047 7.35331,-5.94365 16.9711,-13.70731 21.3711,-17.25195 10.80045,-8.70083 26.87161,-19.23231 37.0332,-24.26758 l 8.35742,-4.14062 -2.85937,-5.66602 c -5.31238,-10.52378 -14.24424,-20.41765 -24.94336,-27.63281 z m -143.6582,45.24024 c -8.23861,-0.13609 -16.35344,1.12227 -24.44727,3.77929 -4.92331,1.61621 -6.72838,2.70412 -7.08203,4.27149 -2.83443,12.5624 -4.45585,41.7937 -3.75,67.60351 0.60062,21.96167 -0.79916,39.36027 -4.37305,54.34571 l -2.58593,10.8457 3.85937,4.01758 c 2.12299,2.20978 10.81561,9.58886 19.31641,16.39843 8.50079,6.80957 15.82674,12.01115 16.27929,11.5586 1.37911,-1.37911 7.75578,-20.04946 10.3418,-30.2793 4.87543,-19.28625 5.68947,-28.72528 5.94531,-68.88672 0.24121,-37.86518 1.03632,-49.31361 4.40039,-63.43359 l 1.77735,-7.46484 -4.69532,-1.00586 c -5.05496,-1.0841 -10.04316,-1.66835 -14.98632,-1.75 z m 163.67578,18.7871 -6.0957,4.08008 c -3.35364,2.24418 -12.55746,9.26047 -20.45118,15.58985 l -14.35156,11.50781 9.85156,6.36133 c 23.90609,15.43874 43.35456,22.93638 80.14844,30.89453 33.64554,7.2772 55.18017,13.8211 67.20508,20.42383 1.925,1.05699 3.95,1.79251 4.5,1.63476 1.57103,-0.45061 6.34417,-12.75689 7.99805,-20.61914 1.55726,-7.40297 1.93801,-18.72447 0.85156,-25.29883 -0.70763,-4.28207 -0.97065,-4.43663 -17.34961,-10.14062 -11.03001,-3.84121 -30.42021,-8.84013 -54.5,-14.05078 -21.44036,-4.6395 -35.33104,-9.1111 -47.91406,-15.42188 z M 221.9668,272.50781 c -1.92078,0 -21.70135,8.12759 -30.49414,12.5293 -57.01644,28.54267 -88.1107,80.28121 -83.83204,139.49023 2.80666,38.83932 22.25776,75.54281 52.8711,99.76954 3.575,2.82917 6.73577,5.15913 7.02539,5.17773 0.28962,0.0186 0.17822,-3.9043 -0.24805,-8.7168 -1.01918,-11.50622 -0.13487,-27.86272 2.32032,-42.91601 l 1.98437,-12.16797 -2.97266,-4.83203 c -11.63207,-18.91074 -15.5909,-47.11475 -9.76367,-69.55664 7.04479,-27.13092 26.30517,-49.07003 55.50586,-63.22657 l 8.14844,-3.95117 v -25.79883 c 0,-14.18988 -0.2459,-25.80078 -0.54492,-25.80078 z m 259.56054,51.3125 c -0.92574,0.0936 -1.01079,1.09526 -0.99804,4.41992 0.023,5.98298 2.37377,22.60542 4.46679,31.58399 4.41359,18.9332 9.21812,31.09728 25.54688,64.68359 12.70277,26.12807 20.97905,47.54239 22.51367,58.25 0.37442,2.6125 1.19331,4.74814 1.81836,4.74414 1.65244,-0.0111 12.47804,-3.48322 17.13672,-5.49609 6.46648,-2.79397 16.63961,-9.88119 21.7168,-15.12695 l 4.71875,-4.87305 -2.33594,-7.5 c -4.39447,-14.10705 -8.8264,-24.5163 -22.20313,-52.14844 -14.02154,-28.96413 -19.11637,-42.22858 -22.10351,-57.55273 l -1.79297,-9.20313 -11,-3.03515 c -6.05,-1.66889 -16.175,-4.17006 -22.5,-5.5586 -6.325,-1.38854 -12.5125,-2.75261 -13.75,-3.03125 -0.52285,-0.11772 -0.92579,-0.18746 -1.23438,-0.15625 z m 160.9668,21.6875 c -0.39333,0 -1.73501,2.8125 -2.98047,6.25 -4.43145,12.23099 -13.68765,29.03588 -22.99805,41.75 l -4.75976,6.5 -0.002,12.5 c -10e-4,7.9546 -0.62116,15.40905 -1.70313,20.5 -7.36563,34.65712 -32.40224,60.56351 -67.03906,69.36524 -8.74305,2.22174 -27.50627,4.40926 -34.26563,3.99414 -3.4299,-0.21064 -4.56395,0.16555 -5.79687,1.92578 -3.64421,5.20285 -21.23481,44.35529 -20.11524,44.77148 0.64766,0.24076 6.35274,0.84187 12.67774,1.33594 38.66714,3.02044 75.30885,-5.42359 103.0332,-23.74414 32.68845,-21.6009 54.67256,-56.43771 60.99219,-96.64844 2.73475,-17.40076 0.70952,-43.53428 -4.72656,-61 -2.67786,-8.60377 -11.14086,-27.5 -12.31641,-27.5 z M 202.875,354.51562 c -0.62499,-0.004 -5.01527,4.06924 -9.75586,9.05079 -6.93938,7.29211 -9.47574,10.84901 -13.01172,18.25 -6.99111,14.63274 -7.36832,12.89908 5.66016,25.91797 10.20035,10.19282 18.72114,17.36553 50.24414,42.29296 12.50545,9.88893 23.37846,20.69629 30.91797,30.73047 3.27314,4.35617 6.56957,7.75 7.52734,7.75 5.25116,0 46.22058,-8.83387 47.66406,-10.27734 0.79151,-0.79151 -2.08509,-6.02428 -9.25195,-16.82813 -11.9701,-18.04459 -27.0237,-34.04802 -46.27539,-49.19726 -30.68109,-24.14307 -36.49297,-29.03111 -46.58203,-39.17383 -6.05,-6.08219 -12.125,-12.73436 -13.5,-14.7832 -1.375,-2.04884 -3.01173,-3.72842 -3.63672,-3.73243 z m 287.58594,66.91993 -5.34571,4.61718 c -6.29408,5.43391 -19.09766,19.93135 -25.89257,29.32032 -7.55504,10.43927 -16.97386,27.24065 -25.02149,44.63476 -14.49263,31.32427 -21.61214,44.12493 -32.47656,58.38086 l -5.625,7.38086 2.95508,2.41406 c 7.52084,6.14367 21.14759,12.4739 31.95703,14.84766 11.52569,2.53105 11.5618,2.51717 17.76562,-6.77344 8.61934,-12.90801 14.97365,-24.70462 26.77149,-49.69531 14.36691,-30.43261 18.77416,-37.75741 33.59961,-55.86133 l 2.70898,-3.30859 -3.32226,-8.19141 c -1.8269,-4.50555 -6.64055,-14.84596 -10.69727,-22.97851 z m -293.76758,20.33203 c -0.19864,-0.0138 -0.32844,0.0377 -0.39258,0.15234 -1.83557,3.27998 -7.09094,21.23683 -9.39062,32.08789 -3.51039,16.56379 -4.36172,41.4013 -1.95508,57 1.94084,12.57955 7.68883,30.83353 13.10742,41.62305 20.46855,40.75709 62.53389,70.17336 108.94922,76.18945 6.64848,0.86174 28.05733,0.62278 34.80859,-0.38867 6.49578,-0.97318 17.05519,-3.27214 20.54297,-4.47266 0.79441,-0.27345 -1.9566,-2.83719 -6.66406,-6.20898 -12.36088,-8.85368 -23.45459,-18.7272 -31.7832,-28.28711 l -7.5879,-8.70898 -7.48242,-1.20703 c -34.92259,-5.63363 -62.54702,-29.74568 -73.02929,-63.74219 -2.53352,-8.21681 -2.71275,-10.0162 -2.71875,-27.29688 -0.005,-15.16872 0.36502,-20.08163 2.05078,-27.28515 l 2.05468,-8.78516 -4.7207,-3.95117 c -2.59629,-2.17374 -11.6351,-9.33161 -20.08789,-15.90625 -9.52796,-7.41091 -14.31072,-10.71622 -15.70117,-10.8125 z m 187.53516,44.74023 c -17.17863,0 -37.19236,2.8504 -59.7168,8.50196 -30.04526,7.5386 -47.50377,10.46707 -64.24024,10.77929 l -11.74023,0.21875 -0.01,5.29297 c -0.022,11.44848 4.48444,26.77077 11.13477,37.85742 l 3.35547,5.59375 10,-0.59961 c 13.23827,-0.79207 29.54867,-3.67829 54.5,-9.64648 31.46156,-7.52539 36.59963,-8.32412 54.22461,-8.41602 l 15.72461,-0.082 4.98242,-9 c 5.8328,-10.53287 18.31927,-36.58112 17.78906,-37.11133 -0.91344,-0.91343 -27.21015,-3.38867 -36.0039,-3.38867 z m -23.41797,67.39063 c -0.21262,-0.0121 -0.42274,0.005 -0.63477,0.0469 -5.50308,1.09754 -47.2064,10.88762 -47.53125,11.15821 -0.60349,0.50268 5.68773,10.27791 13.13086,20.40429 8.84889,12.03894 26.62479,29.62917 38.25391,37.85157 17.03916,12.04759 38.54835,21.04011 58.98242,24.66015 11.46618,2.03131 39.11308,1.27843 50.6289,-1.37891 35.67629,-8.23249 67.06143,-29.19042 86.64649,-57.85937 6.43429,-9.41861 14.95281,-25.87728 13.92578,-26.9043 -0.31592,-0.31592 -3.41604,0.36686 -6.88867,1.51758 -12.63082,4.18545 -37.1917,8.11328 -50.73242,8.11328 -3.95853,0 -5.17445,0.49165 -7.64453,3.08789 -11.17304,11.74371 -31.74173,22.04153 -49.86329,24.96485 -9.4322,1.52158 -28.80268,0.70169 -37.07226,-1.57032 -8.00509,-2.19933 -20.79574,-8.2493 -28.4961,-13.47851 -7.79907,-5.29625 -19.54251,-16.38326 -26.15039,-24.6875 -3.44239,-4.32612 -5.06635,-5.84089 -6.55468,-5.92578 z" />
</svg>
