<?xml version="1.0" encoding="UTF-8" standalone="no"?>
<svg
   width="768"
   height="768"
   viewBox="0 0 768 768"
   version="1.1"
   id="svg84"
   xmlns="http://www.w3.org/2000/svg"
   xmlns:svg="http://www.w3.org/2000/svg">
  <defs
     id="defs84" />
  <g
     id="g1"
     transform="translate(107.25068,102.65232)">
    <path
       style="fill:#028296;stroke-width:1.00157"
       d="m 407.26025,144.67887 c -26.2784,-5.80782 -35.53012,-8.06303 -36.39234,-8.87101 -0.49079,-0.45992 -2.14988,-5.82534 -3.68686,-11.92317 -3.31374,-13.14691 -10.78567,-29.40361 -17.96687,-39.09051 -13.82449,-18.64821 -35.1157,-31.28425 -59.01733,-35.02599 -10.88772,-1.70444 -27.50591,-0.61434 -38.13986,2.50186 l -8.70326,2.55043 -7.96295,-3.40828 c -15.41395,-6.59745 -41.14176,-13.55587 -50.12095,-13.55587 -1.74693,0 -3.02625,-0.42794 -2.84291,-0.95098 0.18333,-0.52304 3.48333,-3.47293 7.33333,-6.55532 39.5533,-31.6671498 94.06083,-39.2078748 141.15937,-19.52838 46.29269,19.34277 77.81513,62.06201 87.30597,118.31712 1.1861,7.03034 2.01662,14.0245 1.8456,15.54259 l -0.31094,2.76015 z"
       id="path85" />
    <path
       style="fill:#028296;stroke-width:1.00157"
       d="m 425.80657,380.10633 c -1.53462,-10.70761 -9.81148,-32.12193 -22.51425,-58.25 -16.32876,-33.58631 -21.13311,-45.7509 -25.5467,-64.6841 -2.09302,-8.97857 -4.44407,-25.60197 -4.46705,-31.58495 -0.017,-4.43289 0.14028,-4.73334 2.23168,-4.26244 1.2375,0.27864 7.425,1.6427 13.75,3.03124 6.325,1.38854 16.45,3.89007 22.5,5.55896 l 11,3.03434 1.79404,9.20347 c 2.98714,15.32415 8.08086,28.5875 22.1024,57.55163 13.37673,27.63214 17.80932,38.04295 22.20379,52.15 l 2.33575,7.49815 -4.71799,4.87464 c -5.07719,5.24576 -15.25151,12.33178 -21.71799,15.12575 -4.65868,2.01287 -15.48402,5.48456 -17.13646,5.49567 -0.62505,0.004 -1.4428,-2.12986 -1.81722,-4.74236 z"
       id="path86" />
    <path
       style="fill:#028296;stroke-width:1.00157"
       d="m 315.76025,545.36654 c -20.43407,-3.62004 -41.94193,-12.61252 -58.98109,-24.66011 -11.62912,-8.2224 -29.40598,-25.81116 -38.25487,-37.8501 -7.44313,-10.12638 -13.73412,-19.90283 -13.13063,-20.40551 0.32485,-0.27059 42.0291,-10.06078 47.53218,-11.15832 1.69625,-0.3383 3.25417,0.93612 7.18833,5.88025 6.60788,8.30424 18.35115,19.39015 26.15023,24.6864 7.70035,5.22921 20.49076,11.27897 28.49585,13.4783 8.26958,2.27201 27.64076,3.09321 37.07296,1.57163 18.12156,-2.92332 38.69109,-13.22194 49.86413,-24.96565 2.47008,-2.59624 3.68552,-3.0871 7.64405,-3.0871 13.54072,0 38.10192,-3.92791 50.73274,-8.11336 3.47263,-1.15072 6.57236,-1.83373 6.88828,-1.51781 1.02703,1.02702 -7.4925,17.48487 -13.92679,26.90348 -19.58506,28.66895 -50.96951,49.62628 -86.6458,57.85877 -11.51583,2.65733 -39.16339,3.41044 -50.62957,1.37913 z"
       id="path87" />
    <path
       style="fill:#028296;stroke-width:1.00157"
       d="M 159.67937,378.10633 C 152.13986,368.07215 141.2657,357.26409 128.76025,347.37516 97.237247,322.44773 88.716447,315.27543 78.516097,305.0826 c -13.02848,-13.01889 -12.65016,-11.28616 -5.65905,-25.9189 3.53598,-7.40099 6.07186,-10.95789 13.01124,-18.25 4.74059,-4.98155 9.13062,-9.0543 9.75561,-9.05054 0.62499,0.004 2.26135,1.68316 3.63635,3.732 1.375003,2.04884 7.450003,8.70149 13.500003,14.78368 10.08906,10.14272 15.90224,15.03134 46.58333,39.17441 19.25169,15.14924 34.30455,31.15287 46.27465,49.19746 7.16686,10.80385 10.04409,16.03689 9.25258,16.8284 -1.44348,1.44347 -42.41313,10.27722 -47.66429,10.27722 -0.95777,0 -4.25401,-3.39383 -7.52715,-7.75 z"
       id="path88" />
    <path
       style="fill:#028296;stroke-width:1.00157"
       d="m 27.263437,190.70511 c 0.0145,-56.18974 36.80194,-108.81563 89.996813,-128.74413 17.33928,-6.49585 28.77217,-8.53802 48,-8.57388 19.38204,-0.0361 30.29609,1.67703 48.5,7.61303 17.88495,5.832 50.32484,22.63571 47.85744,24.78993 -3.84645,3.35822 -33.57174,27.18144 -36.16822,28.98689 l -3.31079,2.30213 -7.85136,-3.58895 c -35.30125,-16.13663 -67.75167,-15.43631 -95.93126,2.0703 -14.78725,9.1866 -29.163403,26.34271 -35.738153,42.64892 l -3.18183,7.89135 -9.60348,5.12781 c -12.20195,6.51528 -25.74281,16.10844 -35.18838,24.92957 l -7.38397,6.89581 z"
       id="path89" />
    <path
       style="fill:#028296;stroke-width:1.00157"
       d="m 447.26025,225.84573 c -12.02491,-6.60273 -33.55779,-13.1469 -67.20333,-20.4241 -36.79388,-7.95815 -56.24279,-15.45476 -80.14888,-30.8935 l -9.85221,-6.36263 14.35221,-11.50797 c 7.89372,-6.32938 17.0961,-13.34412 20.44974,-15.5883 l 6.09752,-4.08034 9.89155,4.96092 c 12.58302,6.31078 26.47304,10.78123 47.9134,15.42073 24.07979,5.21065 43.46999,10.20976 54.5,14.05097 16.37896,5.70399 16.64334,5.8585 17.35097,10.14057 1.08645,6.57436 0.70504,17.89724 -0.85222,25.30021 -1.65388,7.86225 -6.42772,20.16781 -7.99875,20.61842 -0.55,0.15775 -2.575,-0.57799 -4.5,-1.63498 z"
       id="path90" />
    <path
       style="fill:#028296;stroke-width:1.00157"
       d="m 388.26025,451.7485 c -6.325,-0.49407 -12.02991,-1.0953 -12.67757,-1.33606 -1.11957,-0.41619 16.47189,-39.56897 20.1161,-44.77182 1.23292,-1.76023 2.36726,-2.1372 5.79716,-1.92656 6.75936,0.41512 25.52126,-1.77136 34.26431,-3.9931 34.63682,-8.80173 59.67444,-34.70751 67.04007,-69.36463 1.08197,-5.09095 1.70095,-12.5454 1.7022,-20.5 l 0.002,-12.5 4.75988,-6.5 c 9.3104,-12.71412 18.56794,-29.51901 22.99939,-41.75 1.24546,-3.4375 2.58627,-6.25 2.9796,-6.25 1.17555,0 9.63871,18.89623 12.31657,27.5 5.43608,17.46572 7.46081,43.59924 4.72606,61 -6.31963,40.21073 -28.30407,75.04695 -60.99252,96.64785 -27.72435,18.32055 -64.36611,26.76476 -103.03325,23.74432 z"
       id="path91" />
    <path
       style="fill:#028296;stroke-width:1.00157"
       d="m 152.40564,446.50633 c -6.65033,-11.08665 -11.15723,-26.40936 -11.13521,-37.85784 l 0.0102,-5.29216 11.73982,-0.219 c 16.73647,-0.31222 34.19456,-3.24199 64.23982,-10.78059 22.52444,-5.65156 42.53808,-8.50041 59.71671,-8.50041 8.79375,0 35.09119,2.47457 36.00463,3.388 0.53021,0.53021 -11.95518,26.57913 -17.78798,37.112 l -4.98394,9 -15.72471,0.082 c -17.62498,0.0919 -22.76315,0.88923 -54.22471,8.41462 -24.95133,5.96819 -41.26173,8.85543 -54.5,9.6475 l -10,0.59832 z"
       id="path92" />
    <path
       style="fill:#028296;stroke-width:1.00157"
       d="M 53.260247,421.64465 C 22.646907,397.41793 3.1969368,360.7144 0.39027682,321.87508 -3.8883832,262.66606 27.205797,210.9277 84.222237,182.38503 c 8.79279,-4.40171 28.573563,-12.5287 30.494343,-12.5287 0.29902,0 0.54367,11.6099 0.54367,25.79978 v 25.79977 l -8.14812,3.95023 c -29.200693,14.15654 -48.460453,36.09547 -55.505243,63.22639 -5.82723,22.44189 -1.86816,50.6456 9.76391,69.55634 l 2.9725,4.83252 -1.9845,12.16748 c -2.45518,15.05329 -3.33961,31.41127 -2.32043,42.91749 0.42627,4.8125 0.53808,8.73476 0.24846,8.71614 -0.28962,-0.0186 -3.45158,-2.34864 -7.02658,-5.17782 z"
       id="path93" />
    <path
       style="fill:#028296;stroke-width:1.00157"
       d="m 197.26894,179.10633 c 0.009,-22.10452 0.66645,-31.25 2.2456,-31.25 2.19569,0 21.79154,-10.18699 29.27063,-15.21648 4.41371,-2.9681 17.62501,-13.12568 29.35844,-22.5724 19.44416,-15.65471 36.12995,-27.59184 48.20537,-34.48642 l 4.58872,-2.61998 6.41128,4.32357 c 10.69912,7.21516 19.62999,17.10955 24.94237,27.63333 l 2.85991,5.66543 -8.35717,4.14114 c -10.16159,5.03527 -26.23339,15.56688 -37.03384,24.26771 -4.4,3.54464 -14.01633,11.30778 -21.36963,17.25143 -25.85234,20.89635 -45.07789,31.84981 -71.05319,40.48145 -5.18256,1.72217 -9.57006,3.13122 -9.75,3.13122 -0.17995,0 -0.32327,-9.3375 -0.31849,-20.75 z"
       id="path94" />
    <path
       style="fill:#028296;stroke-width:1.00157"
       d="m 459.3472,287.73211 c -6.09782,-12.44331 -11.08695,-23.28607 -11.08695,-24.09501 0,-0.80894 0.89629,-2.28193 1.99176,-3.27331 2.82708,-2.55847 13.23196,-17.98785 16.50285,-24.47204 7.46634,-14.80123 10.65567,-27.80904 10.67429,-43.53542 0.0149,-12.57539 -1.6365,-21.59087 -6.05219,-33.04114 -6.00289,-15.56601 -19.89677,-32.93159 -33.86671,-42.32906 -4.10546,-2.76171 -6.25,-4.87585 -6.25,-6.1614 0,-4.84286 -9.45697,-30.1468 -15.91463,-42.58264 -5.42351,-10.44433 -6.58115,-13.38422 -5.26815,-13.37875 3.59363,0.015 18.61101,4.12822 27.42891,7.51278 38.5522,14.79743 69.73972,48.23238 82.57432,88.52482 4.4253,13.8926 6.1727,25.5005 6.17636,41.02917 0.009,40.0662 -15.40717,75.29285 -48.32695,110.42622 l -7.49596,8 z"
       id="path95" />
    <path
       style="fill:#028296;stroke-width:1.00157"
       d="m 323.76025,480.37973 c -10.80944,-2.37376 -24.43478,-8.70497 -31.95562,-14.84864 l -2.95563,-2.41441 5.62443,-7.38017 c 10.86442,-14.25593 17.98526,-27.05591 32.47789,-58.38018 8.04763,-17.39411 17.46651,-34.19632 25.02155,-44.63559 6.79491,-9.38897 19.59694,-23.88688 25.89102,-29.32079 l 5.34732,-4.61654 7.37584,14.78646 c 4.05672,8.13255 8.87058,18.47282 10.69748,22.97837 l 3.32164,8.1919 -2.70903,3.3081 c -14.82545,18.10392 -19.23167,25.42991 -33.59858,55.86252 -11.79784,24.99069 -18.15317,36.78756 -26.77251,49.69557 -6.20382,9.29061 -6.24011,9.30445 -17.7658,6.7734 z"
       id="path96" />
    <path
       style="fill:#028296;stroke-width:1.00157"
       d="m 199.76025,546.16782 c -46.41533,-6.01609 -88.48059,-35.43313 -108.949143,-76.19022 -5.41859,-10.78952 -11.16659,-29.04172 -13.10743,-41.62127 -2.40664,-15.5987 -1.55427,-40.43621 1.95612,-57 2.29968,-10.85106 7.5549,-28.80929 9.39047,-32.08927 0.51311,-0.91687 5.20381,2.19022 16.092913,10.65983 8.45279,6.57464 17.49296,13.73241 20.08925,15.90615 l 4.72054,3.95226 -2.05598,8.78551 c -1.68576,7.20352 -2.05482,12.1168 -2.04952,27.28552 0.006,17.28068 0.18522,19.07978 2.71874,27.29659 10.48227,33.99651 38.10692,58.10777 73.02951,63.74139 l 7.4821,1.20699 7.58725,8.70895 c 8.32861,9.55991 19.42349,19.43433 31.78437,28.28801 4.70746,3.37179 7.45805,5.93413 6.66364,6.20758 -3.48778,1.20052 -14.0486,3.4999 -20.54438,4.47308 -6.75126,1.01145 -28.15997,1.25064 -34.80845,0.3889 z"
       id="path97" />
    <path
       style="fill:#028296;stroke-width:1.00157"
       d="m 148.21624,279.46332 c -8.5008,-6.80957 -17.19299,-14.18904 -19.31598,-16.39882 l -3.86,-4.01778 2.58648,-10.8452 c 3.57389,-14.98544 4.97398,-32.38352 4.37336,-54.34519 -0.70585,-25.80981 0.91567,-55.04109 3.7501,-67.60349 0.35365,-1.56737 2.15865,-2.65632 7.08196,-4.27253 12.95013,-4.25123 25.95296,-4.92046 39.43286,-2.02954 l 4.69599,1.00711 -1.77836,7.46431 c -3.36407,14.11998 -4.15808,25.56896 -4.39929,63.43414 -0.25584,40.16144 -1.07043,49.59875 -5.94586,68.885 -2.58602,10.22984 -8.96335,28.9011 -10.34246,30.28021 -0.45255,0.45255 -7.77801,-4.74865 -16.2788,-11.55822 z"
       id="path98" />
  </g>
</svg>
