<?xml version="1.0" encoding="UTF-8" standalone="no"?>

<svg
   xmlns:svg="http://www.w3.org/2000/svg"
   xmlns="http://www.w3.org/2000/svg"
   width="7cm"
   height="7cm"
   viewBox="0 0 69.999999 69.999997"
   version="1.1"
   id="svg8">
  <defs
     id="defs2" />
  <g
     id="layer1"
     transform="translate(160.98516,-261.85881)">
    <path
       style="fill:#008297;fill-opacity:1;stroke-width:0.05693433"
       d="m -134.34536,328.8709 c -3.88586,-0.27657 -7.51519,-1.92625 -10.25193,-4.65989 -1.42706,-1.42546 -2.3471,-2.70296 -3.17978,-4.41521 -0.53678,-1.10375 -0.82585,-1.92439 -1.22341,-3.47299 -0.14434,-0.56229 -0.30669,-1.70704 -0.37948,-2.67592 -0.14591,-1.94183 0.0973,-4.49315 0.60548,-6.34817 0.0814,-0.29748 0.18365,-0.67366 0.22703,-0.83593 0.10556,-0.39477 0.57063,-1.67351 0.75775,-2.08367 l 0.15016,-0.32908 0.28468,0.19205 c 0.66485,0.44848 1.55966,0.95419 2.74653,1.55218 1.153,0.58091 2.27832,1.2535 2.45655,1.46825 0.057,0.0687 0.0271,0.21948 -0.15746,0.79694 -1.01021,3.15993 -0.90995,6.35957 0.2772,8.84746 0.53819,1.12786 1.2085,2.04301 2.13336,2.91263 1.49617,1.40681 3.38267,2.30462 5.44586,2.59178 0.25242,0.0352 0.2816,0.0604 0.74959,0.64628 1.42153,1.77989 3.15345,3.37108 5.01046,4.60331 l 0.62078,0.41194 -0.48516,0.14798 c -1.12153,0.34208 -2.38772,0.56649 -3.70351,0.65635 -0.89867,0.0613 -1.14447,0.0606 -2.0847,-0.007 z m 14.54672,0.003 c -2.79775,-0.1899 -5.5908,-1.14009 -7.91388,-2.69224 -1.97589,-1.32021 -3.92217,-3.18598 -5.14754,-4.93461 -0.5968,-0.85168 -0.9037,-1.32615 -1.25958,-1.94731 l -0.40038,-0.69886 0.1585,-0.0505 c 1.00234,-0.31953 2.26921,-0.83417 3.45515,-1.40356 0.68946,-0.33105 2.13411,-0.85399 2.35439,-0.85229 0.0631,6.1e-4 0.26958,0.25437 0.56707,0.69744 1.03932,1.54804 2.44826,2.95475 3.90666,3.90054 1.87697,1.21722 4.35956,1.80486 6.45422,1.52777 2.09294,-0.27686 3.98072,-1.12925 5.40303,-2.43961 l 0.46085,-0.42457 1.36104,-0.0346 c 1.44608,-0.0366 2.52885,-0.15361 3.79431,-0.40988 0.75906,-0.15373 2.11107,-0.51074 2.68595,-0.70928 0.18519,-0.064 0.34635,-0.10666 0.35811,-0.0949 0.0584,0.0586 -0.59504,1.51452 -1.02544,2.28473 -0.74488,1.333 -1.58483,2.4376 -2.71033,3.56425 -2.82057,2.82349 -6.37834,4.43362 -10.42403,4.71757 -0.90248,0.0634 -1.14251,0.0634 -2.0781,0 z m 0.28878,-8.20352 c -1.02046,-0.0981 -2.21419,-0.47169 -3.11295,-0.97432 -0.66726,-0.37315 -2.10066,-1.46737 -2.10066,-1.60359 0,-0.0304 0.11088,-0.19762 0.2465,-0.3718 0.60998,-0.78365 1.22094,-1.79943 1.61571,-2.68628 0.49595,-1.11413 0.67287,-1.67391 1.15607,-3.65764 0.67626,-2.77645 2.04222,-5.47747 3.90537,-7.72242 0.47907,-0.57724 2.03031,-2.16356 2.1156,-2.16345 0.0229,5e-5 0.11669,0.13455 0.20828,0.29892 0.38925,0.69873 1.18365,1.8348 2.00046,2.86089 0.49838,0.62608 0.91889,1.24895 1.21974,1.8067 l 0.22674,0.42036 -0.26006,0.25289 c -0.40538,0.39424 -1.05367,1.22257 -1.53699,1.96384 -0.87631,1.34399 -1.42599,2.74364 -1.87589,4.77664 -0.39662,1.79218 -1.29379,4.02594 -2.29338,5.70997 -0.55627,0.93718 -0.72342,1.15519 -0.87851,1.14585 -0.0703,-0.003 -0.35646,-0.0297 -0.63603,-0.0565 z m 6.99605,-2.95145 c -0.57272,-0.0422 -1.47447,-0.15874 -2.13227,-0.2754 -0.17363,-0.0308 -0.25274,-0.0721 -0.24547,-0.1279 0.007,-0.0453 0.15259,-0.49688 0.32592,-1.00339 0.17336,-0.50655 0.45663,-1.49693 0.6295,-2.20091 0.30799,-1.25418 0.53006,-1.96936 0.80347,-2.58758 l 0.13673,-0.30919 0.24244,0.0332 c 0.13335,0.0183 0.79328,0.0498 1.46654,0.0703 0.99045,0.03 1.35991,0.0186 1.93576,-0.0596 2.83245,-0.38415 4.71154,-1.21274 6.3977,-2.82107 1.00119,-0.95495 1.67734,-1.93487 2.23587,-3.24028 0.56186,-1.31327 0.775644,-2.45391 0.753554,-4.02081 l -0.0144,-1.0261 0.46027,-0.57776 c 0.89788,-1.12704 1.67513,-2.32609 2.35487,-3.63282 0.424135,-0.81536 1.010251,-2.15091 1.168578,-2.66279 l 0.10165,-0.32849 0.169808,0.27155 c 0.311116,0.49753 1.047382,2.08465 1.28809,2.77667 0.323891,0.93112 0.592423,2.00134 0.750002,2.98906 0.113792,0.71321 0.131821,1.03468 0.132539,2.36276 8.06e-4,1.62093 -0.04058,2.08742 -0.293101,3.29834 -0.884406,4.24094 -3.346946,7.88279 -6.93004,10.24882 -2.20636,1.45694 -4.69275,2.33034 -7.80669,2.74229 -0.74683,0.0988 -3.04756,0.14618 -3.93124,0.0809 z m -27.02587,-0.10139 c -0.18446,-0.20913 -0.68469,-1.02414 -0.87591,-1.42712 -0.28116,-0.59249 -0.56907,-1.48693 -0.67231,-2.08856 -0.11126,-0.64834 -0.17493,-1.8798 -0.12252,-2.36921 l 0.0402,-0.37511 0.83616,-0.035 c 2.07343,-0.0868 3.7348,-0.53381 5.95925,-1.60361 2.06128,-0.99134 4.13521,-1.57878 6.43458,-1.8226 1.45646,-0.15445 3.71343,-0.0895 5.06358,0.14554 l 0.36778,0.064 -0.11768,0.29358 c -0.29145,0.72693 -0.58911,1.70817 -0.90949,2.99794 -0.30838,1.24141 -0.51104,1.89883 -0.81659,2.64891 l -0.0933,0.2292 -1.1493,-0.0226 c -1.34674,-0.0266 -2.23263,0.0505 -3.20136,0.27819 -0.96239,0.22624 -1.786,0.51254 -2.72205,0.94619 -1.53618,0.71169 -1.89151,0.86145 -2.74123,1.15542 -1.40364,0.48561 -2.82784,0.81388 -4.35333,1.00336 -0.81833,0.10172 -0.82038,0.10161 -0.9264,-0.0187 z m -12.06241,-3.00907 c -2.93962,-2.07388 -5.19388,-5.22236 -6.17187,-8.62016 -0.50925,-1.76931 -0.68079,-3.11023 -0.63722,-4.98136 0.0433,-1.86112 0.24377,-3.02891 0.81595,-4.75402 0.76637,-2.31063 2.02941,-4.37445 3.77585,-6.16978 2.35801,-2.42402 5.63365,-4.35334 8.95359,-5.27361 l 0.3825,-0.10599 0.0261,0.1809 c 0.0143,0.0995 0.0667,0.54027 0.11621,0.97949 0.0783,0.69444 0.22275,1.47756 0.56666,3.07296 0.12053,0.55935 0.20556,1.29173 0.20556,1.77138 v 0.40794 l -0.58358,0.21171 c -1.8034,0.6542 -3.7117,1.86279 -5.00398,3.16919 -1.3605,1.37536 -2.22025,2.96983 -2.67411,4.95926 -0.17138,0.75121 -0.21478,2.44468 -0.0851,3.32378 0.17295,1.1732 0.59562,2.40371 1.19009,3.46477 l 0.2552,0.45548 -0.18696,0.83122 c -0.40953,1.82087 -0.57791,3.62438 -0.51506,5.51696 0.0224,0.67324 0.0605,1.37781 0.0848,1.56569 0.0244,0.18789 0.0391,0.34842 0.0324,0.35671 -0.007,0.009 -0.2527,-0.1548 -0.54709,-0.3625 z m 42.33913,-5.21655 c -0.0127,-0.0398 -0.10204,-0.36239 -0.19852,-0.71661 -0.55113,-2.02403 -1.43465,-3.68102 -2.96586,-5.56231 -0.42858,-0.52655 -1.21622,-1.68709 -1.60326,-2.36224 -1.14039,-1.98942 -1.94315,-4.25709 -2.3178,-6.54747 -0.12029,-0.73569 -0.26221,-2.15372 -0.21972,-2.19621 0.0133,-0.0133 0.29102,0.0134 0.61724,0.059 0.77702,0.10906 2.31349,0.20014 3.38439,0.20084 0.83568,6e-4 1.49441,0.0556 2.14124,0.17924 l 0.32087,0.0612 0.0376,0.29279 c 0.30277,2.35435 1.33297,4.68051 2.96634,6.69788 1.50462,1.85832 2.67126,3.96349 3.4661,6.25443 l 0.20452,0.58945 -0.17371,0.21931 c -0.29918,0.37777 -1.14513,1.13393 -1.61998,1.44807 -0.93242,0.61682 -1.97047,1.0356 -3.1811,1.28328 -0.31711,0.0648 -0.63477,0.13008 -0.70592,0.14487 -0.0753,0.0157 -0.13903,-0.003 -0.15249,-0.0456 z m -29.04342,-0.57575 c -0.94568,-1.42644 -2.36315,-2.78764 -3.91636,-3.76087 -0.27742,-0.17382 -0.93072,-0.52479 -1.45183,-0.77996 -2.41896,-1.1845 -4.21749,-2.44762 -5.888,-4.13529 l -0.4997,-0.50482 0.14674,-0.50977 c 0.27746,-0.96382 0.92018,-2.14152 1.60726,-2.94508 0.3662,-0.42826 1.12085,-1.11186 1.69357,-1.53408 l 0.45545,-0.33578 0.2253,0.27377 c 0.12392,0.15056 0.55947,0.61502 0.96789,1.03213 1.18338,1.20855 2.36765,2.0389 4.13018,2.89587 2.88609,1.40326 5.06218,3.11866 6.97244,5.49631 0.61413,0.7644 1.85237,2.65692 1.85237,2.83117 0,0.0276 -0.24979,0.133 -0.5551,0.23382 -0.84087,0.27767 -1.58361,0.581 -2.77555,1.13352 -1.11257,0.51573 -1.64987,0.72737 -2.31308,0.91117 l -0.38127,0.10566 z m 34.1807,-8.19457 c -0.23743,-0.38417 -0.7481,-1.11589 -1.13482,-1.62607 -1.1413,-1.50571 -1.44964,-1.94447 -1.75884,-2.50282 l -0.29285,-0.52884 0.58889,-0.61126 c 1.23791,-1.28488 2.25325,-2.8775 2.91749,-4.57619 0.50011,-1.27895 0.73754,-2.97381 0.60783,-4.33862 -0.29257,-3.0781 -1.7594,-5.52873 -4.40757,-7.36362 -0.16092,-0.11151 -0.26535,-0.22719 -0.26535,-0.29393 0,-0.2337 -0.4768,-1.99331 -0.77658,-2.86597 -0.173,-0.50358 -0.45489,-1.23827 -0.62642,-1.63265 -0.34229,-0.787 -1.08454,-2.23707 -1.32878,-2.59586 -0.0853,-0.12525 -0.18559,-0.28587 -0.22297,-0.35693 -0.0667,-0.12681 -0.0635,-0.12853 0.17662,-0.094 1.74684,0.2506 3.71208,0.88379 5.21824,1.68127 3.12125,1.65265 5.466694,4.05829 7.012264,7.19228 2.047967,4.15272 2.233487,8.79513 0.52569,13.15559 -0.85389,2.18015 -2.219024,4.38169 -3.812874,6.1489 -0.53394,0.59204 -1.88182,1.9073 -1.95457,1.9073 -0.0187,0 -0.22797,-0.31431 -0.4654,-0.69848 z m -33.1518,-2.1258 c -0.59938,-0.41907 -1.52729,-0.9467 -2.76132,-1.5702 -0.70456,-0.35599 -1.54521,-0.8259 -1.86813,-1.04426 -0.66924,-0.45258 -0.63662,-0.35027 -0.38071,-1.1941 0.3206,-1.05716 0.43243,-1.83035 0.4653,-3.2168 0.0348,-1.46795 -0.0211,-2.03546 -0.34452,-3.50146 -0.37425,-1.696 -0.475,-2.41652 -0.54541,-3.89999 -0.0519,-1.09327 0.002,-2.56298 0.12822,-3.49647 l 0.0686,-0.50744 0.37814,-0.16002 c 1.30547,-0.55241 2.90229,-0.74998 4.30531,-0.53268 0.59787,0.0926 1.70999,0.34894 1.82667,0.42106 0.0565,0.035 0.0477,0.16284 -0.0429,0.60845 -0.19812,0.97672 -0.25763,1.61296 -0.25511,2.72767 0.003,1.43706 0.049,1.77865 0.5561,4.15226 0.28779,1.34698 0.34866,2.02899 0.34588,3.8755 -0.002,1.77681 -0.0524,2.35914 -0.31618,3.69572 -0.27183,1.37795 -1.06519,3.85654 -1.23069,3.84493 -0.0246,-10e-4 -0.17282,-0.0927 -0.32939,-0.20217 z m 30.31753,-6.82367 c -0.72382,-0.32673 -1.82348,-0.69042 -2.59277,-0.8575 -1.03566,-0.22492 -1.85474,-0.30583 -3.4224,-0.33807 -2.36108,-0.0485 -3.72865,-0.23575 -5.6129,-0.76833 -1.91264,-0.54061 -4.11371,-1.59392 -5.69894,-2.72717 l -0.27519,-0.19672 0.76481,-0.77409 c 0.73272,-0.74163 1.32862,-1.41775 2.06228,-2.3398 0.38661,-0.48592 1.42462,-1.52072 1.57254,-1.56766 0.0555,-0.0176 0.21851,0.0427 0.37394,0.13838 0.48138,0.2962 1.79056,0.9028 2.40365,1.11371 1.43031,0.49205 2.4907,0.6476 4.87388,0.7149 1.03807,0.0293 2.10359,0.0901 2.47665,0.14137 1.446,0.19859 3.05705,0.58639 4.31047,1.03755 l 0.58126,0.20923 0.062,0.28765 c 0.30362,1.40883 0.14337,3.01538 -0.45179,4.52925 -0.26292,0.66876 -0.74248,1.61043 -0.8297,1.6292 -0.0313,0.007 -0.30032,-0.0977 -0.59781,-0.2319 z m -26.66581,-2.06628 c -0.0162,-0.0861 -0.0461,-0.36153 -0.0662,-0.61204 -0.0484,-0.60211 -0.26497,-1.88275 -0.48344,-2.85784 -0.20591,-0.9191 -0.32931,-1.75403 -0.34706,-2.34827 l -0.0126,-0.4236 0.56455,-0.23517 c 2.41983,-1.00798 4.01001,-2.26002 5.85588,-4.61069 0.79231,-1.00899 2.33202,-2.48871 3.53351,-3.39586 0.40123,-0.30296 1.26719,-0.88646 1.72296,-1.16102 l 0.32095,-0.19334 0.44548,0.23735 c 0.96721,0.51536 2.0898,1.53642 2.70989,2.46482 0.30654,0.45894 1.1489,2.09078 1.1489,2.22566 0,0.0402 -0.2626,0.20812 -0.58358,0.37301 -1.81387,0.93171 -3.26564,2.17285 -4.80895,4.11121 -0.60688,0.76222 -2.14617,2.33549 -2.79698,2.85871 -1.99048,1.60026 -3.93905,2.67811 -6.22554,3.44366 -0.45989,0.15399 -0.86138,0.27999 -0.89218,0.27999 -0.0308,0 -0.0692,-0.0704 -0.0856,-0.15658 z m -21.51854,-0.84705 c -0.072,-0.25543 -0.0966,-1.76979 -0.0412,-2.52631 0.27839,-3.80448 1.69556,-7.11177 4.26698,-9.95799 2.12574,-2.35292 5.26721,-4.1425 8.48845,-4.8356 1.22839,-0.26431 1.83534,-0.32048 3.44451,-0.31878 1.40631,0.001 1.61967,0.015 2.50511,0.15989 2.12987,0.34826 4.50257,1.11452 6.09198,1.96742 0.2192,0.11756 0.57789,0.31024 0.79708,0.42805 0.45983,0.2471 2.19197,1.38378 2.19197,1.43842 0,0.0202 -0.3412,0.38438 -0.75823,0.80937 -0.41704,0.42499 -1.02081,1.09298 -1.34168,1.4844 -1.12771,1.3756 -1.23522,1.49564 -1.76538,1.97121 l -0.53463,0.47958 -0.14858,-0.0981 c -1.43315,-0.94665 -3.19917,-1.66856 -4.98799,-2.039 -0.90662,-0.18775 -2.37695,-0.25395 -3.25467,-0.14655 -2.25483,0.27593 -4.33406,1.31575 -5.88383,2.94251 -0.9122,0.95751 -1.56065,1.96712 -2.04345,3.18162 l -0.18108,0.45547 -0.78053,0.37955 c -2.07251,1.00774 -4.03882,2.37619 -5.57122,3.87727 -0.38338,0.37555 -0.46884,0.43575 -0.49365,0.34761 z m 45.43276,-6.2866 c -0.5346,-0.0896 -1.73433,-0.16505 -3.09015,-0.19394 -0.75483,-0.016 -1.56187,-0.0556 -1.79345,-0.088 -0.71874,-0.1004 -1.07575,-0.18312 -1.07602,-0.24946 -0.001,-0.24387 -0.24855,-1.66842 -0.39199,-2.25573 -0.33943,-1.38987 -1.17954,-3.276 -1.92732,-4.32701 -0.50053,-0.7035 -1.66196,-1.86454 -2.34905,-2.34818 -2.05475,-1.44642 -4.60129,-2.05327 -7.08832,-1.68919 -0.21919,0.032 -0.74054,0.14964 -1.15851,0.26121 l -0.75995,0.20287 -0.72034,-0.3458 c -1.40885,-0.67627 -2.7486,-1.15403 -4.3208,-1.54079 -0.76643,-0.18854 -1.20788,-0.27047 -2.69078,-0.49941 l -0.19926,-0.0308 0.31313,-0.28587 c 1.9934,-1.8197 4.46539,-3.15452 7.03138,-3.79674 2.99085,-0.74854 6.14755,-0.63683 9.02411,0.31935 3.68491,1.22491 6.83383,3.74402 8.81125,7.04893 1.05341,1.76061 1.9434,3.97523 2.36811,5.89272 0.27625,1.24717 0.49218,2.83601 0.49218,3.62135 0,0.40589 0.0269,0.38863 -0.47422,0.30449 z"
       id="path3764"
       />
  </g>
</svg>
