<?xml version="1.0" encoding="UTF-8" standalone="no"?>
<svg
   xmlns:svg="http://www.w3.org/2000/svg"
   xmlns="http://www.w3.org/2000/svg"
   viewBox="0 0 264.56693 264.56693"
   height="264.56693"
   width="264.56693"
   xml:space="preserve"
   id="svg2"
   version="1.1"><defs
     id="defs6" /><g
     transform="matrix(1.3333333,0,0,-1.3333333,0,264.56693)"
     id="g10"><g
       id="g12"><path
         id="path14"
         style="fill:#ffffe0;fill-opacity:1;fill-rule:nonzero;stroke:none"
         d="M 76.977,6.878 C 70.352,7.316 64.777,8.617 59,11.085 52.137,14.015 45.262,19.171 40.598,24.886 36.164,30.32 33.457,35.277 31.324,41.878 l -0.746,2.305 -1.851,1.082 C 21.66,49.386 15.844,55.003 11.418,61.976 7.766,67.738 5.367,74.292 4.195,81.742 3.73,84.691 3.691,92.429 4.133,95.242 c 0.894,5.769 2.347,10.613 4.562,15.214 1.235,2.571 1.719,3.411 3.578,6.231 l 1.317,1.988 -0.305,1.981 c -1.543,10.058 0.098,20.449 4.692,29.773 3.988,8.094 10.187,15.02 17.882,19.969 3.672,2.363 6.871,3.867 11.422,5.367 4.055,1.34 8.16,2.16 12.367,2.473 l 1.493,0.109 2.242,2.301 c 8.258,8.484 18.754,13.558 30.984,14.988 2.078,0.242 7.969,0.238 10.086,-0.008 8.5,-0.988 15.895,-3.648 22.633,-8.136 3.5,-2.332 4.824,-3.422 7.894,-6.493 l 2.653,-2.652 1.476,-0.109 c 4.188,-0.309 8.301,-1.133 12.356,-2.469 5.613,-1.856 9.676,-3.945 14.293,-7.359 14.793,-10.934 22.512,-29.645 19.695,-47.754 l -0.308,-1.989 0.765,-1.109 c 5.113,-7.402 8.102,-15.629 8.926,-24.59 0.258,-2.84 0.102,-8.633 -0.309,-11.308 -0.886,-5.778 -2.863,-11.887 -5.343,-16.512 -3.934,-7.344 -9.575,-13.586 -16.387,-18.137 -1.031,-0.691 -2.5,-1.609 -3.262,-2.039 l -1.383,-0.789 -0.738,-2.301 C 165.699,36.527 163.707,32.496 160.629,28.144 156.555,22.378 151.84,17.972 145.668,14.16 137.336,9.015 126.531,6.308 116.84,6.937 c -5.5,0.355 -10.383,1.41 -15.402,3.328 l -2.086,0.793 -1.54,-0.609 C 93.629,8.785 88.723,7.585 84.203,7.117 82.391,6.929 78.277,6.792 76.977,6.878 Z M 90.559,75.23 c 2.91,0.465 5.246,0.637 8.785,0.637 3.66,0 6.101,-0.188 9.32,-0.711 1.223,-0.2 2.274,-0.332 2.336,-0.297 0.062,0.035 0.523,0.797 1.023,1.687 1.247,2.223 4.024,6.344 5.7,8.453 0.765,0.961 2.847,3.196 4.629,4.969 l 3.238,3.219 -0.781,1.941 c -2.34,5.785 -3.75,11.828 -4.172,17.903 -0.094,1.351 -0.219,2.558 -0.278,2.675 -0.058,0.118 -1.214,0.551 -2.566,0.965 -6.129,1.879 -10.461,3.946 -15.922,7.594 l -2.5,1.672 -2.5,-1.676 c -5.5,-3.672 -10.598,-6.082 -16.398,-7.746 -1.004,-0.289 -1.907,-0.582 -2.004,-0.656 -0.098,-0.071 -0.223,-0.949 -0.285,-1.988 -0.375,-6.309 -1.809,-12.629 -4.243,-18.75 l -0.773,-1.95 3.23,-3.211 c 1.778,-1.769 3.86,-4 4.622,-4.961 1.675,-2.105 4.789,-6.757 5.886,-8.789 0.77,-1.429 0.805,-1.468 1.27,-1.379 0.262,0.051 1.332,0.231 2.383,0.399 z" /><path
         id="path16"
         style="fill:#00a0a0;fill-opacity:1;fill-rule:nonzero;stroke:none"
         d="m 75.867,12.187 c -10.98,0.844 -20.965,5.383 -28.597,13.008 -3.981,3.976 -6.547,7.543 -8.872,12.316 -1.496,3.078 -2.304,5.379 -3.41,9.688 -0.449,1.746 -0.859,4.734 -1.066,7.754 -0.457,6.695 0.461,13.859 2.676,20.835 0.668,2.106 1.964,5.336 2.175,5.418 0.11,0.04 0.977,-0.418 1.93,-1.023 2.078,-1.312 4.777,-2.789 7.688,-4.203 2.019,-0.977 5.25,-2.965 5.695,-3.5 0.164,-0.199 0.09,-0.594 -0.434,-2.231 -2.82,-8.812 -2.539,-17.738 0.774,-24.679 1.5,-3.145 3.371,-5.699 5.949,-8.125 4.176,-3.922 9.437,-6.426 15.191,-7.227 0.704,-0.101 0.786,-0.172 2.09,-1.805 4.02,-5.031 9.914,-10.39 14.528,-13.21 0.461,-0.278 0.836,-0.602 0.836,-0.715 0,-0.227 -2.598,-0.992 -5.082,-1.496 -3.653,-0.743 -8.598,-1.071 -12.071,-0.805 z m 40.578,0 c -7.804,0.531 -15.597,3.18 -22.078,7.512 -5.512,3.679 -10.937,8.886 -14.359,13.765 -2.184,3.114 -4.457,6.817 -4.457,7.246 0,0.106 0.48,0.348 1.07,0.543 2.578,0.844 5.633,2.114 9.172,3.805 1.687,0.809 5.668,2.223 6.234,2.219 0.176,0 0.75,-0.707 1.582,-1.946 2.899,-4.316 6.829,-8.242 10.899,-10.878 5.234,-3.399 12.16,-5.036 18.004,-4.262 5.836,0.769 11.101,3.148 15.07,6.805 l 1.285,1.183 3.797,0.098 c 6.109,0.152 10.492,0.859 16.625,2.679 1.203,0.356 2.234,0.602 2.293,0.543 0.141,-0.136 -0.144,-0.914 -1.105,-3.027 -2.243,-4.941 -5.168,-9.129 -9.157,-13.125 -7.871,-7.875 -17.793,-12.367 -29.078,-13.16 -2.519,-0.176 -3.187,-0.176 -5.797,0 z m 0.805,22.883 c -2.848,0.273 -6.176,1.316 -8.684,2.718 -1.863,1.043 -5.859,4.094 -5.859,4.473 0,0.086 0.309,0.551 0.688,1.039 1.699,2.184 3.406,5.02 4.507,7.492 1.383,3.11 1.875,4.668 3.223,10.204 1.887,7.746 5.703,15.289 10.895,21.542 1.668,2.004 5.519,5.875 5.847,5.875 0.129,0 0.434,-0.339 0.672,-0.753 0.832,-1.442 3.199,-4.895 4.492,-6.551 2.313,-2.961 2.961,-3.863 3.879,-5.395 1.274,-2.109 1.27,-2.054 0.152,-3.23 -1.351,-1.418 -2.574,-3 -3.968,-5.137 -2.434,-3.734 -3.969,-7.648 -5.223,-13.309 -1.105,-5 -3.609,-11.23 -6.398,-15.929 -1.551,-2.613 -2.016,-3.223 -2.45,-3.196 -0.195,0.012 -0.992,0.083 -1.773,0.157 z m 20.316,8.176 c -2.711,0.167 -7.242,0.812 -7.402,1.058 -0.055,0.078 0.141,0.789 0.434,1.574 0.765,2.055 1.535,4.707 2.347,8.071 0.7,2.898 1.344,4.945 2.094,6.636 l 0.383,0.864 0.676,-0.094 c 0.371,-0.051 2.211,-0.141 4.09,-0.195 2.761,-0.086 3.792,-0.051 5.398,0.164 7.902,1.074 13.144,3.382 17.848,7.871 2.793,2.664 4.679,5.398 6.238,9.039 1.566,3.664 2.16,6.844 2.101,11.215 l -0.043,2.863 1.286,1.609 c 2.453,3.078 4.617,6.407 6.48,9.957 1.125,2.145 2.629,5.508 3.168,7.086 0.211,0.617 0.445,1.032 0.578,1.032 0.129,0 0.848,-1.247 1.738,-3.016 2.235,-4.449 3.582,-8.723 4.387,-13.899 0.36,-2.312 0.406,-9.574 0.078,-11.91 -1.879,-13.367 -8.976,-24.754 -19.937,-31.992 -6.156,-4.062 -13.09,-6.5 -21.778,-7.648 -1.683,-0.223 -8.199,-0.407 -10.164,-0.285 z m -76.187,0.339 c -0.516,0.586 -1.91,2.86 -2.445,3.985 -0.778,1.636 -1.586,4.136 -1.879,5.824 -0.305,1.734 -0.489,6.109 -0.293,6.988 l 0.14,0.637 2.137,0.098 c 5.922,0.281 10.563,1.527 16.746,4.504 5.977,2.875 12.129,4.562 18.867,5.179 3.602,0.328 10.918,0.016 13.668,-0.586 0.543,-0.117 0.567,0.012 -0.519,-3.054 -0.446,-1.254 -1.242,-4.039 -1.778,-6.196 -0.918,-3.699 -1.621,-5.968 -2.304,-7.406 l -0.297,-0.633 -3.285,0.051 c -3.789,0.059 -6.075,-0.145 -8.793,-0.781 -2.676,-0.629 -4.977,-1.426 -7.594,-2.637 -4.285,-1.984 -5.273,-2.402 -7.645,-3.223 -3.917,-1.355 -7.89,-2.273 -12.144,-2.8 -2.281,-0.282 -2.289,-0.282 -2.582,0.05 z M 27.586,52.07 c -7.203,5.172 -12.688,12.261 -15.953,20.609 -1.254,3.199 -2.27,7.43 -2.715,11.285 -0.328,2.832 -0.242,8.668 0.16,11.278 1.078,6.929 3.809,13.898 7.535,19.218 5.539,7.914 14.004,14.52 23.68,18.469 2.379,0.969 5.793,2.133 6.699,2.277 0.684,0.11 0.684,0.11 0.84,-1.847 0.141,-1.754 0.652,-4.828 1.27,-7.625 0.781,-3.551 0.878,-4.16 0.984,-6.196 0.078,-1.457 0.051,-1.863 -0.125,-2.003 -0.121,-0.098 -0.863,-0.407 -1.649,-0.692 -4.789,-1.722 -10.21,-5.176 -13.761,-8.762 -3.793,-3.835 -6.192,-8.285 -7.457,-13.835 -0.481,-2.094 -0.602,-6.817 -0.239,-9.27 0.481,-3.273 1.661,-6.707 3.321,-9.664 l 0.711,-1.274 -0.524,-2.316 C 29.25,66.761 28.758,61.617 28.914,56.57 c 0.055,-1.746 0.145,-3.696 0.203,-4.328 0.059,-0.649 0.043,-1.149 -0.039,-1.145 -0.078,0 -0.75,0.438 -1.492,0.973 z m 118.367,14.41 c -0.074,0.051 -0.363,0.93 -0.641,1.949 -1.562,5.731 -4.015,10.348 -8.304,15.617 -4.578,5.625 -8.395,13.489 -10.16,20.946 -0.832,3.511 -1.645,9.636 -1.321,9.957 0.071,0.07 0.844,0.027 1.715,-0.098 2.117,-0.293 6.426,-0.547 9.403,-0.551 2.328,0 5.66,-0.324 6.453,-0.625 0.308,-0.117 0.406,-0.301 0.496,-0.91 0.968,-6.82 3.715,-13.008 8.273,-18.633 4.188,-5.176 7.449,-11.058 9.656,-17.422 l 0.563,-1.617 -0.441,-0.605 c -0.696,-0.961 -3.153,-3.18 -4.559,-4.114 -1.852,-1.234 -4.297,-2.347 -6.574,-2.992 -2.235,-0.629 -4.352,-1.051 -4.559,-0.902 z m -81.121,1.637 c -1.781,2.761 -5.203,6.39 -8.023,8.5 -2.227,1.668 -4.012,2.742 -6.965,4.187 -6.762,3.313 -11.934,6.949 -16.418,11.539 l -1.387,1.422 0.313,1.121 c 0.82,2.957 2.492,6.078 4.566,8.5 1.48,1.735 5.394,5.039 5.965,5.039 0.129,0 0.429,-0.269 0.676,-0.597 0.246,-0.329 1.418,-1.582 2.601,-2.793 3.379,-3.446 6.649,-5.747 11.602,-8.153 3.047,-1.484 5.285,-2.758 7.504,-4.277 6.769,-4.637 12.191,-10.43 16.304,-17.438 0.68,-1.156 0.793,-1.449 0.621,-1.609 -0.117,-0.105 -0.816,-0.391 -1.558,-0.633 -2.11,-0.683 -4.27,-1.57 -7.59,-3.113 -3.051,-1.418 -6.426,-2.676 -7.184,-2.676 -0.312,0 -0.531,0.207 -1.027,0.981 z m 95.258,22.972 c -0.625,1.024 -2.02,3.028 -3.094,4.446 -2.93,3.859 -4.266,5.769 -5.023,7.175 l -0.684,1.266 1.637,1.715 c 3.492,3.66 6.285,8.047 8.129,12.769 1.394,3.567 2.058,8.293 1.695,12.102 -0.816,8.586 -4.906,15.422 -12.293,20.539 -0.449,0.312 -0.742,0.637 -0.742,0.82 0,0.653 -1.328,5.563 -2.164,7.996 -1.403,4.082 -3.906,9.469 -5.563,11.957 -0.308,0.469 -0.519,0.918 -0.468,0.997 0.109,0.183 2.253,-0.145 4.535,-0.692 7.527,-1.801 14.254,-5.355 20.035,-10.59 4.086,-3.695 7.426,-8.164 9.992,-13.371 5.715,-11.586 6.23,-24.535 1.469,-36.699 -2.383,-6.078 -6.192,-12.223 -10.637,-17.148 -1.988,-2.204 -5.109,-5.165 -5.437,-5.157 -0.141,0.004 -0.731,0.805 -1.387,1.875 z M 67.5,97.066 c -1.867,1.258 -3.984,2.453 -7.438,4.199 -3.371,1.707 -6.207,3.41 -6.734,4.043 -0.183,0.223 -0.168,0.422 0.113,1.332 1.18,3.82 1.485,5.731 1.575,9.965 0.089,4.004 -0.075,5.644 -0.969,9.687 -1.043,4.731 -1.324,6.739 -1.52,10.879 -0.144,3.047 0.004,7.149 0.36,9.75 l 0.191,1.418 1.055,0.446 c 3.64,1.543 8.094,2.093 12.008,1.484 2.07,-0.32 4.914,-1.016 5.109,-1.254 0.105,-0.129 0.059,-0.672 -0.145,-1.672 -0.535,-2.597 -0.707,-4.461 -0.699,-7.555 0.008,-4.003 0.137,-4.957 1.551,-11.582 0.801,-3.757 0.973,-5.66 0.965,-10.808 -0.008,-3.664 -0.074,-5.223 -0.289,-6.738 -0.656,-4.649 -1.629,-8.45 -3.238,-12.68 -0.387,-1.024 -0.637,-1.469 -0.817,-1.469 -0.144,0 -0.629,0.25 -1.078,0.555 z m 84.758,18.902 c -2.051,0.914 -5.113,1.926 -7.235,2.387 -2.886,0.625 -5.171,0.851 -9.546,0.941 -2.282,0.047 -4.856,0.157 -5.715,0.242 -9.055,0.918 -17.356,3.872 -24.844,8.84 -0.867,0.578 -1.574,1.129 -1.574,1.231 0,0.101 0.718,0.894 1.601,1.765 1.582,1.563 4.239,4.571 6.098,6.907 1.078,1.355 3.973,4.242 4.387,4.375 0.152,0.047 0.609,-0.121 1.043,-0.387 1.343,-0.828 4.996,-2.52 6.703,-3.106 3.992,-1.375 6.949,-1.808 13.597,-1.996 5.368,-0.152 7.215,-0.336 11.067,-1.117 3.914,-0.793 9.035,-2.383 9.441,-2.933 0.321,-0.434 0.602,-2.801 0.59,-5 -0.008,-2.555 -0.328,-4.52 -1.105,-6.829 -0.672,-1.992 -2.407,-5.691 -2.754,-5.867 -0.16,-0.078 -0.782,0.114 -1.754,0.547 z m -74.301,5.598 c -0.078,0.152 -0.191,0.922 -0.254,1.707 -0.137,1.789 -0.723,5.269 -1.363,8.133 -0.617,2.754 -0.942,5.019 -0.945,6.574 l -0.004,1.203 1.152,0.449 c 1.574,0.61 4.852,2.27 6.391,3.235 3.57,2.242 6.781,5.285 10.312,9.785 2.207,2.812 6.442,6.883 9.863,9.484 1.735,1.32 5.36,3.621 5.703,3.621 0.454,0 2.598,-1.242 4.004,-2.316 1.543,-1.184 3.758,-3.528 4.789,-5.074 0.856,-1.282 3.207,-5.832 3.207,-6.207 0,-0.114 -0.734,-0.582 -1.628,-1.043 -5.059,-2.598 -9.11,-6.059 -13.414,-11.469 -1.692,-2.125 -5.989,-6.512 -7.801,-7.973 -5.555,-4.465 -10.989,-7.469 -17.367,-9.605 -1.282,-0.43 -2.372,-0.782 -2.418,-0.782 -0.043,0 -0.149,0.125 -0.227,0.278 z m -60.109,2.543 c -0.188,0.32 -0.262,4.992 -0.114,7.027 0.774,10.606 4.731,19.836 11.903,27.777 5.929,6.563 14.691,11.555 23.679,13.489 3.426,0.738 5.118,0.894 9.606,0.886 3.926,0 4.519,-0.039 6.988,-0.445 5.942,-0.969 12.559,-3.109 16.992,-5.488 0.614,-0.328 1.614,-0.863 2.227,-1.192 1.828,-0.988 5.953,-3.781 5.953,-4.035 0,-0.132 -0.914,-1.172 -2.035,-2.316 -1.117,-1.141 -2.766,-2.969 -3.66,-4.059 -0.895,-1.093 -2.071,-2.511 -2.614,-3.156 -1.125,-1.34 -3.503,-3.516 -3.839,-3.516 -0.125,0 -0.676,0.293 -1.227,0.653 -0.547,0.359 -2.211,1.246 -3.695,1.972 -2.989,1.465 -5.91,2.454 -9.371,3.172 -2.528,0.524 -6.629,0.707 -9.079,0.407 -6.289,-0.77 -12.089,-3.668 -16.414,-8.207 -2.253,-2.368 -4.07,-5.082 -5.234,-7.821 -0.359,-0.844 -0.738,-1.707 -0.844,-1.918 -0.136,-0.273 -0.957,-0.773 -2.734,-1.672 -3.781,-1.91 -6.645,-3.687 -9.84,-6.101 -1.84,-1.387 -4.43,-3.61 -5.558,-4.77 -0.786,-0.804 -0.958,-0.914 -1.09,-0.687 z m 126.734,17.512 c -1.48,0.253 -4.828,0.464 -8.648,0.546 -4.559,0.094 -7.973,0.524 -7.977,0.993 -0.004,0.64 -0.711,4.668 -1.094,6.238 -0.945,3.879 -3.289,9.14 -5.375,12.07 -1.394,1.965 -4.636,5.203 -6.554,6.551 -5.731,4.035 -12.832,5.727 -19.77,4.711 -0.613,-0.09 -2.066,-0.418 -3.234,-0.727 l -2.118,-0.566 -2.011,0.965 c -3.809,1.828 -7.516,3.164 -11.719,4.219 -2.352,0.593 -6.457,1.363 -7.277,1.367 -0.989,0.008 -1.028,0.261 -0.164,1.054 5.457,4.993 12.41,8.743 19.535,10.524 8.344,2.09 17.148,1.777 25.172,-0.891 10.277,-3.418 19.062,-10.445 24.578,-19.664 2.937,-4.91 5.422,-11.086 6.605,-16.437 0.809,-3.653 1.453,-8.559 1.344,-10.243 -0.055,-0.89 -0.098,-0.914 -1.293,-0.71 z" /></g></g></svg>
